<?xml version="1.0" encoding="UTF-8"?>
<svg width="24px" height="24px" viewBox="0 0 24 24" version="1.1" xmlns="http://www.w3.org/2000/svg" xmlns:xlink="http://www.w3.org/1999/xlink">
    <!-- Generator: Sketch 61.2 (89653) - https://sketch.com -->
    <desc>Created with Sketch.</desc>
    <defs>
        <rect id="path-1" x="0" y="0" width="24" height="24"></rect>
    </defs>
    <g id="第一版客户端" stroke="none" stroke-width="1" fill="none" fill-rule="evenodd">
        <g id="游戏介绍-独享" transform="translate(-860.000000, -500.000000)">
            <g id="编组-43" transform="translate(860.000000, 500.000000)">
                <g id="编组-21">
                    <g id="编组-3">
                        <mask id="mask-2" fill="white">
                            <use xlink:href="#path-1"></use>
                        </mask>
                        <g id="矩形"></g>
                        <path d="M12.6649147,7 L12.6655654,8.0208361 C13.4050448,8.0845238 13.9798207,8.29421256 14.3898928,8.64990237 C14.8894045,9.08317062 15.1516929,9.6614584 15.1767581,10.3847657 L15.1767581,10.3847657 L13.5869142,10.4545899 C13.5188804,10.0499675 13.3729657,9.75903327 13.1491701,9.58178717 C12.9253745,9.40454107 12.5896811,9.31591802 12.14209,9.31591802 C11.6801759,9.31591802 11.3185222,9.41080735 11.057129,9.600586 C10.8888347,9.7223308 10.8046876,9.88525398 10.8046876,10.0893556 C10.8046876,10.2755535 10.8834636,10.4348959 11.0410157,10.5673829 C11.2415365,10.7356772 11.7285157,10.9111329 12.5019533,11.0937501 C13.2753908,11.2763673 13.8474123,11.4652508 14.2180178,11.6604005 C14.5886233,11.8555503 14.8786623,12.1223146 15.088135,12.4606935 C15.2976077,12.7990725 15.402344,13.2171226 15.402344,13.714844 C15.402344,14.1660159 15.2770185,14.5885419 15.0263674,14.9824221 C14.7757164,15.3763024 14.4212242,15.669027 13.9628908,15.860596 C13.600973,16.0118664 13.1687253,16.1034122 12.666148,16.1352336 L12.6649147,17 L11.6649147,17 L11.6629307,16.1185765 C10.9484771,16.0432367 10.3795184,15.8229659 9.95605472,15.457764 C9.42252606,14.9976402 9.10384115,14.3271487 9,13.4462893 L9,13.4462893 L10.5468751,13.2958986 C10.639974,13.8151044 10.8288575,14.1964521 11.1135255,14.4399417 C11.3981935,14.6834313 11.7822267,14.805176 12.2656251,14.805176 C12.7776694,14.805176 13.163493,14.696859 13.4230959,14.4802249 C13.6826988,14.2635907 13.8125002,14.0102541 13.8125002,13.7202151 C13.8125002,13.5340171 13.7578941,13.3755699 13.6486818,13.2448733 C13.5394696,13.1141766 13.3487957,13.0004885 13.0766603,12.9038088 C12.8904624,12.8393557 12.466146,12.7247723 11.803711,12.5600588 C10.9514975,12.3487957 10.3535157,12.0891929 10.0097657,11.7812501 C9.52636721,11.3479819 9.28466798,10.8198243 9.28466798,10.1967774 C9.28466798,9.79573575 9.39835614,9.42065435 9.62573245,9.07153324 C9.85310876,8.72241214 10.1807455,8.45654299 10.6086426,8.27392579 C10.9150381,8.14316286 11.266873,8.05921629 11.6641473,8.02208608 L11.6649147,7 L12.6649147,7 Z" id="形状结合" fill="#FFFFFF" fill-rule="nonzero" mask="url(#mask-2)"></path>
                        <g id="编组-2" mask="url(#mask-2)" stroke="#FFFFFF" stroke-width="1.2">
                            <g transform="translate(12.000000, 12.000000) rotate(-45.000000) translate(-12.000000, -12.000000) translate(3.500000, 3.000000)">
                                <path d="M5.04369061,2.44393104 C2.67668982,3.68843721 1.0625,6.17133649 1.0625,9.03125 C1.0625,13.1388678 4.39238217,16.46875 8.5,16.46875 L8.5,16.46875 M12.4799342,15.3154098 C14.5581805,13.9964423 15.9375,11.6749248 15.9375,9.03125 C15.9375,4.92363217 12.6076178,1.59375 8.5,1.59375" id="形状" transform="translate(8.500000, 9.031250) rotate(-6.000000) translate(-8.500000, -9.031250) "></path>
                                <path d="M7.96875,3.07676653 L7.96875,1.11079545 C7.96875,0.790721338 8.22822134,0.53125 8.54829545,0.53125 L10.5227902,0.53125" id="路径" transform="translate(9.245770, 1.804008) scale(-1, 1) rotate(-225.000000) translate(-9.245770, -1.804008) "></path>
                                <path d="M6.90625,17.4205165 L6.90625,15.4545455 C6.90625,15.1344713 7.16572134,14.875 7.48579545,14.875 L9.46029022,14.875" id="路径" transform="translate(8.183270, 16.147758) rotate(-225.000000) translate(-8.183270, -16.147758) "></path>
                            </g>
                        </g>
                    </g>
                </g>
            </g>
        </g>
    </g>
</svg>