<?xml version="1.0" encoding="UTF-8"?>
<svg width="110px" height="50px" viewBox="0 0 110 50" version="1.1" xmlns="http://www.w3.org/2000/svg" xmlns:xlink="http://www.w3.org/1999/xlink">
    <!-- Generator: Sketch 63.1 (92452) - https://sketch.com -->
    <desc>Created with Sketch.</desc>
    <g id="第一版客户端" stroke="none" stroke-width="1" fill="none" fill-rule="evenodd">
        <g id="订单页备份" transform="translate(-660.000000, -276.000000)">
            <g id="编组-11备份" transform="translate(62.000000, 258.000000)">
                <g id="编组-6" transform="translate(598.000000, 18.000000)">
                    <rect id="矩形" fill="#FFFFFF" x="0" y="0" width="110" height="50" rx="4"></rect>
                    <g id="编组-12" transform="translate(16.000000, 13.000000)">
                        <text id="Alipay" font-family="Roboto-Bold, Roboto" font-size="18" font-weight="bold" fill="#383B47">
                            <tspan x="27" y="18">Alipay</tspan>
                        </text>
                        <g id="支付宝支付" fill-rule="nonzero">
                            <rect id="矩形" fill="#000000" opacity="0" x="0" y="0" width="24" height="24"></rect>
                            <path d="M23.9917557,16.4362001 L23.9917557,4.62881768 C23.9917557,2.08356755 21.9261757,0.017987625 19.3794266,0.017987625 L4.61907438,0.017987625 C2.07382425,0.017987625 0.00824432813,2.08356755 0.00824432813,4.62881768 L0.00824432813,19.3891699 C0.00824432813,21.9344201 2.07232528,24 4.61907438,24 L19.3794266,24 C21.6473674,24 23.53457,22.3601274 23.9198051,20.2031104 C22.6966461,19.6739741 17.3962901,17.3850478 14.6351883,16.0674536 C12.5336332,18.6127038 10.333146,20.1401536 7.01592656,20.1401536 C3.69870715,20.1401536 1.48472925,18.0970583 1.75004686,15.5967772 C1.92542627,13.9554056 3.05115234,11.2722503 7.9407907,11.732434 C10.5175192,11.973768 11.6972082,12.4549372 13.7987633,13.1489601 C14.3428893,12.1521454 14.7940791,11.0548998 15.1373431,9.88720254 L5.81824995,9.88720254 L5.81824995,8.96383737 L10.42908,8.96383737 L10.42908,7.30597713 L4.8049466,7.30597713 L4.8049466,6.28967585 L10.42908,6.28967585 L10.42908,3.8973206 C10.42908,3.8973206 10.480045,3.52257823 10.8937605,3.52257823 L13.1991756,3.52257823 L13.1991756,6.28967585 L19.1950534,6.28967585 L19.1950534,7.30597713 L13.1991756,7.30597713 L13.1991756,8.96383737 L18.0903129,8.96383737 C17.6406221,10.7940791 16.958591,12.4759228 16.1041784,13.9449129 C17.5252014,14.4590594 23.9917557,16.4362001 23.9917557,16.4362001 L23.9917557,16.4362001 L23.9917557,16.4362001 Z M6.64867903,18.5572419 C3.14408843,18.5572419 2.58946973,16.344763 2.77534195,15.4198988 C2.9597152,14.4995316 3.97451752,13.298857 5.9231778,13.298857 C8.16263817,13.298857 10.1682593,13.8714634 12.5756043,15.0436575 C10.8847667,17.2456436 8.80719506,18.5572419 6.64867903,18.5572419 L6.64867903,18.5572419 Z" id="形状" fill="#00ADEE"></path>
                        </g>
                    </g>
                </g>
            </g>
        </g>
    </g>
</svg>