<?xml version="1.0" encoding="UTF-8"?>
<svg width="16px" height="16px" viewBox="0 0 16 16" version="1.1" xmlns="http://www.w3.org/2000/svg" xmlns:xlink="http://www.w3.org/1999/xlink">
    <!-- Generator: Sketch 64 (93537) - https://sketch.com -->
    <desc>Created with Sketch.</desc>
    <g id="第一版客户端" stroke="none" stroke-width="1" fill="none" fill-rule="evenodd" opacity="0.800000012">
        <g id="游戏介绍-只有合玩" transform="translate(-984.000000, -108.000000)" fill="#FFFFFF" fill-rule="nonzero">
            <g id="疑问" transform="translate(984.000000, 108.000000)">
                <path d="M7.3,9.45 L7.3,9.3 C7.3,8.9 7.35,8.55 7.55,8.25 C7.7,7.95 8.15,7.5 8.85,6.9 L9.05,6.7 C9.25,6.45 9.35,6.2 9.35,5.9 C9.35,5.5 9.25,5.2 9,5 C8.75,4.8 8.45,4.65 8.05,4.65 C7.55,4.65 7.15,4.8 6.95,5.1 C6.75,5.35 6.65,5.75 6.65,6.2 L6.65,6.25 C6.65,6.55 6.4,6.85 6.05,6.85 C5.7,6.85 5.45,6.6 5.45,6.25 L5.45,6.2 C5.45,5.4 5.7,4.8 6.15,4.3 C6.65,3.85 7.3,3.6 8.15,3.6 C8.9,3.6 9.45,3.8 9.9,4.2 C10.35,4.6 10.6,5.1 10.6,5.75 C10.6,6.3 10.45,6.75 10.15,7.1 C10.05,7.2 9.75,7.5 9.2,7.95 C9,8.1 8.85,8.3 8.7,8.5 C8.6,8.7 8.5,8.95 8.5,9.2 L8.5,9.5 C8.5,9.8 8.2,10.05 7.9,10.05 C7.6,10.05 7.3,9.8 7.3,9.45 C7.3,9.5 7.3,9.45 7.3,9.45 L7.3,9.45 Z M8,16 C3.6,16 0,12.4 0,8 C0,3.6 3.6,0 8,0 C12.4,0 16,3.6 16,8 C16,12.4 12.4,16 8,16 Z M8,14.85 C11.8,14.85 14.85,11.8 14.85,8 C14.85,4.2 11.8,1.15 8,1.15 C4.2,1.15 1.15,4.2 1.15,8 C1.15,11.8 4.2,14.85 8,14.85 Z M7.9,10.7 C8.15,10.7 8.35,10.75 8.5,10.9 C8.65,11.05 8.75,11.25 8.75,11.45 C8.75,11.7 8.65,11.85 8.5,12 C8.35,12.15 8.15,12.2 7.9,12.2 C7.65,12.2 7.45,12.1 7.3,11.95 C7.15,11.8 7.05,11.6 7.05,11.4 C7.05,11.15 7.15,11 7.3,10.85 C7.5,10.8 7.7,10.7 7.9,10.7 L7.9,10.7 Z" id="形状"></path>
            </g>
        </g>
    </g>
</svg>