<?xml version="1.0" encoding="UTF-8"?>
<svg width="50px" height="306px" viewBox="0 0 50 306" version="1.1" xmlns="http://www.w3.org/2000/svg" xmlns:xlink="http://www.w3.org/1999/xlink">
    <!-- Generator: Sketch 59.1 (86144) - https://sketch.com -->
    <desc>Created with Sketch.</desc>
    <defs>
        <linearGradient x1="100%" y1="48.9527123%" x2="0%" y2="48.9527123%" id="linearGradient-1">
            <stop stop-color="#000000" stop-opacity="0" offset="0%"></stop>
            <stop stop-color="#000000" offset="100%"></stop>
        </linearGradient>
    </defs>
    <g id="第一版客户端" stroke="none" stroke-width="1" fill="none" fill-rule="evenodd">
        <g id="图标切图" transform="translate(-104.000000, -682.000000)">
            <g id="编组-37备份-3" transform="translate(129.000000, 835.000000) scale(-1, 1) translate(-129.000000, -835.000000) translate(104.000000, 682.000000)">
                <path d="M0,0 L46,0 C48.209139,-4.05812251e-16 50,1.790861 50,4 L50,302 C50,304.209139 48.209139,306 46,306 L0,306 L0,306 L0,0 Z" id="矩形复制-18" fill="url(#linearGradient-1)" transform="translate(25.000000, 153.000000) scale(-1, 1) translate(-25.000000, -153.000000) "></path>
                <g id="编组-36" opacity="0.400000006" transform="translate(9.000000, 138.000000)" fill-rule="nonzero">
                    <rect id="矩形" fill="#000000" opacity="0" x="0" y="0" width="30" height="30"></rect>
                    <polygon id="路径" fill="#FFFFFF" points="8.70967742 5.61290876 11.4559738 2.90322581 23.2258065 14.5161139 11.4559738 26.1290323 8.70967742 23.4193493 17.7332138 14.5161139"></polygon>
                </g>
            </g>
        </g>
    </g>
</svg>