<?xml version="1.0" encoding="UTF-8"?>
<svg width="18px" height="18px" viewBox="0 0 18 18" version="1.1" xmlns="http://www.w3.org/2000/svg" xmlns:xlink="http://www.w3.org/1999/xlink">
    <defs>
        <filter id="filter-1">
            <feColorMatrix in="SourceGraphic" type="matrix" values="0 0 0 0 0.854902 0 0 0 0 0.847059 0 0 0 0 0.764706 0 0 0 1.000000 0"></feColorMatrix>
        </filter>
    </defs>
    <g id="试玩vip需求" stroke="none" stroke-width="1" fill="none" fill-rule="evenodd">
        <g id="画板" transform="translate(-642.000000, -233.000000)">
            <g filter="url(#filter-1)" id="标签">
                <g transform="translate(642.000000, 233.000000)">
                    <path d="M9.25520241,17.9459872 C8.6620206,17.9459872 8.04838423,17.7209872 7.59838423,17.2505327 L1.15520241,10.8073509 C0.193838778,9.84598722 -0.194797585,8.49598722 0.112020597,7.16644176 L0.909747869,2.21644176 C1.0120206,1.54144176 1.54383878,1.00962358 2.21883878,0.907350852 L7.16883878,0.10962358 C8.49838423,-0.197194602 9.84838423,0.191441761 10.8097479,1.1528054 L17.2529297,7.59598722 C18.1733842,8.51644176 18.1733842,10.0096236 17.2529297,10.9096236 L10.9120206,17.2505327 C10.4620206,17.7209872 9.86883878,17.9459872 9.25520241,17.9459872 Z M2.52565696,2.52325994 L1.70747514,7.51416903 C1.52338423,8.29144176 1.74838423,9.08916903 2.32111151,9.64144176 L8.76429332,16.1050781 C9.05065696,16.3914418 9.50065696,16.3914418 9.76656605,16.1050781 L16.0870206,9.78462358 C16.3733842,9.49825994 16.3733842,9.04825994 16.0870206,8.78235085 L9.64383878,2.31871449 C9.07111151,1.74598722 8.27338423,1.52098722 7.51656605,1.70507812 L7.45520241,1.72553267 L2.52565696,2.52325994 Z" id="形状" fill="#FFFFFF" fill-rule="nonzero"></path>
                    <path d="M5.92111151,8.37325994 C5.2870206,8.37325994 4.67338423,8.1278054 4.18247514,7.65735085 C3.22111151,6.69598722 3.22111151,5.14144176 4.18247514,4.18007813 C5.14383878,3.21871449 6.69838423,3.21871449 7.65974787,4.18007813 C8.62111151,5.14144176 8.62111151,6.69598722 7.65974787,7.65735085 C7.16883878,8.14825994 6.55520241,8.37325994 5.92111151,8.37325994 L5.92111151,8.37325994 Z M5.92111151,5.12098722 C5.71656605,5.12098722 5.5120206,5.2028054 5.34838423,5.36644176 C5.02111151,5.69371449 5.02111151,6.20507813 5.34838423,6.53235085 C5.67565696,6.85962358 6.1870206,6.85962358 6.51429332,6.53235085 C6.84156605,6.20507813 6.84156605,5.69371449 6.51429332,5.36644176 C6.33020241,5.18235085 6.12565696,5.12098722 5.92111151,5.12098722 L5.92111151,5.12098722 Z M12.1392933,7.59598722 L7.51656605,12.239169 C7.18929332,12.5664418 6.67792969,12.5664418 6.35065696,12.239169 C6.02338423,11.9118963 6.02338423,11.4005327 6.35065696,11.0732599 L10.9733842,6.45053267 C11.300657,6.12325994 11.8120206,6.12325994 12.1392933,6.45053267 C12.4665661,6.75735085 12.4665661,7.28916903 12.1392933,7.59598722 Z M12.2620206,11.6050781 L9.66429332,14.2232599 C9.3370206,14.5505327 8.82565696,14.5505327 8.49838423,14.2232599 C8.17111151,13.8959872 8.17111151,13.3846236 8.49838423,13.0573509 L11.0961115,10.4596236 C11.4233842,10.1323509 11.9347479,10.1323509 12.2620206,10.4596236 C12.5892933,10.7868963 12.5892933,11.2982599 12.2620206,11.6050781 L12.2620206,11.6050781 Z" id="形状" fill="#FFFFFF" fill-rule="nonzero"></path>
                </g>
            </g>
        </g>
    </g>
</svg>