<svg width="24" height="24" viewBox="0 0 24 24" fill="none" xmlns="http://www.w3.org/2000/svg">
<path d="M18.1344 18.9995H4.86581C4.38345 19.0089 3.91697 18.822 3.56792 18.4793C3.21886 18.1366 3.01548 17.6659 3.00204 17.1697V16.7122C2.98369 16.3264 3.08928 15.945 3.30251 15.6271C3.51574 15.3091 3.82476 15.0722 4.18186 14.9529C4.59307 14.7956 4.94936 14.5158 5.20521 14.1491C5.46105 13.7824 5.60483 13.3456 5.61815 12.8944C5.60483 12.4432 5.46105 12.0063 5.20521 11.6397C4.94936 11.273 4.59307 10.9931 4.18186 10.8359C3.82476 10.7166 3.51574 10.4797 3.30251 10.1617C3.08928 9.84371 2.98369 9.46235 3.00204 9.07649V8.7598C3.03277 8.27602 3.24369 7.82309 3.59087 7.49535C3.93806 7.1676 4.39475 6.99031 4.86581 7.00041H18.1344C18.6055 6.99031 19.0622 7.1676 19.4094 7.49535C19.7566 7.82309 19.9675 8.27602 19.9982 8.7598V9.21724C20.0155 9.60533 19.9074 9.98838 19.6909 10.3066C19.4744 10.6249 19.1616 10.8605 18.8013 10.9766C18.3901 11.1339 18.0338 11.4137 17.7779 11.7804C17.5221 12.1471 17.3783 12.5839 17.365 13.0351C17.3783 13.4863 17.5221 13.9232 17.7779 14.2898C18.0338 14.6565 18.3901 14.9364 18.8013 15.0936C19.1616 15.2098 19.4744 15.4453 19.6909 15.7636C19.9074 16.0819 20.0155 16.4649 19.9982 16.853V17.3104C19.951 17.7816 19.733 18.2171 19.3875 18.5302C19.0421 18.8432 18.5946 19.0108 18.1344 18.9995ZM4.86581 8.23198C4.79165 8.22473 4.71683 8.23265 4.64567 8.2553C4.5745 8.27795 4.5084 8.31488 4.45117 8.36395C4.39395 8.41302 4.34673 8.47326 4.31224 8.5412C4.27776 8.60914 4.25669 8.68344 4.25025 8.7598V9.21724C4.27122 9.33713 4.32628 9.44793 4.40845 9.53562C4.49063 9.62331 4.59624 9.68395 4.71192 9.70987C5.33914 9.97498 5.87561 10.426 6.25315 11.0055C6.6307 11.5851 6.83228 12.267 6.83228 12.9647C6.83228 13.6625 6.6307 14.3444 6.25315 14.924C5.87561 15.5035 5.33914 15.9545 4.71192 16.2196C4.60363 16.2504 4.50673 16.3137 4.43362 16.4014C4.36051 16.4892 4.31452 16.5974 4.30155 16.7122V17.1697C4.30799 17.2461 4.32906 17.3203 4.36354 17.3883C4.39802 17.4562 4.44524 17.5165 4.50247 17.5655C4.55969 17.6146 4.6258 17.6515 4.69696 17.6742C4.76813 17.6968 4.84295 17.7048 4.91711 17.6975H18.1857C18.3327 17.7073 18.4776 17.6576 18.5894 17.5589C18.7012 17.4603 18.7711 17.3206 18.7842 17.1697V16.7122C18.7747 16.5989 18.7321 16.4911 18.6619 16.4031C18.5917 16.3152 18.4972 16.2512 18.3909 16.2196C17.7637 15.9545 17.2272 15.5035 16.8497 14.924C16.4721 14.3444 16.2706 13.6625 16.2706 12.9647C16.2706 12.267 16.4721 11.5851 16.8497 11.0055C17.2272 10.426 17.7637 9.97498 18.3909 9.70987C18.495 9.67427 18.5871 9.60912 18.6567 9.52196C18.7262 9.43479 18.7705 9.32916 18.7842 9.21724V8.7598C18.7711 8.60886 18.7012 8.46917 18.5894 8.37055C18.4776 8.27193 18.3327 8.2222 18.1857 8.23198H4.86581Z" fill="white"/>
<path d="M9 10.5C9 10.2239 9.22386 10 9.5 10C9.77614 10 10 10.2239 10 10.5V15.5C10 15.7761 9.77614 16 9.5 16C9.22386 16 9 15.7761 9 15.5V10.5Z" fill="white"/>
</svg>
