<svg width="28" height="28" viewBox="0 0 28 28" fill="none" xmlns="http://www.w3.org/2000/svg">
<path d="M22.9679 13.4473C23.4135 13.4473 23.8408 13.6243 24.1558 13.9393C24.4709 14.2544 24.6479 14.6817 24.6479 15.1273C24.6479 15.5728 24.4709 16.0001 24.1558 16.3152C23.8408 16.6303 23.4135 16.8073 22.9679 16.8073H21.3398V13.4473H22.9679ZM22.9679 11.916H19.8086V18.3385H22.9679C23.3897 18.3387 23.8074 18.2557 24.1971 18.0944C24.5869 17.9331 24.941 17.6966 25.2393 17.3983C25.5376 17.1001 25.7742 16.7461 25.9357 16.3564C26.0971 15.9667 26.1802 15.5491 26.1802 15.1273C26.1802 14.7055 26.0971 14.2878 25.9357 13.8981C25.7742 13.5084 25.5376 13.1544 25.2393 12.8562C24.941 12.558 24.5869 12.3215 24.1971 12.1601C23.8074 11.9988 23.3897 11.9159 22.9679 11.916Z" fill="#E3F7FF"/>
<path d="M6.68715 13.4473V16.8073H5.00715C4.56158 16.8073 4.13427 16.6303 3.81921 16.3152C3.50415 16.0001 3.32715 15.5728 3.32715 15.1273C3.32715 14.6817 3.50415 14.2544 3.81921 13.9393C4.13427 13.6243 4.56158 13.4473 5.00715 13.4473H6.68715V13.4473ZM8.2184 11.916H5.00715C4.15547 11.916 3.33868 12.2543 2.73645 12.8566C2.13423 13.4588 1.7959 14.2756 1.7959 15.1273V15.1273C1.7959 15.9789 2.13423 16.7957 2.73645 17.398C3.33868 18.0002 4.15547 18.3385 5.00715 18.3385H8.2184V11.916V11.916Z" fill="#E3F7FF"/>
<path d="M15.7982 22.5258V23.8399H12.2071V22.5258H15.7982ZM16.5291 20.9945H11.4765C10.9384 20.9945 10.502 21.3863 10.502 21.8695V24.4962C10.502 24.9796 10.9395 25.3712 11.4765 25.3712H16.5291C17.0672 25.3712 17.5033 24.9796 17.5033 24.4962V21.8695C17.5033 21.3863 17.0658 20.9945 16.5291 20.9945Z" fill="#E3F7FF"/>
<path d="M23.1943 18.1602C23.1539 18.2659 23.1115 18.3712 23.0672 18.476C22.4984 19.8214 21.6415 21.0257 20.5568 22.0039C19.472 22.9822 18.1859 23.7106 16.7891 24.1378V22.5245C18.818 21.7725 20.4841 20.2757 21.4484 18.3387H22.1364C22.4966 18.3391 22.8542 18.2787 23.1943 18.1602Z" fill="#E3F7FF"/>
<path d="M14.1689 4.26568C13.0983 4.26554 12.0381 4.47628 11.049 4.88587C10.0598 5.29547 9.16102 5.89589 8.40392 6.65286C7.64683 7.40983 7.04625 8.30851 6.63649 9.2976C6.22673 10.2867 6.01581 11.3468 6.01578 12.4174H4.48452C4.47743 11.1415 4.72257 9.87672 5.20586 8.69584C5.68914 7.51497 6.40105 6.44124 7.30065 5.53639C8.20025 4.63154 9.26982 3.91341 10.4479 3.42326C11.6259 2.93311 12.8892 2.68062 14.1652 2.6803C15.4411 2.67997 16.7045 2.93182 17.8828 3.42137C19.0611 3.91092 20.1311 4.62851 21.0311 5.5329C21.9312 6.4373 22.6436 7.51066 23.1275 8.69129C23.6114 9.87192 23.8572 11.1365 23.8507 12.4125C23.3864 12.118 22.8539 11.9485 22.3047 11.9203C22.1779 9.84845 21.2656 7.903 19.7538 6.48064C18.242 5.05828 16.2446 4.26612 14.1689 4.26568Z" fill="#E3F7FF"/>
</svg>
