<?xml version="1.0" encoding="UTF-8"?>
<svg width="21px" height="27px" viewBox="0 0 21 27" version="1.1" xmlns="http://www.w3.org/2000/svg" xmlns:xlink="http://www.w3.org/1999/xlink">
    <defs>
        <linearGradient x1="19.7530864%" y1="28.4681466%" x2="74.509498%" y2="38.3550231%" id="linearGradient-1">
            <stop stop-color="#71E5FF" offset="0%"></stop>
            <stop stop-color="#29C4FF" offset="75.4933578%"></stop>
            <stop stop-color="#12BAFF" offset="100%"></stop>
        </linearGradient>
        <filter x="0.0%" y="0.0%" width="100.0%" height="100.0%" filterUnits="objectBoundingBox" id="filter-2">
            <feGaussianBlur stdDeviation="0 0" in="SourceGraphic"></feGaussianBlur>
        </filter>
    </defs>
    <g id="页面-1" stroke="none" stroke-width="1" fill="none" fill-rule="evenodd">
        <g id="游戏介绍-详情页+评论备份-8" transform="translate(-1051.000000, -242.000000)" fill="url(#linearGradient-1)" fill-rule="nonzero">
            <path d="M1061.54047,269 C1061.1911,269 1060.80149,268.85374 1060.24045,268.509051 C1050.87677,262.772002 1050.90766,259.629123 1051.0227,247.93641 C1051.03431,246.773784 1051.0465,245.533215 1051.05018,244.204145 C1052.57685,243.705201 1054.11744,243.258955 1055.66968,242.866069 C1057.43667,242.4158 1059.40201,242.124833 1061.51015,242 C1065.52073,242.493433 1068.59709,243.144305 1071.92932,244.210045 C1071.93527,245.712081 1071.95312,247.099531 1071.96843,248.384816 C1072.11322,260.137461 1072.14864,262.930372 1062.8405,268.52023 C1062.28852,268.852187 1061.8873,269 1061.54047,269 Z" id="形状备份-7" filter="url(#filter-2)"></path>
        </g>
    </g>
</svg>