<?xml version="1.0" encoding="UTF-8"?>
<svg width="18px" height="16px" viewBox="0 0 18 16" version="1.1" xmlns="http://www.w3.org/2000/svg" xmlns:xlink="http://www.w3.org/1999/xlink">
    <defs>
        <filter id="filter-1">
            <feColorMatrix in="SourceGraphic" type="matrix" values="0 0 0 0 0.854902 0 0 0 0 0.847059 0 0 0 0 0.764706 0 0 0 1.000000 0"></feColorMatrix>
        </filter>
    </defs>
    <g id="试玩vip需求" stroke="none" stroke-width="1" fill="none" fill-rule="evenodd">
        <g id="画板" transform="translate(-675.000000, -233.000000)">
            <g filter="url(#filter-1)" id="钻石">
                <g transform="translate(675.000000, 233.000000)">
                    <path d="M8.9573637,15.7051197 C8.57438497,15.7051197 8.21055519,15.5327793 7.96161902,15.2455452 L0.378640293,7.22214096 C-0.023487367,6.76256649 -0.100083112,6.07320479 0.187150931,5.51788564 L2.75310838,0.749800532 C3.00204455,0.290226064 3.46161902,0.00299202128 3.95949136,0.00299202128 L13.974385,0.00299202128 C14.4722573,0.00299202128 14.9318318,0.290226064 15.180768,0.749800532 L17.7467254,5.51788564 C18.0339594,6.07320479 17.9765126,6.76256649 17.555236,7.22214096 L17.5360871,7.24128989 L9.95310838,15.2455452 C9.70417221,15.5327793 9.34034242,15.7051197 8.9573637,15.7051197 Z M1.5467254,6.22639628 L8.9573637,14.0774601 L16.368002,6.22639628 L13.8594914,1.53490691 L4.05523604,1.53490691 L1.5467254,6.22639628 Z" id="形状" fill="#FFFFFF" fill-rule="nonzero"></path>
                    <polygon id="路径" fill="#FFFFFF" fill-rule="nonzero" points="0.49353391 5.55618351 17.3828956 5.55618351 17.3828956 7.0880984 0.49353391 7.0880984"></polygon>
                    <path d="M13.0169382,7.06894947 L4.84034242,7.06894947 L7.77012965,1.05618351 L7.82757646,0.979587766 C8.11481051,0.615757979 8.5360871,0.424268617 8.99566157,0.443417553 C9.45523604,0.462566489 9.87651263,0.673204787 10.1445977,1.03703457 L10.1828956,1.09448138 L13.0169382,7.06894947 L13.0169382,7.06894947 Z M7.29140625,5.53703457 L10.6041722,5.53703457 L8.9573637,2.109375 L7.29140625,5.53703457 L7.29140625,5.53703457 Z" id="形状" fill="#FFFFFF" fill-rule="nonzero"></path>
                    <path d="M8.93821476,14.6519282 C8.91906582,14.6519282 8.91906582,14.6519282 8.93821476,14.6519282 C8.5360871,14.6519282 8.19140625,14.402992 8.0573637,14.0391622 L5.3573637,6.57107713 L6.79353391,6.05405585 L8.93821476,11.9902261 L11.1020445,6.05405585 L12.5382148,6.57107713 L9.81906582,14.0391622 C9.68502327,14.402992 9.32119348,14.6519282 8.93821476,14.6519282 Z" id="路径" fill="#FFFFFF" fill-rule="nonzero"></path>
                </g>
            </g>
        </g>
    </g>
</svg>