<?xml version="1.0" encoding="UTF-8"?>
<svg width="69px" height="60px" viewBox="0 0 69 60" version="1.1" xmlns="http://www.w3.org/2000/svg" xmlns:xlink="http://www.w3.org/1999/xlink">
    <defs>
        <path d="M22.6644244,7.61222688 C22.6644244,1.80309957 19.3310911,-0.426170261 12.6644244,0.924417384 C2.66442441,2.95029885 2.58596024,4.42603147 1.12519233,5.58634541 C-0.335575587,6.74665935 -0.414039756,14.2907581 1.12519233,16.6313626 C2.15134705,18.1917656 3.42080893,20.4953984 4.93357797,23.542261 L20.1555496,23.2633504 C20.4947995,21.1932996 21.3310911,19.4854301 22.6644244,18.1397419 C23.9977577,16.7940538 23.9977577,13.2848821 22.6644244,7.61222688 Z" id="path-1"></path>
    </defs>
    <g id="页面" stroke="none" stroke-width="1" fill="none" fill-rule="evenodd">
        <g id="秒杀支付-9/5" transform="translate(-455.000000, -761.000000)">
            <g id="编组-6" transform="translate(455.000000, 761.000000)">
                <path d="M34,45.5 C34.4142136,45.5 34.7892136,45.6678932 35.0606602,45.9393398 C35.3321068,46.2107864 35.5,46.5857864 35.5,47 L35.5,47 L35.5,56.0829952 C35.5,56.4316613 35.3798602,56.7573349 35.1748265,57.0156166 C34.9697928,57.2738983 34.6798652,57.464788 34.3402897,57.5438863 L34.3402897,57.5438863 L26,59.4866147 L17.6597103,57.5438863 C17.3201348,57.464788 17.0302072,57.2738983 16.8251735,57.0156166 C16.6201398,56.7573349 16.5,56.4316613 16.5,56.0829952 L16.5,56.0829952 L16.5,47 C16.5,46.5857864 16.6678932,46.2107864 16.9393398,45.9393398 C17.2107864,45.6678932 17.5857864,45.5 18,45.5 L18,45.5 Z" id="矩形" stroke="#35A6DB"></path>
                <polygon id="矩形" fill="#3599D6" transform="translate(50.500000, 8.000000) rotate(-207.000000) translate(-50.500000, -8.000000) " points="55 2 55 14 46 14"></polygon>
                <polygon id="矩形备份-4" fill="#3599D6" transform="translate(61.500000, 17.000000) rotate(-127.000000) translate(-61.500000, -17.000000) " points="66 11 66 23 57 23"></polygon>
                <circle id="椭圆形" stroke="#35A6DB" stroke-width="2" cx="26" cy="34" r="25"></circle>
                <g id="路径-15-+-路径-15备份-+-路径-15备份-2-+-路径-15备份-3-蒙版" transform="translate(14.000000, 22.000000)">
                    <mask id="mask-2" fill="white">
                        <use xlink:href="#path-1"></use>
                    </mask>
                    <use id="蒙版" fill="#3599D6" xlink:href="#path-1"></use>
                    <path d="M3.75421965,3 C3.07630059,4.70137206 3.07630059,7.03470539 3.75421965,10" id="路径-15" stroke-opacity="0.800917832" stroke="#FFFFFF" opacity="0.54" stroke-linecap="round" mask="url(#mask-2)"></path>
                    <path d="M6.75421965,2 C6.07630059,3.4583189 6.07630059,5.4583189 6.75421965,8" id="路径-15备份" stroke-opacity="0.800917832" stroke="#FFFFFF" opacity="0.54" stroke-linecap="round" mask="url(#mask-2)"></path>
                    <path d="M10.7542196,1 C10.0763006,2.21526575 10.0763006,3.88193242 10.7542196,6" id="路径-15备份-2" stroke-opacity="0.800917832" stroke="#FFFFFF" opacity="0.54" stroke-linecap="round" mask="url(#mask-2)"></path>
                    <path d="M14.7542196,0 C14.0763006,0.972212603 14.0763006,2.30554594 14.7542196,4" id="路径-15备份-3" stroke-opacity="0.800917832" stroke="#FFFFFF" opacity="0.54" stroke-linecap="round" mask="url(#mask-2)"></path>
                </g>
                <path d="M33.4911252,45 C33.1381047,45 32.8514941,44.7069186 32.8514941,44.345928 C32.8514941,42.469492 34.0538607,41.0719939 35.1164173,39.8424815 C35.3016656,39.6280317 35.486914,39.4135818 35.6616765,39.199132 C36.3851937,38.3198877 36.7207378,37.279806 36.7207378,35.9180495 L36.7207378,34.8279295 C36.7207378,33.4375798 35.612743,32.3045698 34.2530901,32.3045698 L23.5331528,32.3045698 C23.4038285,32.3045698 23.2954757,32.4082206 23.2884852,32.5404646 C23.2325611,33.6305846 23.368876,35.1496043 24.3335655,36.1932601 C25.0885398,37.0081695 26.2664397,37.4191984 27.8358078,37.4191984 L29.7616915,37.4191984 C30.1147119,37.4191984 30.4013226,37.7122798 30.4013226,38.0732704 C30.4013226,38.4342609 30.1147119,38.7273424 29.7616915,38.7273424 L27.8358078,38.7273424 C25.9029335,38.7273424 24.4139562,38.1769211 23.4073237,37.0939495 C22.1280616,35.7143222 21.9428132,33.8200153 22.0127183,32.4725555 C22.0546613,31.6469237 22.7257496,31 23.5331528,31 L34.2565853,31 C36.3222791,31 38,32.7191728 38,34.8315037 L38,35.9216237 C38,37.6086291 37.5665888,38.916773 36.640347,40.0426347 C36.458594,40.2642328 36.2663551,40.485831 36.0741163,40.7074292 C35.0744742,41.8690324 34.1307563,42.9627266 34.1307563,44.345928 C34.1307563,44.7104927 33.8441456,45 33.4911252,45 L33.4911252,45 Z" id="路径" fill-opacity="0.75" fill="#FFFFFF" fill-rule="nonzero" opacity="0.543643043"></path>
                <line x1="17" y1="51" x2="36" y2="51" id="路径-13" stroke="#26BDE9"></line>
            </g>
        </g>
    </g>
</svg>