<svg width="28" height="28" viewBox="0 0 28 28" fill="none" xmlns="http://www.w3.org/2000/svg">
<path d="M3.27344 6.77528V22.0905H24.7109V6.77528H3.27344ZM2.17969 5.24403H25.8047C25.9027 5.24327 25.9984 5.27361 26.0781 5.33071C26.1283 5.36615 26.1693 5.41299 26.1978 5.46737C26.2263 5.52175 26.2415 5.58212 26.2422 5.64353V23.2223C26.2422 23.4429 26.0464 23.6218 25.8047 23.6218H2.17969C1.93797 23.6218 1.74219 23.4429 1.74219 23.2223V5.64353C1.74329 5.5745 1.76261 5.507 1.79819 5.44784C1.83377 5.38868 1.88435 5.33998 1.9448 5.30665C2.01616 5.26531 2.09723 5.2437 2.17969 5.24403Z" fill="#E3F7FF"/>
<path d="M5.46355 6.77527L14.0221 15.3339L22.5807 6.77527H5.46355ZM2.18832 5.24402H25.8125C25.9118 5.24371 26.0082 5.27717 26.0859 5.3389C26.0681 5.42023 26.0272 5.49468 25.9681 5.55328L14.3314 17.1897C14.2908 17.2303 14.2425 17.2626 14.1895 17.2845C14.1364 17.3065 14.0795 17.3179 14.022 17.3179C13.9646 17.3179 13.9077 17.3065 13.8546 17.2845C13.8015 17.2626 13.7532 17.2303 13.7126 17.1897L2.07621 5.55328C2.01069 5.48809 1.96768 5.4037 1.95344 5.31238C2.0236 5.26764 2.10511 5.24392 2.18832 5.24402Z" fill="#E3F7FF"/>
</svg>
