<?xml version="1.0" encoding="UTF-8"?>
<svg width="20px" height="20px" viewBox="0 0 20 20" version="1.1" xmlns="http://www.w3.org/2000/svg" xmlns:xlink="http://www.w3.org/1999/xlink">
    <g id="试玩vip需求" stroke="none" stroke-width="1" fill="none" fill-rule="evenodd">
        <g id="游戏介绍-详情页+评论" transform="translate(-751.000000, -1009.000000)">
            <g id="编组" transform="translate(751.000000, 1009.000000)">
                <g id="编组-38">
                    <g id="编组-37" transform="translate(2.000000, 2.000000)">
                        <path d="M13.0879835,16 C13.0672269,16 13.0464703,15.9990661 13.0260447,15.9971793 L1.30739543,15.9949875 C0.957804139,15.9949875 0.629280988,15.8615568 0.382479736,15.6193576 C0.135366938,15.3774823 -0.000310477058,15.0556172 5.33506229e-07,14.7135688 L0.00479107052,7.61077156 C0.00543362801,6.9687376 0.496777448,6.42312213 1.14743705,6.34155046 C3.00525174,6.10827069 4.48121085,5.70311862 4.99905539,5.28405361 C5.81670259,4.6232658 6.53344848,3.32280731 6.53344848,2.50108694 C6.53344848,1.09858761 7.65535733,0 9.08725244,0 C10.2439569,0 11.2397488,0.746723973 11.5472038,1.82937842 C11.564032,1.86665315 11.5769747,1.90549478 11.5858352,1.94531314 C11.706208,2.48061778 11.7671733,3.01889561 11.7671733,3.54529979 C11.7671733,4.07702139 11.7093819,4.60327309 11.5947726,5.11780366 L14.3810079,5.11999542 C14.4381567,5.11999542 14.4921123,5.12374999 14.5451137,5.13108766 C15.3959598,5.17827725 16.1657071,5.6232813 16.6101246,6.32748506 C16.8917214,6.75951005 17.0261332,7.27028601 16.9957966,7.80044478 C17.0006837,7.92866341 16.9858294,8.05687189 16.9517326,8.18076324 L15.5453646,14.2607507 C15.5041824,14.4123063 15.4492727,14.5352737 15.3774229,14.6446522 C15.163509,15.0427715 14.8515951,15.3752714 14.4723097,15.6077698 C14.0604681,15.8637486 13.5806124,16 13.0879835,16 Z M9.08727191,1.2800465 C8.37691266,1.2800465 7.84117385,1.80504035 7.84117383,2.50114412 C7.84117383,3.84410374 6.81952373,5.47254519 5.83202666,6.2709757 C4.89721946,7.02722908 2.85870925,7.4172294 1.31378207,7.61128614 L1.30770697,14.7146933 L13.0879835,14.71719 C13.1049042,14.71719 13.1215134,14.7178189 13.1381031,14.7190577 C13.3641124,14.7106368 13.5837929,14.6436732 13.7747238,14.525001 C13.966927,14.4071985 14.1230495,14.23687 14.2296754,14.0303106 C14.2442712,14.0018812 14.2610247,13.9745632 14.279795,13.9485865 L15.6829697,7.8726586 C15.6800879,7.8403158 15.686163,7.78407328 15.6884022,7.75155895 C15.7085163,7.4825058 15.6440267,7.22530723 15.5025857,7.00780815 C15.2746329,6.64687251 14.8832168,6.42546637 14.450599,6.40797039 C14.4200689,6.40679773 14.3896624,6.40350499 14.3596087,6.39811699 L10.7317958,6.39718311 C10.5202383,6.39691853 10.321861,6.2965698 10.1992698,6.12780596 C10.0768877,5.95888258 10.0454868,5.7424707 10.1149776,5.54687454 C10.343573,4.90375424 10.4594674,4.23031136 10.4594674,3.54531886 C10.4594674,3.14140562 10.4154034,2.72750555 10.3288915,2.313129 C10.3176721,2.28513242 10.3085992,2.25635657 10.3017483,2.22704038 C10.1699067,1.66957035 9.67057961,1.2800465 9.08727191,1.2800465 L9.08727191,1.2800465 Z" id="形状" fill="#FFFFFF" fill-rule="nonzero"></path>
                        <path d="M2,13 L2,8 L3.35999999,8 C3.7134723,8 4,8.27981581 4,8.62499767 L4,12.3750023 C4,12.7201842 3.7134723,13 3.35999999,13 L2,13 Z" id="路径" fill="#569FCB"></path>
                    </g>
                    <rect id="矩形" x="0" y="0" width="20" height="20"></rect>
                </g>
            </g>
        </g>
    </g>
</svg>