<?xml version="1.0" encoding="UTF-8"?>
<svg width="36px" height="36px" viewBox="0 0 36 36" version="1.1" xmlns="http://www.w3.org/2000/svg" xmlns:xlink="http://www.w3.org/1999/xlink">
    <!-- Generator: Sketch 59.1 (86144) - https://sketch.com -->
    <desc>Created with Sketch.</desc>
    <g id="第一版客户端" stroke="none" stroke-width="1" fill="none" fill-rule="evenodd">
        <g id="图标切图" transform="translate(-331.000000, -575.000000)">
            <g id="编组-13" transform="translate(331.000000, 575.000000)">
                <circle id="椭圆形" fill="#FF0036" cx="18" cy="18" r="18"></circle>
                <g id="编组-2" transform="translate(6.000000, 6.000000)" fill="#FFFFFF">
                    <g id="推荐-(1)" transform="translate(6.289926, 0.000000)" fill-rule="nonzero">
                        <path d="M7.52701447,0 C6.11969385,0 5.17729165,1.1984556 5.17729165,2.65637066 C5.17729165,2.74285714 5.16472629,2.81698842 5.17729165,2.89111969 C5.10189948,5.5969112 2.92809174,7.78378378 0.33962704,8.08030888 L0.319650227,18.1570185 C0.316809437,19.5899707 1.47614381,20.7539109 2.90909602,20.7567517 C2.91081058,20.7567551 2.91252515,20.7567568 2.91423972,20.7567568 L13.1437316,20.7567568 L13.1437316,20.7567568 C13.6212153,20.7567568 13.885088,20.6332046 14.3123103,20.3490347 C14.7269673,20.0772201 15.028536,19.7065637 15.2421471,19.2988417 C15.2924086,19.2123552 17.2400398,10.6131274 17.2903012,10.1065637 C17.3279973,9.56293436 17.2149091,8.99459459 16.9133404,8.5003861 C16.4358566,7.70965251 15.7447616,7.4007722 14.9028823,7.36370656 C14.8651862,7.35135135 9.83904119,7.33899614 9.83904119,7.33899614 C10.1657406,6.36293436 10.2662635,5.2015444 10.2662635,4.1019305 C10.2662635,3.41003861 10.1908713,2.71814672 10.040087,2.03861004 L10.0275216,2.03861004 C9.75108365,0.864864865 8.74585464,0 7.52701447,0 Z" id="形状"></path>
                    </g>
                    <rect id="矩形" x="0" y="7.54791155" width="5.03194103" height="13.2088452" rx="2.51597052"></rect>
                </g>
            </g>
        </g>
    </g>
</svg>