<?xml version="1.0" encoding="UTF-8"?>
<svg width="18px" height="18px" viewBox="0 0 18 18" version="1.1" xmlns="http://www.w3.org/2000/svg" xmlns:xlink="http://www.w3.org/1999/xlink">
    <defs>
        <filter id="filter-1">
            <feColorMatrix in="SourceGraphic" type="matrix" values="0 0 0 0 0.854902 0 0 0 0 0.847059 0 0 0 0 0.764706 0 0 0 1.000000 0"></feColorMatrix>
        </filter>
    </defs>
    <g id="试玩vip需求" stroke="none" stroke-width="1" fill="none" fill-rule="evenodd">
        <g id="画板" transform="translate(-605.000000, -233.000000)">
            <g filter="url(#filter-1)" id="精灵球">
                <g transform="translate(605.000000, 233.000000)">
                    <path d="M17.156408,10.0319712 L12.8485428,10.0319712 C12.9496664,9.69570742 12.9901159,9.33966346 12.9901159,8.98361951 C12.9901159,6.82757555 11.1901159,5.06713599 8.98562149,5.06713599 C7.81258778,5.06713599 6.76090239,5.56164148 6.01258778,6.35285027 L1.9069698,6.35285027 C2.99910463,3.50449863 5.79011587,1.58581731 8.98562149,1.58581731 C12.1811271,1.58581731 14.9721383,3.50449863 16.0642732,6.35285027 L14.6889923,6.35285027 C14.2440485,6.35285027 13.8800035,6.70889423 13.8800035,7.14405907 C13.8800035,7.5792239 14.2440485,7.93526786 14.6889923,7.93526786 L17.156408,7.93526786 C17.3991046,7.93526786 17.6418013,7.81658654 17.7833743,7.63856456 C17.9451721,7.44076236 17.9856215,7.20339973 17.9451721,6.96603709 C16.9743855,2.87153159 13.2934867,0.00329804772 8.98562149,0.00329804772 C4.67775632,-0.0163804945 0.996857444,2.85175137 0.026070927,6.94625687 C-0.0346032303,7.18361951 0.026070927,7.42098214 0.18786868,7.61878434 C0.349666433,7.81658654 0.572138343,7.91548764 0.814834972,7.91548764 L5.12270014,7.91548764 C5.02157654,8.25175137 4.98112711,8.60779533 4.98112711,8.96383929 C4.98112711,11.1198832 6.78112711,12.8803228 8.98562149,12.8803228 C10.1586552,12.8803228 11.2103406,12.3858173 11.9586552,11.5946085 L16.0844979,11.5946085 C14.9923631,14.4429602 12.2013518,16.3616415 9.00584621,16.3616415 C5.81034059,16.3616415 3.01932935,14.4429602 1.92719452,11.5946085 L3.3833743,11.5946085 C3.82831812,11.5946085 4.19236306,11.2385646 4.19236306,10.8033997 C4.19236306,10.3682349 3.82831812,10.0121909 3.3833743,10.0121909 L0.814834972,10.0121909 C0.572138343,10.0121909 0.329441713,10.1308723 0.18786868,10.3088942 C0.026070927,10.5066964 -0.0143785112,10.7440591 0.026070927,10.9814217 C0.996857444,15.0759272 4.67775632,17.9440591 8.98562149,17.9440591 C13.2934867,17.9440591 16.9743855,15.0759272 17.9451721,10.9814217 C18.0058462,10.7440591 17.9451721,10.5066964 17.7833743,10.3088942 C17.6252416,10.1321553 17.3965362,10.031139 17.156408,10.0319712 Z M8.98562149,11.3176854 C7.67101475,11.3176854 6.59910463,10.2693338 6.59910463,8.98361951 C6.59910463,7.69790522 7.67101475,6.64955357 8.98562149,6.64955357 C10.3002282,6.64955357 11.3721383,7.69790522 11.3721383,8.98361951 C11.3721383,10.2693338 10.3002282,11.3176854 8.98562149,11.3176854 Z" id="形状" fill="#FFFFFF" fill-rule="nonzero"></path>
                    <path d="M7.63056531,8.96383929 C7.63056531,9.43731435 7.88883754,9.87482336 8.30809339,10.1115609 C8.72734923,10.3482984 9.24389374,10.3482984 9.66314959,10.1115609 C10.0824054,9.87482336 10.3406777,9.43731435 10.3406777,8.96383929 C10.3406777,8.23191027 9.73399835,7.63856456 8.98562149,7.63856456 C8.23724463,7.63856456 7.63056531,8.23191027 7.63056531,8.96383929 L7.63056531,8.96383929 Z" id="路径" fill="#FFFFFF" fill-rule="nonzero"></path>
                </g>
            </g>
        </g>
    </g>
</svg>