<?xml version="1.0" encoding="UTF-8"?>
<svg width="24px" height="24px" viewBox="0 0 24 24" version="1.1" xmlns="http://www.w3.org/2000/svg" xmlns:xlink="http://www.w3.org/1999/xlink">
    <!-- Generator: Sketch 59.1 (86144) - https://sketch.com -->
    <desc>Created with Sketch.</desc>
    <defs>
        <rect id="path-1" x="0" y="0" width="24" height="24"></rect>
    </defs>
    <g id="第一版客户端" stroke="none" stroke-width="1" fill="none" fill-rule="evenodd">
        <g id="图标切图" transform="translate(-244.000000, -495.000000)">
            <g id="编组-45备份" transform="translate(244.000000, 495.000000)">
                <g id="编组-3">
                    <mask id="mask-2" fill="white">
                        <use xlink:href="#path-1"></use>
                    </mask>
                    <g id="矩形"></g>
                    <g id="编组-9" mask="url(#mask-2)">
                        <g transform="translate(4.000000, 4.000000)">
                            <path d="M0.5,5.48075836 L0.5,9.77310591 L2.7359318,9.77266764 L2.73677392,15.9477153 L14.2631451,15.9477153 L14.2629872,9.77266767 L16.5,9.77310595 L16.5,5.48075855 L12.2278619,5.48069794 L13.0971345,4.62449423 L14.2612438,3.47788663 C14.4141929,3.32710232 14.4159478,3.08087775 14.2676743,2.93045744 L14.2612438,2.92400896 L12.3640061,1.05362409 C12.2125963,0.904357353 11.9693775,0.904357353 11.8179678,1.05362409 L11.8178975,1.05369339 L8.45595326,4.36674524 L8.10499828,4.02080202 L5.09483409,1.05362409 C4.94342435,0.904357353 4.70020555,0.904357353 4.54879581,1.05362409 L2.6515581,2.92400896 C2.49830893,3.07508909 2.49716081,3.32131107 2.64959127,3.47593377 C2.65057236,3.47691253 2.65057236,3.47691253 2.6516747,3.47800162 L4.68179257,5.48069752 L0.5,5.48075836 Z" id="形状结合" stroke="#FFFFFF" stroke-width="1" fill="none"></path>
                            <rect id="矩形" stroke="none" fill="#FFFFFF" fill-rule="evenodd" x="5.77777778" y="9.01579285" width="5.33333333" height="1"></rect>
                        </g>
                    </g>
                </g>
            </g>
        </g>
    </g>
</svg>