<?xml version="1.0" encoding="UTF-8"?>
<svg width="16px" height="16px" viewBox="0 0 16 16" version="1.1" xmlns="http://www.w3.org/2000/svg" xmlns:xlink="http://www.w3.org/1999/xlink">
    <!-- Generator: Sketch 59.1 (86144) - https://sketch.com -->
    <desc>Created with Sketch.</desc>
    <g id="第一版客户端" stroke="none" stroke-width="1" fill="none" fill-rule="evenodd">
        <g id="图标切图" transform="translate(-177.000000, -591.000000)" fill="#FFFFFF" fill-rule="nonzero">
            <g id="按钮-立即购买" transform="translate(177.000000, 591.000000)">
                <g id="编组">
                    <g id="编组-3">
                        <g id="gouwuche">
                            <path d="M15.543296,2.28826764 L3.20381673,2.28826764 L2.98989382,0.523543273 C2.95498473,0.235613091 2.68921018,-1.77635684e-15 2.39904582,-1.77635684e-15 L2.28184436,-1.77635684e-15 C2.23232,-1.77635684e-15 2.18530909,0.00698181818 2.14127709,0.0198283636 L0.632925091,0.0198283636 C0.284858182,0.0198283636 9.23705556e-14,0.280948364 9.23705556e-14,0.599970909 C9.23705556e-14,0.918993455 0.284858182,1.18011345 0.633018182,1.18011345 L1.89737891,1.18011345 L3.104768,11.1414924 C3.13967709,11.4295156 3.40554473,11.6651287 3.695616,11.6651287 L3.81291055,11.6651287 C3.86187636,11.6651287 3.90851491,11.65824 3.95208145,11.6456727 L13.9306822,11.6456727 C14.2787491,11.6456727 14.5635142,11.3846458 14.5635142,11.0655302 C14.5635142,10.7464145 14.2787491,10.4853876 13.9306822,10.4853876 L4.197376,10.4853876 L4.04954764,9.265152 L13.9618676,9.265152 C14.2519389,9.265152 14.5417309,9.033728 14.6058705,8.75082473 L15.9541062,2.802688 C16.0182458,2.51987782 15.8333673,2.28836073 15.543296,2.28836073 L15.543296,2.28826764 Z M4.17503418,14.20288 C4.17503418,14.98112 4.80600436,15.6121833 5.58433745,15.6121833 C6.36267055,15.6121833 6.99354764,14.9812131 6.99354764,14.2027869 C6.99354764,13.4245469 6.36267055,12.7935767 5.58433745,12.7935767 C4.80600436,12.7935767 4.17494109,13.4245469 4.17494109,14.20288 L4.17503418,14.20288 Z M11.1611345,14.20288 C11.1611345,14.98112 11.7921047,15.6121833 12.5705309,15.6121833 C13.3489571,15.6121833 13.9797411,14.9812131 13.9797411,14.2027869 C13.9797411,13.4245469 13.3487709,12.7935767 12.5704378,12.7935767 C11.7921978,12.7935767 11.1611345,13.4245469 11.1611345,14.20288 L11.1611345,14.20288 Z" id="Shape"></path>
                        </g>
                    </g>
                </g>
            </g>
        </g>
    </g>
</svg>