<?xml version="1.0" encoding="UTF-8"?>
<svg width="260px" height="75px" viewBox="0 0 260 75" version="1.1" xmlns="http://www.w3.org/2000/svg" xmlns:xlink="http://www.w3.org/1999/xlink">
    <defs>
        <linearGradient x1="50%" y1="0.351034628%" x2="50%" y2="100%" id="linearGradient-1">
            <stop stop-color="#FCFCFC" offset="0%"></stop>
            <stop stop-color="#C3C1BE" offset="100%"></stop>
        </linearGradient>
        <linearGradient x1="50%" y1="0%" x2="50%" y2="100%" id="linearGradient-2">
            <stop stop-color="#000000" offset="0%"></stop>
            <stop stop-color="#FFFFFF" offset="100%"></stop>
        </linearGradient>
        <linearGradient x1="50%" y1="0%" x2="50%" y2="100%" id="linearGradient-3">
            <stop stop-color="#FDFDFD" offset="0%"></stop>
            <stop stop-color="#B4B4B2" offset="100%"></stop>
        </linearGradient>
        <path d="M15.3986423,27 L21.0203691,7.52923534 L26.6420952,27 L33.2415136,27 L42,0 L36.0523771,0 L29.9418039,20.3208396 L24.2386036,0 L17.8021341,0 L12.0989332,20.3208396 L5.98836084,0 L0,0 L8.79922419,27 L15.3986423,27 Z M66.4854069,27 L66.4854069,22.3043478 L70,22.3043478 L70,17.5277362 L66.4854069,17.5277362 L66.4854069,0 L59.0168973,0 L44,16.5967016 L44,22.3043478 L60.8141318,22.3043478 L60.8141318,27 L66.4854069,27 Z M60,17 L50,17 L60,6 L60,17 Z M79.7277314,27 L79.7277314,17.5682159 L88.9243698,17.5682159 C90.484034,17.5682159 91.7142854,17.4332833 92.6151262,17.1634183 C93.515966,16.8935532 94.3697477,16.4077961 95.1764704,15.7061469 C96.0638651,14.9235383 96.7563025,13.9182909 97.2537815,12.6904048 C97.7512605,11.4625187 98,10.1604197 98,8.78410793 C98,7.13793098 97.6235293,5.61319335 96.8705887,4.20989504 C95.8487397,2.34782606 94.4504199,1.11994007 92.6756303,0.52623688 C91.6268903,0.175412326 89.8789918,0 87.4319329,0 L74,0 L74,27 L79.7277314,27 Z M86.7979794,12 L79,12 L79,4 L86.9191914,4 C87.9158244,4 88.6430971,4.09523814 89.1010096,4.28571431 C90.3670029,4.80272106 91,5.97278917 91,7.79591834 C91,9.4829932 90.5824915,10.6666667 89.7474744,11.3469387 C89.1818176,11.7823129 88.1986533,12 86.7979794,12 L86.7979794,12 Z M120,27 L120,22.1829086 L114.643326,22.1829086 C112.201313,22.1829086 110.49453,21.9602699 109.522976,21.5149925 C108.551423,21.0697151 107.973742,20.2263868 107.789934,18.9850075 C107.71116,18.3643178 107.632385,17.095952 107.553611,15.17991 L107.553611,15.17991 L107.553611,0 L102,0 L102,15.17991 C102,17.8245877 102.14442,19.7136432 102.433261,20.8470765 C103.221007,23.7616192 105.059081,25.6506747 107.947484,26.5142428 C109.207877,26.838081 111.242889,27 114.052517,27 L114.052517,27 L120,27 Z M127.732867,27 L130.369231,20.766117 L140.630769,20.766117 L143.267133,27 L150,27 L138.805594,0 L132.194406,0 L121,27 L127.732867,27 Z M139,16 L131,16 L135,7 L139,16 Z M165.583975,27 L165.583975,15.3823088 L176,0 L169.229584,0 L162.779661,10.5652174 L156.650231,0 L150,0 L159.895223,15.17991 L159.895223,27 L165.583975,27 Z" id="path-4"></path>
        <linearGradient x1="50%" y1="0%" x2="50%" y2="100%" id="linearGradient-5">
            <stop stop-color="#FDFDFD" offset="0%"></stop>
            <stop stop-color="#B4B4B2" offset="100%"></stop>
        </linearGradient>
    </defs>
    <g id="国内" stroke="none" stroke-width="1" fill="none" fill-rule="evenodd">
        <g id="iPhone-8" transform="translate(-653.000000, -629.000000)">
            <g id="编组-8" transform="translate(653.000000, 629.000000)">
                <g id="编组-9" transform="translate(1.000000, 0.000000)">
                    <g id="编组-7" transform="translate(82.000000, 7.000000)" fill-rule="nonzero">
                        <text id="每日游戏特惠" fill="url(#linearGradient-1)" font-family="MicrosoftYaHeiSemilight, Microsoft YaHei" font-size="22" font-weight="300" letter-spacing="1.3">
                            <tspan x="18" y="57">每日游戏特惠</tspan>
                        </text>
                        <g id="W4PLAY">
                            <use fill="url(#linearGradient-2)" xlink:href="#path-4"></use>
                            <use fill="url(#linearGradient-3)" xlink:href="#path-4"></use>
                        </g>
                    </g>
                    <g id="编组-3备份" fill="url(#linearGradient-5)">
                        <path d="M74.9350202,35.2742907 C74.9781385,36.0106867 75,36.7527912 75,37.5 C75,58.2106781 58.2048561,75 37.4869961,75 C24.7623756,75 13.5174997,68.6666565 6.73473008,58.9812972 C24.7826297,65.2629252 30.0125755,48.7398454 34.6547728,44.0022392 C39.7464352,38.8059304 45.5198462,41.3516076 59.4757606,44.6360429 C65.2442053,45.9936096 70.3916441,42.8824554 74.918077,35.3025806 Z M37.4869961,0 C54.80959,0 69.3898336,11.7373273 73.7034536,27.6903171 C67.5833861,34.3764213 62.4952411,37.1004654 58.43792,35.8632004 C49.6271154,33.1763782 46.9304061,29.1079791 40.1529574,29.1079791 C33.3755087,29.1079791 29.9395356,35.0813083 20.063082,41.940068 C14.1576438,46.0411333 5.78045479,40.9118086 -0.00129075537,36.124148 C0.7229893,16.0508286 17.2299068,0 37.4869961,0 Z M20.801665,12.1753247 L15.1977778,12.1753247 C14.4245791,12.1753247 13.7977778,12.802126 13.7977778,13.5753247 L13.7977778,13.5753247 L13.7975384,19.1753247 L8.19453844,19.1761364 C7.42133979,19.1761364 6.79453844,19.8029377 6.79453844,20.5761364 L6.79453844,20.5761364 L6.79453844,26.1771104 C6.79453844,26.950309 7.42133979,27.5771104 8.19453844,27.5771104 L8.19453844,27.5771104 L13.7975384,27.5763247 L13.7977778,33.1779221 C13.7977778,33.9511207 14.4245791,34.5779221 15.1977778,34.5779221 L15.1977778,34.5779221 L20.801665,34.5779221 C21.5748637,34.5779221 22.201665,33.9511207 22.201665,33.1779221 L22.201665,33.1779221 L22.2015384,27.5763247 L27.8049044,27.5771104 C28.578103,27.5771104 29.2049044,26.950309 29.2049044,26.1771104 L29.2049044,26.1771104 L29.2049044,20.5761364 C29.2049044,19.8029377 28.578103,19.1761364 27.8049044,19.1761364 L27.8049044,19.1761364 L22.2015384,19.1753247 L22.201665,13.5753247 C22.201665,12.802126 21.5748637,12.1753247 20.801665,12.1753247 L20.801665,12.1753247 Z M58.8012029,19.237013 C55.5051797,19.237013 52.833225,21.9080415 52.833225,25.2029221 C52.833225,28.4978027 55.5051797,31.1688312 58.8012029,31.1688312 C62.0972261,31.1688312 64.7691808,28.4978027 64.7691808,25.2029221 C64.7691808,21.9080415 62.0972261,19.237013 58.8012029,19.237013 Z M46.8652471,7.30519481 C43.5692239,7.30519481 40.8972692,9.97622329 40.8972692,13.2711039 C40.8972692,16.5659845 43.5692239,19.237013 46.8652471,19.237013 C50.1612703,19.237013 52.833225,16.5659845 52.833225,13.2711039 C52.833225,9.97622329 50.1612703,7.30519481 46.8652471,7.30519481 Z" id="形状结合"></path>
                    </g>
                </g>
            </g>
        </g>
    </g>
</svg>