<?xml version="1.0" encoding="UTF-8"?>
<svg width="260px" height="75px" viewBox="0 0 260 75" version="1.1" xmlns="http://www.w3.org/2000/svg" xmlns:xlink="http://www.w3.org/1999/xlink">
    <!-- Generator: Sketch 64 (93537) - https://sketch.com -->
    <desc>Created with Sketch.</desc>
    <g id="国内" stroke="none" stroke-width="1" fill="none" fill-rule="evenodd">
        <g id="落地页面2" transform="translate(-360.000000, -114.000000)">
            <g id="编组-40" transform="translate(360.000000, 114.000000)">
                <g id="编组-31">
                    <path d="M96.9317902,51.2692159 L102.611602,31.4721919 L108.291413,51.2692159 L114.959018,51.2692159 L123.807999,23.8167939 L117.798924,23.8167939 L111.625215,44.478137 L105.863088,23.8167939 L99.3601154,23.8167939 L93.5979878,44.478137 L87.4242797,23.8167939 L81.3740458,23.8167939 L90.2641855,51.2692159 L96.9317902,51.2692159 Z M148.502832,51.2692159 L148.502832,46.4948816 L152.124741,46.4948816 L152.124741,41.6382313 L148.502832,41.6382313 L148.502832,23.8167939 L140.806276,23.8167939 L125.330847,40.691596 L125.330847,46.4948816 L142.658388,46.4948816 L142.658388,51.2692159 L148.502832,51.2692159 Z M142.658388,41.6382313 L131.874978,41.6382313 L142.658388,29.9081859 L142.658388,41.6382313 Z M162.043832,51.2692159 L162.043832,41.6793893 L171.427868,41.6793893 C173.019313,41.6793893 174.274633,41.5421958 175.19383,41.2678088 C176.113026,40.9934217 176.984205,40.4995251 177.807366,39.7861188 C178.712843,38.9903965 179.41939,37.9683048 179.927006,36.7198438 C180.434622,35.4713828 180.68843,34.1474654 180.68843,32.7480916 C180.68843,31.0743307 180.304288,29.524044 179.536005,28.0972315 C178.493334,26.203961 177.066521,24.9555001 175.255567,24.3518486 C174.185457,23.9951455 172.401942,23.8167939 169.90502,23.8167939 L169.90502,23.8167939 L156.199388,23.8167939 L156.199388,51.2692159 L162.043832,51.2692159 Z M169.987336,36.7815809 L162.043832,36.7815809 L162.043832,28.7146023 L170.11081,28.7146023 C171.126042,28.7146023 171.866887,28.8106378 172.333345,29.0027087 C173.622964,29.524044 174.267774,30.7039083 174.267774,32.5423013 C174.267774,34.2435009 173.842474,35.4370845 172.991874,36.123052 C172.415661,36.5620713 171.414149,36.7815809 169.987336,36.7815809 L169.987336,36.7815809 Z M202.872621,51.2692159 L202.872621,46.3714075 L197.275126,46.3714075 C194.723326,46.3714075 192.939811,46.1450382 191.924579,45.6922996 C190.909347,45.239561 190.305695,44.3821015 190.113624,43.1199212 C190.031308,42.488831 189.948992,41.199212 189.866676,39.2510641 L189.866676,39.2510641 L189.866676,23.8167939 L184.06339,23.8167939 L184.06339,39.2510641 C184.06339,41.940057 184.214303,43.8607662 184.516129,45.0131917 C185.33929,47.9765716 187.259999,49.8972808 190.278257,50.7753192 C191.595314,51.1045837 193.721814,51.2692159 196.657755,51.2692159 L196.657755,51.2692159 L202.872621,51.2692159 Z M210.445703,51.2692159 L213.120977,44.9308756 L223.533964,44.9308756 L226.209238,51.2692159 L233.041475,51.2692159 L221.681852,23.8167939 L214.973089,23.8167939 L203.613466,51.2692159 L210.445703,51.2692159 Z M222.258065,40.0330672 L214.438034,40.0330672 L218.348049,30.4432406 L222.258065,40.0330672 Z M249.298906,51.2692159 L249.298906,39.4568544 L260,23.8167939 L253.044289,23.8167939 L246.417842,34.559046 L240.12066,23.8167939 L233.288423,23.8167939 L243.454462,39.2510641 L243.454462,51.2692159 L249.298906,51.2692159 Z" id="W4PLAY" fill="#FFFFFF" fill-rule="nonzero"></path>
                    <path d="M74.4107877,35.2439045 C74.4535664,35.9793173 74.4752555,36.720428 74.4752555,37.4666338 C74.4752555,58.1588843 57.7974352,74.9332677 37.2243013,74.9332677 C24.5881346,74.9332677 13.4214767,68.6051237 6.68616176,58.9278184 C24.6083574,65.2058887 29.8019496,48.6966264 34.4118627,43.9630876 C39.4679569,38.7714022 45.2010373,41.3148144 59.0594618,44.5963274 C64.7876105,45.9526861 69.8990915,42.8443001 74.3939048,35.2711696 Z M37.2243013,0 C54.4261075,0 68.9046504,11.7271845 73.1879309,27.666292 C67.1103675,34.3458793 62.0578162,37.0674446 58.028871,35.8312906 C49.2796149,33.1468591 46.6017436,29.0820799 39.8716393,29.0820799 C33.1415349,29.0820799 29.729564,35.0500942 19.9221031,41.9027513 C14.0577181,46.0003071 5.7386818,40.8750578 -0.0026949341,36.0915176 C0.717356605,16.0363078 17.1088693,0 37.2243013,0 Z M19.2671209,12.1644915 L16.4791916,12.1644915 C14.9445988,12.1644915 13.7005656,13.4085247 13.7005656,14.9431175 L13.7005656,14.9431175 L13.7002479,19.1584915 L9.52487381,19.1590741 C7.99028107,19.1590741 6.74624785,20.4031073 6.74624785,21.9377001 L6.74624785,21.9377001 L6.74624785,24.7739473 C6.74624785,26.30854 7.99028107,27.5525733 9.52487381,27.5525733 L9.52487381,27.5525733 L13.7002479,27.5524915 L13.7005656,31.7685299 C13.7005656,33.3031227 14.9445988,34.5471559 16.4791916,34.5471559 L16.4791916,34.5471559 L19.2671209,34.5471559 C20.8017137,34.5471559 22.0457469,33.3031227 22.0457469,31.7685299 L22.0457469,31.7685299 L22.0452479,27.5524915 L26.2214387,27.5525733 C27.7560314,27.5525733 29.0000646,26.30854 29.0000646,24.7739473 L29.0000646,24.7739473 L29.0000646,21.9377001 C29.0000646,20.4031073 27.7560314,19.1590741 26.2214387,19.1590741 L26.2214387,19.1590741 L22.0452479,19.1584915 L22.0457469,14.9431175 C22.0457469,13.4085247 20.8017137,12.1644915 19.2671209,12.1644915 L19.2671209,12.1644915 Z M58.3896162,19.2198966 C55.1166176,19.2198966 52.463328,21.8885485 52.463328,25.1804974 C52.463328,28.4724464 55.1166176,31.1410983 58.3896162,31.1410983 C61.6626148,31.1410983 64.3159043,28.4724464 64.3159043,25.1804974 C64.3159043,21.8885485 61.6626148,19.2198966 58.3896162,19.2198966 Z M46.5370398,7.2986949 C43.2640413,7.2986949 40.6107517,9.9673468 40.6107517,13.2592957 C40.6107517,16.5512447 43.2640413,19.2198966 46.5370398,19.2198966 C49.8100384,19.2198966 52.463328,16.5512447 52.463328,13.2592957 C52.463328,9.9673468 49.8100384,7.2986949 46.5370398,7.2986949 Z" id="形状结合" fill="#FF0036"></path>
                </g>
            </g>
        </g>
    </g>
</svg>