<?xml version="1.0" encoding="UTF-8"?>
<svg width="12px" height="16px" viewBox="0 0 12 16" version="1.1" xmlns="http://www.w3.org/2000/svg" xmlns:xlink="http://www.w3.org/1999/xlink">
    <g id="试玩vip需求" stroke="none" stroke-width="1" fill="none" fill-rule="evenodd" opacity="0.6">
        <g id="首页备份-4" transform="translate(-971.000000, -97.000000)" fill="#F8FDFF">
            <g id="火" transform="translate(971.000000, 97.000000)">
                <path d="M4.44397632,16 C4.44397632,16 -2.20811974,14.4392857 0.764970444,6.69285714 C0.764970444,6.69285714 1.43997012,7.55357143 1.34722207,7.96785714 C1.34722207,7.96785714 1.87622946,6.0125 3.01840448,4.84464286 C3.99912921,3.84107143 4.99531194,1.01964286 4.07641925,0 C4.07641925,0 8.6279438,1.01964286 9.13462294,6.11964286 C9.13462294,6.11964286 9.71687458,4.49464286 10.9122939,4.33392857 C10.9122939,4.33392857 10.5447368,5.22678571 10.9122939,6.56607143 C10.9122939,6.56607143 14.6823302,13.45 8.18481424,15.7767857 C8.18481424,15.7767857 10.1325232,13.4178571 6.00180001,9.36964286 C6.00180001,9.36964286 5.02794551,11.5375 4.44569388,12.3017857 C4.44397632,12.3035714 2.81916794,14.2464286 4.44397632,16 Z" id="路径"></path>
            </g>
        </g>
    </g>
</svg>