<?xml version="1.0" encoding="UTF-8"?>
<svg width="12px" height="16px" viewBox="0 0 12 16" version="1.1" xmlns="http://www.w3.org/2000/svg" xmlns:xlink="http://www.w3.org/1999/xlink">
    <defs>
        <linearGradient x1="52.21838%" y1="8.96300653%" x2="51.4379645%" y2="103.391316%" id="linearGradient-1">
            <stop stop-color="#FCC145" offset="0%"></stop>
            <stop stop-color="#B93C1C" offset="100%"></stop>
        </linearGradient>
    </defs>
    <g id="试玩vip需求" stroke="none" stroke-width="1" fill="none" fill-rule="evenodd">
        <g id="首页备份-3" transform="translate(-971.000000, -97.000000)" fill="url(#linearGradient-1)">
            <path d="M975.443976,113 C975.443976,113 968.79188,111.439286 971.76497,103.692857 C971.76497,103.692857 972.43997,104.553571 972.347222,104.967857 C972.347222,104.967857 972.876229,103.0125 974.018404,101.844643 C974.999129,100.841071 975.995312,98.0196429 975.076419,97 C975.076419,97 979.627944,98.0196429 980.134623,103.119643 C980.134623,103.119643 980.716875,101.494643 981.912294,101.333929 C981.912294,101.333929 981.544737,102.226786 981.912294,103.566071 C981.912294,103.566071 985.68233,110.45 979.184814,112.776786 C979.184814,112.776786 981.132523,110.417857 977.0018,106.369643 C977.0018,106.369643 976.027946,108.5375 975.445694,109.301786 C975.443976,109.303571 973.819168,111.246429 975.443976,113 Z" id="路径"></path>
        </g>
    </g>
</svg>