<?xml version="1.0" encoding="UTF-8"?>
<svg width="24px" height="24px" viewBox="0 0 24 24" version="1.1" xmlns="http://www.w3.org/2000/svg" xmlns:xlink="http://www.w3.org/1999/xlink">
    <!-- Generator: Sketch 59.1 (86144) - https://sketch.com -->
    <desc>Created with Sketch.</desc>
    <defs>
        <rect id="path-1" x="0" y="0" width="24" height="24"></rect>
    </defs>
    <g id="第一版客户端" stroke="none" stroke-width="1" fill="none" fill-rule="evenodd">
        <g id="图标切图" transform="translate(-244.000000, -462.000000)">
            <g id="编组-44备份" transform="translate(244.000000, 462.000000)">
                <g id="编组-39">
                    <g id="编组-3">
                        <mask id="mask-2" fill="white">
                            <use xlink:href="#path-1"></use>
                        </mask>
                        <g id="矩形"></g>
                        <g id="编组-10" mask="url(#mask-2)">
                            <g transform="translate(6.000000, 5.000000)">
                                <g id="编组-4" stroke="none" fill-rule="evenodd">
                                    <path d="M11.527218,3.82482689 C11.711547,2.65740985 11.527218,1.85865082 10.8974272,1.13669553 C10.1908326,0.337936514 8.93125111,-1.19015908e-13 7.3183723,-1.19015908e-13 L2.63334339,-1.19015908e-13 C2.31076763,-1.19015908e-13 2.01891338,0.245772013 1.97283112,0.568347774 L0.00665504383,12.9491127 C-0.0394272141,13.1948847 0.160262556,13.4099352 0.406034554,13.4099352 L3.29385565,13.4099352 L3.0941659,14.6695168 C3.06344439,14.8845673 3.23241266,15.0688963 3.44746317,15.0688963 L5.8898225,15.0688963 C6.18167675,15.0688963 6.42744877,14.8538458 6.47353102,14.5773523 L6.50425253,14.4544663 L6.96507504,11.5359237 L6.99579654,11.3823162 C7.0418788,11.0904619 7.2876508,10.8907721 7.57950507,10.8907721 L7.94816307,10.8907721 C10.3137187,10.8907721 12.1570087,9.93840561 12.694635,7.15810976 C12.9250463,5.99069272 12.8021602,5.02296544 12.203091,4.34709241 C12.018762,4.14740266 11.7883507,3.96307365 11.527218,3.82482689" id="路径" stroke="#FFFFFF" fill-rule="nonzero"></path>
                                </g>
                                <path d="M11.527218,3.82482689 C11.711547,2.65740985 11.527218,1.85865082 10.8974272,1.13669553 C10.1908326,0.337936514 8.93125111,1.36779477e-13 7.3183723,1.36779477e-13 L2.63334339,1.36779477e-13 C2.31076763,1.36779477e-13 2.01891338,0.245772013 1.97283112,0.568347774 L0.00665504383,12.9491127 C-0.0394272141,13.1948847 0.160262556,13.4099352 0.406034554,13.4099352 L3.29385565,13.4099352 L4.01581094,8.80171006 L4.00045019,8.93995682 C4.04653245,8.61738106 4.32302595,8.37160904 4.66096246,8.37160904 L6.04343001,8.37160904 C8.74692211,8.37160904 10.8667057,7.28099575 11.4811357,4.1013204 L11.527218,3.82482689" id="路径" stroke="#FFFFFF" fill-rule="nonzero"></path>
                            </g>
                        </g>
                    </g>
                </g>
            </g>
        </g>
    </g>
</svg>