<?xml version="1.0" encoding="UTF-8"?>
<svg width="24px" height="24px" viewBox="0 0 24 24" version="1.1" xmlns="http://www.w3.org/2000/svg" xmlns:xlink="http://www.w3.org/1999/xlink">
    <!-- Generator: Sketch 59.1 (86144) - https://sketch.com -->
    <desc>Created with Sketch.</desc>
    <g id="第一版客户端" stroke="none" stroke-width="1" fill="none" fill-rule="evenodd">
        <g id="图标切图" transform="translate(-133.000000, -495.000000)">
            <g id="编组-3" transform="translate(133.000000, 495.000000)">
                <rect id="矩形" x="0" y="0" width="24" height="24"></rect>
                <g id="编组-2" transform="translate(3.000000, 3.000000)">
                    <path d="M13.0537631,7.42674539 C13.0537631,7.82076568 12.9132541,8.15872617 12.6306213,8.43742345 C12.3479884,8.71772243 12.0088289,8.85707107 11.6115278,8.85707107 C11.2142268,8.85707107 10.8734522,8.71772243 10.5924344,8.43742345 C10.3098015,8.15712446 10.1692926,7.82076568 10.1692926,7.42674539 C10.1692926,7.0327251 10.3098015,6.69476461 10.5924344,6.41606733 C10.8750673,6.13576835 11.2142268,5.99641971 11.6115278,5.99641971 C12.0088289,5.99641971 12.3496034,6.13576835 12.6306213,6.41606733 C12.9132541,6.69476461 13.0537631,7.0327251 13.0537631,7.42674539 Z M8.50419463,11.7737822 C8.50419463,11.3669483 8.36044216,11.0209792 8.07296415,10.7358751 C7.78548613,10.450771 7.43825144,10.3098207 7.02803,10.3098207 C6.92143703,10.3098207 6.81484406,10.3210326 6.70825109,10.3450583 L7.32358325,10.5917214 C7.62721171,10.7134512 7.84201271,10.9200716 7.96960126,11.2163877 C8.09718982,11.511102 8.10041991,11.8074181 7.97929153,12.1037342 C7.85654811,12.4048554 7.64659225,12.6178826 7.34780892,12.7428159 C7.04902559,12.8677491 6.74862721,12.8693508 6.44984388,12.7492227 C6.36747658,12.7187902 6.24473316,12.670739 6.08322865,12.6066706 C5.92172415,12.5426023 5.80221082,12.4945511 5.72307361,12.4641186 C5.84904712,12.697968 6.02831712,12.8869696 6.26088361,13.0295217 C6.4934501,13.1720737 6.74862721,13.2425489 7.02964505,13.2425489 C7.43986649,13.2425489 7.78871622,13.0999969 8.07619424,12.8148927 C8.36205721,12.5281869 8.50579622,12.1822179 8.50419463,11.7737822 L8.50419463,11.7737822 Z M13.409073,7.43315223 C13.409073,6.94142772 13.2330331,6.52017839 12.8809532,6.16940423 C12.5288734,5.81863007 12.1041166,5.64404384 11.6066827,5.64563463 C11.1060187,5.64563463 10.6796468,5.82023178 10.327567,6.16940423 C9.97548721,6.51857668 9.7994473,6.93982601 9.7994473,7.43315223 C9.7994473,7.92968186 9.97548721,8.35093119 10.327567,8.69850193 C10.6796468,9.04607267 11.1060187,9.2206589 11.6066827,9.21906811 C12.1025015,9.21906811 12.5272584,9.04607267 12.8809532,8.69850193 C13.2330331,8.35093119 13.409073,7.92968186 13.409073,7.43315223 Z M14.2941176,7.43315223 C14.2941176,8.17153984 14.0308653,8.80101127 13.5059757,9.31996483 C12.979471,9.83891838 12.3463733,10.0999969 11.6066827,10.0999969 L9.02422568,11.967589 C8.97738937,12.4721271 8.76258838,12.8965799 8.3798227,13.2441506 C7.99705703,13.5917214 7.54645946,13.7647059 7.02641496,13.7647059 C6.54997667,13.7647059 6.12844992,13.615747 5.76183469,13.3194309 C5.39521947,13.0231149 5.16265298,12.6467134 5.06413523,12.1950316 L3.70588235,11.6552558 L3.70588235,9.14057347 L6.00409145,10.0615559 C6.31579514,9.87575767 6.65656964,9.78125687 7.02641496,9.78125687 C7.0780964,9.78125687 7.14592829,9.78446029 7.23314072,9.79246883 L8.91117252,7.40752489 C8.91924775,6.67714582 9.18573018,6.05408122 9.71223486,5.53833108 C10.2387395,5.02258095 10.8686071,4.76470588 11.6066827,4.76470588 C12.3479884,4.76470588 12.981086,5.02578437 13.5059757,5.54633963 C14.0324804,6.0700983 14.2941176,6.69796803 14.2941176,7.43315223 L14.2941176,7.43315223 Z" id="形状" fill="#FFFFFF" fill-rule="nonzero"></path>
                    <rect id="矩形" stroke="#FFFFFF" x="0.5" y="0.5" width="17" height="17" rx="8.5"></rect>
                </g>
            </g>
        </g>
    </g>
</svg>