<?xml version="1.0" encoding="UTF-8"?>
<svg width="52px" height="52px" viewBox="0 0 52 52" version="1.1" xmlns="http://www.w3.org/2000/svg" xmlns:xlink="http://www.w3.org/1999/xlink">
    <g id="页面" stroke="none" stroke-width="1" fill="none" fill-rule="evenodd">
        <g id="秒杀支付-9/5" transform="translate(-452.000000, -1266.000000)">
            <g id="编组" transform="translate(452.000000, 1266.000000)">
                <circle id="椭圆形备份" stroke="#DB3535" stroke-width="2" cx="26" cy="26" r="25"></circle>
                <path d="M27.4125683,30 L28,16 L23,16 L23.5601093,30 L27.4125683,30 Z M25.5124378,37 C26.2504146,37 26.8495025,36.7612489 27.3097015,36.2837466 C27.7699005,35.8062443 28,35.204775 28,34.4793388 C28,33.7630854 27.7678275,33.1707989 27.3034826,32.7024793 C26.8391376,32.2341598 26.2421227,32 25.5124378,32 C24.7910448,32 24.1919569,32.2318641 23.7151741,32.6955923 C23.2383914,33.1593205 23,33.7539027 23,34.4793388 C23,35.1772268 23.2363184,35.771809 23.7089552,36.2630854 C24.181592,36.7543618 24.7827529,37 25.5124378,37 Z" id="！" fill="#DB3535" fill-rule="nonzero"></path>
            </g>
        </g>
    </g>
</svg>