<?xml version="1.0" encoding="UTF-8"?>
<svg width="32px" height="36px" viewBox="0 0 32 36" version="1.1" xmlns="http://www.w3.org/2000/svg" xmlns:xlink="http://www.w3.org/1999/xlink">
    <!-- Generator: Sketch 61.2 (89653) - https://sketch.com -->
    <desc>Created with Sketch.</desc>
    <g id="第一版客户端" stroke="none" stroke-width="1" fill="none" fill-rule="evenodd">
        <g id="首页" transform="translate(-478.000000, -438.000000)">
            <g id="编组-28" transform="translate(238.000000, 438.000000)">
                <g id="编组-25" transform="translate(238.000000, 0.000000)">
                    <g id="编组-13">
                        <g id="编组-4备份" fill="#FF0036">
                            <g id="编组-22">
                                <polygon id="多边形" points="18 0 33.5884573 9 33.5884573 27 18 36 2.41154273 27 2.41154273 9"></polygon>
                            </g>
                        </g>
                        <g id="shandian" transform="translate(11.000000, 5.000000)" fill="#FFFFFF" fill-rule="nonzero">
                            <path d="M8.51059732,9.60304762 L12.1577049,9.60304762 C12.7099897,9.60304762 13.1577049,10.0507629 13.1577049,10.6030476 C13.1577049,10.8323007 13.0789345,11.0545929 12.9345858,11.2326953 L0.531770317,26.5357143 L0.531770317,26.5357143 L5.10631944,14.6126143 L1.4265038,14.6126143 C0.874219053,14.6126143 0.426503802,14.164899 0.426503802,13.6126143 C0.426503802,13.4963264 0.44678696,13.3809296 0.486441431,13.2716117 L4.62822391,1.85370919 C4.91520837,1.06256174 5.66675826,0.535714286 6.50834865,0.535714286 L15,0.535714286 L15,0.535714286 L8.51059732,9.60304762 Z" id="路径"></path>
                        </g>
                    </g>
                </g>
            </g>
        </g>
    </g>
</svg>