<?xml version="1.0" encoding="UTF-8"?>
<svg width="32px" height="36px" viewBox="0 0 32 36" version="1.1" xmlns="http://www.w3.org/2000/svg" xmlns:xlink="http://www.w3.org/1999/xlink">
    <!-- Generator: Sketch 61.2 (89653) - https://sketch.com -->
    <desc>Created with Sketch.</desc>
    <g id="第一版客户端" stroke="none" stroke-width="1" fill="none" fill-rule="evenodd">
        <g id="首页" transform="translate(-675.000000, -438.000000)">
            <g id="编组-28" transform="translate(238.000000, 438.000000)">
                <g id="编组-26" transform="translate(435.000000, 0.000000)">
                    <g id="编组-15">
                        <g id="编组-13备份" fill="#FF0036">
                            <g id="编组-4备份">
                                <g id="编组-22">
                                    <polygon id="多边形" points="18 0 33.5884573 9 33.5884573 27 18 36 2.41154273 27 2.41154273 9"></polygon>
                                </g>
                            </g>
                        </g>
                        <path d="M25,24.171 L25.001,25.9715729 C25.001,27.0761424 24.1055695,27.9715729 23.001,27.9715729 L15.001,27.9715729 C13.8964305,27.9715729 13.001,27.0761424 13.001,25.9715729 L13,24.171 L25,24.171 Z M20.4152136,6.58578644 L24.4152136,10.5857864 C24.7902863,10.9608592 25.001,11.469567 25.001,12 L25,22.171 L13,22.171 L13.001,12 C13.001,11.469567 13.2117137,10.9608592 13.5867864,10.5857864 L17.5867864,6.58578644 C18.367835,5.80473785 19.634165,5.80473785 20.4152136,6.58578644 Z M19.001,9.97157288 C17.6755166,9.97157288 16.601,11.0460895 16.601,12.3715729 C16.601,13.6970563 17.6755166,14.7715729 19.001,14.7715729 C20.3264834,14.7715729 21.401,13.6970563 21.401,12.3715729 C21.401,11.0460895 20.3264834,9.97157288 19.001,9.97157288 Z" id="形状结合" fill="#FFFFFF" transform="translate(19.000500, 16.985786) rotate(-315.000000) translate(-19.000500, -16.985786) "></path>
                    </g>
                </g>
            </g>
        </g>
    </g>
</svg>