<?xml version="1.0" encoding="UTF-8"?>
<svg width="32px" height="36px" viewBox="0 0 32 36" version="1.1" xmlns="http://www.w3.org/2000/svg" xmlns:xlink="http://www.w3.org/1999/xlink">
    <!-- Generator: Sketch 61.2 (89653) - https://sketch.com -->
    <desc>Created with Sketch.</desc>
    <g id="第一版客户端" stroke="none" stroke-width="1" fill="none" fill-rule="evenodd">
        <g id="首页" transform="translate(-890.000000, -438.000000)">
            <g id="编组-28" transform="translate(238.000000, 438.000000)">
                <g id="编组-27" transform="translate(650.000000, 0.000000)">
                    <g id="编组-14">
                        <g id="编组-13备份" fill="#FF0036">
                            <g id="编组-4备份">
                                <g id="编组-22">
                                    <polygon id="多边形" points="18 0 33.5884573 9 33.5884573 27 18 36 2.41154273 27 2.41154273 9"></polygon>
                                </g>
                            </g>
                        </g>
                        <g id="meiyuan" transform="translate(7.000000, 7.000000)" fill="#FFFFFF" fill-rule="nonzero">
                            <path d="M21.1489143,11.9290286 L16.9689143,14.6771429 L18.2744571,15.2189714 C16.8249714,17.7659429 14.1133143,19.492 11,19.492 C7.81,19.492 5.03611429,17.6873714 3.61051429,15.0379429 L0.890057137,15.0379429 C2.48725714,19.1104571 6.41331429,22 11,22 C15.1466857,22 18.7484,19.6340571 20.5800571,16.1725143 L22,16.7646286 L21.1489143,11.9290286 Z M3.72554286,6.78102857 C5.1744,4.23405714 7.88668571,2.508 11,2.508 C14.19,2.508 16.9638857,4.312 18.3888571,6.96142857 L21.1099429,6.96142857 C19.5127429,2.88954286 15.5866857,0 11,0 C6.85331429,0 3.25222857,2.36594286 1.42057143,5.82748571 L0,5.236 L0.851085705,10.0709714 L5.03108571,7.32348571 L3.72554286,6.78102857 Z" id="形状"></path>
                            <path d="M12.1079618,17.4987424 L12.1079618,16.7863016 C12.7196381,16.7177614 13.3042825,16.5781658 13.7789131,16.3649995 C14.4804863,16.0499661 15.0236398,15.5871626 15.41466,14.9772178 C15.8007688,14.3826093 16.0042413,13.6878731 16,12.9788623 C16,12.363887 15.8522003,11.8080197 15.5586208,11.3112605 C15.26567,10.8138725 14.7973258,10.3976008 14.1529597,10.0624456 C13.5085936,9.72729032 12.4424035,9.39465028 10.9543894,9.06704073 C10.3534001,8.93876367 9.97180967,8.80105448 9.81213261,8.65202671 C9.6467977,8.50802941 9.56381594,8.34705429 9.56381592,8.16721485 C9.56381592,7.92135048 9.66439989,7.71258586 9.8649392,7.54092096 C10.0654785,7.36925607 10.3634585,7.28310921 10.7595079,7.28310923 C11.240425,7.28310923 11.6176149,7.39881011 11.890449,7.62895424 C12.1639117,7.85972718 12.3430769,8.22883815 12.4279446,8.73565833 L15.637202,8.54324273 C15.4970131,7.37491537 15.0626161,6.52287899 14.3239525,5.98776241 C13.7713693,5.58721099 13.0257906,5.33631615 12.1085905,5.23570668 L12.1085905,4.5 L10.2741902,4.5 L10.2741902,5.21306956 C9.50975204,5.26840477 8.87795896,5.40674277 8.38446882,5.62745477 C7.72564378,5.92236625 7.23341096,6.32669053 6.90462711,6.84231401 C6.57647188,7.35730869 6.41365157,7.90437263 6.41365159,8.48350585 C6.41365159,9.36509625 6.73426301,10.0901132 7.37611448,10.6585566 C8.01230813,11.2270001 9.0778696,11.6835155 10.570913,12.0268453 C11.4830839,12.2318371 12.0639563,12.449405 12.3147876,12.680178 C12.5649903,12.9109509 12.6907202,13.1719068 12.6907202,13.464303 C12.6907202,13.7717907 12.5593324,14.0421786 12.2965568,14.2754668 C12.0337811,14.508755 11.6584772,14.6250846 11.1725309,14.6250847 C10.5212496,14.6250847 10.0202157,14.3968269 9.66880044,13.9409403 C9.45317355,13.6592338 9.31047004,13.2492503 9.24006126,12.7109897 L6,12.9184967 C6.09492613,14.0560124 6.50040528,14.9935668 7.22209527,15.7317887 C7.83062831,16.3536809 8.84652645,16.712731 10.2735616,16.8101964 L10.2735616,17.5 L12.1079618,17.5 L12.1079618,17.4987424 Z" id="路径"></path>
                        </g>
                    </g>
                </g>
            </g>
        </g>
    </g>
</svg>