<?xml version="1.0" encoding="UTF-8"?>
<svg width="30px" height="30px" viewBox="0 0 30 30" version="1.1" xmlns="http://www.w3.org/2000/svg" xmlns:xlink="http://www.w3.org/1999/xlink">
    <defs>
        <linearGradient x1="0%" y1="0%" x2="81.4495787%" y2="100%" id="linearGradient-1">
            <stop stop-color="#8ADDFF" offset="0%"></stop>
            <stop stop-color="#3D7AB1" offset="100%"></stop>
        </linearGradient>
    </defs>
    <g id="页面" stroke="none" stroke-width="1" fill="none" fill-rule="evenodd">
        <g id="首页+秒杀9月6日" transform="translate(-524.000000, -411.000000)">
            <g id="编组-21" transform="translate(524.000000, 411.000000)">
                <rect id="矩形" x="0" y="0" width="30" height="30"></rect>
                <g id="时间备份" transform="translate(2.000000, 2.000000)" fill="url(#linearGradient-1)">
                    <path d="M12.5,25 C5.59643555,25 0,19.4035645 0,12.5 C0,5.59643555 5.59643555,0 12.5,0 C19.4035645,0 25,5.59643555 25,12.5 C25,19.4035645 19.4035645,25 12.5,25 Z M17.4249949,15.8964796 L14.1064702,13.3774239 L14.1064702,5.85457665 C14.1064702,5.25112377 13.6135877,4.76190476 13.005616,4.76190476 C12.3976443,4.76190476 11.9047619,5.25112377 11.9047619,5.85457665 L11.9047619,14.4572817 L16.0874822,17.6323627 C16.5704319,17.9989541 17.261343,17.9075422 17.6306795,17.4282069 C18.0000161,16.9488468 17.9079196,16.263071 17.4249949,15.8964796 L17.4249949,15.8964796 Z" id="形状"></path>
                </g>
            </g>
        </g>
    </g>
</svg>