<?xml version="1.0" encoding="UTF-8"?>
<svg width="32px" height="36px" viewBox="0 0 32 36" version="1.1" xmlns="http://www.w3.org/2000/svg" xmlns:xlink="http://www.w3.org/1999/xlink">
    <!-- Generator: Sketch 61.2 (89653) - https://sketch.com -->
    <desc>Created with Sketch.</desc>
    <g id="第一版客户端" stroke="none" stroke-width="1" fill="none" fill-rule="evenodd">
        <g id="首页" transform="translate(-240.000000, -438.000000)">
            <g id="编组-28" transform="translate(238.000000, 438.000000)">
                <g id="编组-23">
                    <g id="编组-4">
                        <g id="编组-22">
                            <polygon id="多边形" fill="#FF0036" points="18 0 33.5884573 9 33.5884573 27 18 36 2.41154273 27 2.41154273 9"></polygon>
                            <g id="编组-29" transform="translate(7.000000, 9.000000)">
                                <path d="M18.9090966,17.2425 C18.4124241,17.2425 17.9361216,17.0497586 17.5849032,16.7069375 L14.4649665,13.661285 C14.4148111,13.6124475 14.3468662,13.5850147 14.2760254,13.585 L7.66897463,13.585 C7.59813379,13.5850147 7.53018886,13.6124475 7.48003355,13.661285 L4.36009682,16.7069375 C4.0088784,17.0497586 3.53257593,17.2425 3.03590341,17.2425 L1.87335365,17.2425 C0.838728997,17.2425 1.48222175e-12,16.4237407 1.48222175e-12,15.41375 L1.48222175e-12,1.82874999 C1.48222175e-12,0.818759259 0.838728997,-2.44249065e-14 1.87335365,-2.44249065e-14 L20.0716464,-2.44249065e-14 C21.106271,-2.44249065e-14 21.945,0.818759259 21.945,1.82874999 L21.945,15.41375 C21.945,16.4237407 21.106271,17.2425 20.0716464,17.2425 L18.9090966,17.2425 Z" id="形状" fill="#FFFFFF" fill-rule="nonzero"></path>
                                <g id="编组-20" transform="translate(2.942534, 3.501667)" stroke="#FF0036">
                                    <rect id="矩形" fill="#D8D8D8" x="0.5" y="3.25" width="5.41666667" height="1"></rect>
                                    <path d="M0.5,3.25 L0.5,4.08333333 L5.91666667,4.08333333 L5.91666667,3.25 L0.5,3.25 Z" id="矩形" fill="#D8D8D8" transform="translate(3.208333, 3.666667) rotate(-270.000000) translate(-3.208333, -3.666667) "></path>
                                    <circle id="椭圆形" stroke-width="2" cx="13.2916667" cy="3.66666667" r="2.29166667"></circle>
                                </g>
                            </g>
                        </g>
                    </g>
                </g>
            </g>
        </g>
    </g>
</svg>