<?xml version="1.0" encoding="UTF-8"?>
<svg width="23px" height="23px" viewBox="0 0 23 23" version="1.1" xmlns="http://www.w3.org/2000/svg" xmlns:xlink="http://www.w3.org/1999/xlink">
    <g id="试玩vip需求" stroke="none" stroke-width="1" fill="none" fill-rule="evenodd">
        <g id="画板" transform="translate(-245.000000, -153.000000)" fill="#F3F3F3">
            <path d="M267.954507,163.470071 C267.984621,163.809359 268,164.152884 268,164.5 C268,170.851275 262.851275,176 256.5,176 C252.947474,176 249.77118,174.38916 247.661684,171.858046 C252.38773,172.868327 253.883408,168.198769 255.220981,166.793315 C256.792409,165.14214 258.574242,165.951052 262.881422,166.994713 C264.777665,167.454185 266.456472,166.302707 267.917842,163.540276 Z M256.5,153 C261.738749,153 266.159342,156.502944 267.547274,161.294327 C265.535454,163.648445 263.873545,164.619122 262.561116,164.20706 C259.841859,163.353297 259.00958,162.060525 256.917873,162.060525 C254.826165,162.060525 253.765729,163.958606 250.717583,166.138041 C249.051766,167.329106 246.748684,166.069984 245.002389,164.683009 L245,164.5 C245,158.148725 250.148725,153 256.5,153 Z M250.500012,157 C249.775136,157 249.187508,157.587628 249.187508,158.312505 L249.187508,158.312505 L249.187,159.187 L248.3125,159.1875 C247.587626,159.1875 247,159.775126 247,160.5 C247,161.224874 247.587626,161.8125 248.3125,161.8125 L248.3125,161.8125 L249.187,161.812 L249.187508,162.687495 C249.187508,163.412372 249.775136,164 250.500012,164 C251.224889,164 251.812517,163.412372 251.812517,162.687495 L251.812517,162.687495 L251.812,161.812 L252.6875,161.8125 C253.412374,161.8125 254,161.224874 254,160.5 C254,159.775126 253.412374,159.1875 252.6875,159.1875 L252.6875,159.1875 L251.812,159.187 L251.812517,158.312505 C251.812517,157.587628 251.224889,157 250.500012,157 Z M263.25,158.5 C262.283502,158.5 261.5,159.283502 261.5,160.25 C261.5,161.216498 262.283502,162 263.25,162 C264.216498,162 265,161.216498 265,160.25 C265,159.283502 264.216498,158.5 263.25,158.5 Z M259.75,155 C258.783502,155 258,155.783502 258,156.75 C258,157.716498 258.783502,158.5 259.75,158.5 C260.716498,158.5 261.5,157.716498 261.5,156.75 C261.5,155.783502 260.716498,155 259.75,155 Z" id="形状结合备份"></path>
        </g>
    </g>
</svg>