<?xml version="1.0" encoding="UTF-8"?>
<svg width="89px" height="88px" viewBox="0 0 89 88" version="1.1" xmlns="http://www.w3.org/2000/svg" xmlns:xlink="http://www.w3.org/1999/xlink">
    <g id="试玩vip需求" stroke="none" stroke-width="1" fill="none" fill-rule="evenodd" opacity="0.0921177455">
        <g id="画板" transform="translate(-918.000000, -686.000000)" fill="#F3F3F3">
            <g id="编组-6备份" transform="translate(926.000000, 705.000000)">
                <g id="编组-3备份-6">
                    <g id="编组-3备份-3" transform="translate(36.507148, 25.011065) rotate(-31.000000) translate(-36.507148, -25.011065) translate(4.507148, -6.988935)">
                        <path d="M63.5464193,29.949991 C63.582637,30.5685508 63.6009997,31.1919055 63.6009997,31.8195476 C63.6009997,49.2165172 49.493195,63.3195476 32.0903361,63.3195476 C21.4015701,63.3195476 11.9558195,57.999367 6.25836903,49.8634425 C21.4184893,55.141248 25.811756,41.2611386 29.7112881,37.2814286 C33.9882493,32.9165291 38.8378745,35.054898 50.5607461,37.8138237 C55.3762017,38.9471198 59.6764556,36.3730247 63.4615079,30.0915386 Z M32.0903361,0.31954762 C46.6413015,0.31954762 58.888678,10.1790469 62.5119892,23.5797082 C57.3707968,29.1959014 53.0969697,31.4839023 49.6889671,30.444636 C42.2879522,28.1877053 40.0227351,24.7702501 34.3297251,24.7702501 C28.6367151,24.7702501 25.7505215,29.7878466 17.4543688,35.5492048 C12.4937474,38.994165 5.45679363,34.6853032 0.600157975,30.6636029 C1.20892279,13.8021484 15.0745814,0.31954762 32.0903361,0.31954762 Z M17.8508096,10.5468203 L13.5915775,10.5468203 C12.8183788,10.5468203 12.1915775,11.1736217 12.1915775,11.9468203 L12.1915775,11.9468203 L12.1908841,16.4268203 L7.70888408,16.4275022 C6.93568543,16.4275022 6.30888408,17.0543035 6.30888408,17.8275022 L6.30888408,17.8275022 L6.30888408,22.0843203 C6.30888408,22.857519 6.93568543,23.4843203 7.70888408,23.4843203 L7.70888408,23.4843203 L12.1908841,23.4838203 L12.1915775,27.9650022 C12.1915775,28.7382008 12.8183788,29.3650022 13.5915775,29.3650022 L13.5915775,29.3650022 L17.8508096,29.3650022 C18.6240082,29.3650022 19.2508096,28.7382008 19.2508096,27.9650022 L19.2508096,27.9650022 L19.2498841,23.4838203 L23.7334363,23.4843203 C24.506635,23.4843203 25.1334363,22.857519 25.1334363,22.0843203 L25.1334363,22.0843203 L25.1334363,17.8275022 C25.1334363,17.0543035 24.506635,16.4275022 23.7334363,16.4275022 L23.7334363,16.4275022 L19.2498841,16.4268203 L19.2508096,11.9468203 C19.2508096,11.1736217 18.6240082,10.5468203 17.8508096,10.5468203 L17.8508096,10.5468203 Z M49.9941222,16.4786385 C47.2254856,16.4786385 44.9810621,18.7223025 44.9810621,21.4900022 C44.9810621,24.2577019 47.2254856,26.5013658 49.9941222,26.5013658 C52.7627589,26.5013658 55.0071823,24.2577019 55.0071823,21.4900022 C55.0071823,18.7223025 52.7627589,16.4786385 49.9941222,16.4786385 Z M39.968002,6.45591126 C37.1993653,6.45591126 34.9549419,8.69957518 34.9549419,11.4672749 C34.9549419,14.2349746 37.1993653,16.4786385 39.968002,16.4786385 C42.7366386,16.4786385 44.9810621,14.2349746 44.9810621,11.4672749 C44.9810621,8.69957518 42.7366386,6.45591126 39.968002,6.45591126 Z" id="形状结合"></path>
                    </g>
                </g>
            </g>
        </g>
    </g>
</svg>