<svg width="24" height="24" viewBox="0 0 24 24" fill="none" xmlns="http://www.w3.org/2000/svg">
<path d="M12.0002 12C7.46016 12 4.03516 10.41 4.03516 8.29996C4.03516 6.18996 7.46016 4.58496 12.0002 4.58496C16.5402 4.58496 19.9652 6.17496 19.9652 8.28496C19.9652 10.395 16.5402 12 12.0002 12ZM12.0002 5.59996C7.89516 5.59996 5.03516 7.01996 5.03516 8.29996C5.03516 9.57996 7.89516 11 12.0002 11C16.1052 11 18.9652 9.57496 18.9652 8.29996C18.9652 7.02496 16.1052 5.58496 12.0002 5.58496V5.59996ZM12.0002 20.5C7.46016 20.5 4.03516 18.91 4.03516 16.8C4.03516 16.6674 4.08783 16.5402 4.1816 16.4464C4.27537 16.3526 4.40255 16.3 4.53516 16.3C4.66776 16.3 4.79494 16.3526 4.88871 16.4464C4.98248 16.5402 5.03516 16.6674 5.03516 16.8C5.03516 18.075 7.89516 19.5 12.0002 19.5C16.1052 19.5 18.9652 18.075 18.9652 16.8C18.9652 16.6674 19.0178 16.5402 19.1116 16.4464C19.2054 16.3526 19.3325 16.3 19.4652 16.3C19.5978 16.3 19.7249 16.3526 19.8187 16.4464C19.9125 16.5402 19.9652 16.6674 19.9652 16.8C19.9652 18.895 16.5402 20.5 12.0002 20.5Z" fill="white"/>
<path d="M12.0002 16.4998C7.46016 16.4998 4.03516 14.9098 4.03516 12.7998C4.03516 12.6672 4.08783 12.54 4.1816 12.4463C4.27537 12.3525 4.40255 12.2998 4.53516 12.2998C4.66776 12.2998 4.79494 12.3525 4.88871 12.4463C4.98248 12.54 5.03516 12.6672 5.03516 12.7998C5.03516 14.0748 7.89516 15.4998 12.0002 15.4998C16.1052 15.4998 18.9652 14.0748 18.9652 12.7998C18.9652 12.6672 19.0178 12.54 19.1116 12.4463C19.2054 12.3525 19.3325 12.2998 19.4652 12.2998C19.5978 12.2998 19.7249 12.3525 19.8187 12.4463C19.9125 12.54 19.9652 12.6672 19.9652 12.7998C19.9652 14.8948 16.5402 16.4998 12.0002 16.4998Z" fill="white"/>
</svg>
