<?xml version="1.0" encoding="UTF-8"?>
<svg width="110px" height="50px" viewBox="0 0 110 50" version="1.1" xmlns="http://www.w3.org/2000/svg" xmlns:xlink="http://www.w3.org/1999/xlink">
    <!-- Generator: Sketch 63.1 (92452) - https://sketch.com -->
    <desc>Created with Sketch.</desc>
    <g id="第一版客户端" stroke="none" stroke-width="1" fill="none" fill-rule="evenodd">
        <g id="订单页备份" transform="translate(-660.000000, -170.000000)">
            <g id="编组-11" transform="translate(62.000000, 152.000000)">
                <g id="编组-6" transform="translate(598.000000, 18.000000)">
                    <rect id="矩形" fill="#FFFFFF" x="0" y="0" width="110" height="50" rx="4"></rect>
                    <rect id="矩形" fill="#000000" fill-rule="nonzero" opacity="0" x="43" y="9" width="33" height="32"></rect>
                    <g id="编组-10" transform="translate(41.000000, 8.000000)" fill-rule="nonzero">
                        <g id="编组-4">
                            <path d="M24.5773538,8.11981989 C24.9703644,5.6414813 24.5773538,3.94577593 23.2345675,2.41311914 C21.7280267,0.717413808 19.0424541,-2.45470311e-13 15.603611,-2.45470311e-13 L5.61459083,-2.45470311e-13 C4.92682223,-2.45470311e-13 4.3045554,0.521755502 4.20630273,1.20655959 L0.0141893185,27.4899926 C-0.0840633529,28.0117481 0.341698192,28.4682841 0.865712344,28.4682841 L7.0228789,28.4682841 L6.59711739,31.142281 C6.53161561,31.5988171 6.89187537,31.9901337 7.35038777,31.9901337 L12.5577786,31.9901337 C13.1800455,31.9901337 13.7040596,31.5335976 13.8023123,30.9466227 L13.8678141,30.685745 L14.8503406,24.4898985 L14.9158424,24.1638013 C15.0140951,23.5442167 15.5381093,23.1202903 16.1603761,23.1202903 L16.9463974,23.1202903 C21.9900338,23.1202903 25.9201401,21.0984878 27.0664211,15.1961288 C27.5576844,12.7177902 27.2956773,10.6633779 26.0183928,9.22855031 C25.6253822,8.80462397 25.1341189,8.41330736 24.5773538,8.11981989" id="路径" fill="#009CDE"></path>
                            <path d="M10.2652166,8.15242958 C10.3307184,7.72850324 10.5927255,7.40240605 10.9529852,7.20674774 C11.1167396,7.1415283 11.313245,7.07630888 11.4769994,7.07630888 L19.337212,7.07630888 C20.2542369,7.07630888 21.1385108,7.14152833 21.924532,7.27196719 C22.1537882,7.30457691 22.3830444,7.33718663 22.5795498,7.40240608 C22.808806,7.4350158 23.0053113,7.50023525 23.2018166,7.56545466 L23.4965746,7.6632838 C23.8895852,7.79372266 24.249845,7.95677127 24.5773538,8.11981989 C24.9703644,5.6414813 24.5773538,3.94577593 23.2345675,2.41311914 C21.7280267,0.717413808 19.0424541,2.82107671e-13 15.603611,2.82107671e-13 L5.61459083,2.82107671e-13 C4.92682223,2.82107671e-13 4.3045554,0.521755502 4.20630273,1.20655959 L0.0141893185,27.4899926 C-0.0840633529,28.0117481 0.341698192,28.4682841 0.865712344,28.4682841 L7.0228789,28.4682841 L8.56217056,18.6853686 L10.2652166,8.15242958 Z" id="路径" fill="#003087"></path>
                        </g>
                        <path d="M24.5773538,8.11981989 C24.9703644,5.6414813 24.5773538,3.94577593 23.2345675,2.41311914 C21.7280267,0.717413808 19.0424541,2.82107671e-13 15.603611,2.82107671e-13 L5.61459083,2.82107671e-13 C4.92682223,2.82107671e-13 4.3045554,0.521755502 4.20630273,1.20655959 L0.0141893185,27.4899926 C-0.0840633529,28.0117481 0.341698192,28.4682841 0.865712344,28.4682841 L7.0228789,28.4682841 L8.56217056,18.6853686 L8.52941967,18.9788561 C8.62767234,18.294052 9.21718828,17.7722965 9.93770777,17.7722965 L12.8852875,17.7722965 C18.6494434,17.7722965 23.1690657,15.4570065 24.4791011,8.7067948 L24.5773538,8.11981989" id="路径" fill="#012169"></path>
                    </g>
                </g>
            </g>
        </g>
    </g>
</svg>