<?xml version="1.0" encoding="UTF-8"?>
<svg width="40px" height="24px" viewBox="0 0 40 24" version="1.1" xmlns="http://www.w3.org/2000/svg" xmlns:xlink="http://www.w3.org/1999/xlink">
    <!-- Generator: Sketch 59.1 (86144) - https://sketch.com -->
    <desc>Created with Sketch.</desc>
    <g id="第一版客户端" stroke="none" stroke-width="1" fill="none" fill-rule="evenodd">
        <g id="图标切图" transform="translate(-105.000000, -587.000000)">
            <g id="编组-6" transform="translate(105.000000, 587.000000)">
                <rect id="矩形" fill="#FFFFFF" x="0" y="0" width="40" height="24" rx="4"></rect>
                <rect id="矩形" fill="#000000" fill-rule="nonzero" opacity="0" x="8" y="4" width="15.5261786" height="15.5261786"></rect>
                <g id="编组-10" transform="translate(13.000000, 4.000000)" fill-rule="nonzero">
                    <g id="编组-4">
                        <path d="M11.8649294,3.93688237 C12.0546587,2.73526366 11.8649294,1.91310348 11.2166877,1.16999716 C10.4893922,0.347836998 9.19290886,-1.19015908e-13 7.53277774,-1.19015908e-13 L2.71049213,-1.19015908e-13 C2.3784659,-1.19015908e-13 2.07806123,0.252972365 2.0306289,0.584998588 L0.00685001582,13.3284813 C-0.0405823083,13.5814536 0.164957748,13.8028044 0.417930097,13.8028044 L3.39035533,13.8028044 L3.18481529,15.0992878 C3.15319374,15.3206386 3.32711225,15.5103679 3.54846306,15.5103679 L6.06237589,15.5103679 C6.36278056,15.5103679 6.61575293,15.289017 6.66318525,15.0044231 L6.6948068,14.877937 L7.16912997,11.8738902 L7.20075152,11.7157824 C7.24818384,11.4153778 7.50115619,11.2098377 7.80156088,11.2098377 L8.18101941,11.2098377 C10.6158784,11.2098377 12.5131711,10.2295698 13.0665481,7.36782001 C13.3037097,6.1662013 13.1772235,5.17012263 12.5606034,4.47444863 C12.3708741,4.26890859 12.1337126,4.07917933 11.8649294,3.93688237" id="路径" fill="#009CDE"></path>
                        <path d="M4.95562181,3.95269313 C4.98724336,3.74715309 5.11372955,3.58904536 5.28764804,3.49418072 C5.3667019,3.46255917 5.46156653,3.43093764 5.5406204,3.43093764 L9.33520581,3.43093764 C9.77790744,3.43093764 10.2047983,3.46255919 10.5842568,3.52580227 C10.6949323,3.54161305 10.8056077,3.55742382 10.9004723,3.58904537 C11.0111477,3.60485615 11.1060123,3.6364777 11.200877,3.66809923 L11.3431739,3.71553154 C11.5329032,3.77877462 11.7068217,3.8578285 11.8649294,3.93688237 C12.0546587,2.73526366 11.8649294,1.91310348 11.2166877,1.16999716 C10.4893922,0.347836998 9.19290886,1.36779477e-13 7.53277774,1.36779477e-13 L2.71049213,1.36779477e-13 C2.3784659,1.36779477e-13 2.07806123,0.252972365 2.0306289,0.584998588 L0.00685001581,13.3284813 C-0.0405823083,13.5814536 0.164957748,13.8028044 0.417930097,13.8028044 L3.39035533,13.8028044 L4.13346165,9.05957266 L4.95562181,3.95269313 Z" id="路径" fill="#003087"></path>
                    </g>
                    <path d="M11.8649294,3.93688237 C12.0546587,2.73526366 11.8649294,1.91310348 11.2166877,1.16999716 C10.4893922,0.347836998 9.19290886,1.36779477e-13 7.53277774,1.36779477e-13 L2.71049213,1.36779477e-13 C2.3784659,1.36779477e-13 2.07806123,0.252972365 2.0306289,0.584998588 L0.00685001581,13.3284813 C-0.0405823083,13.5814536 0.164957748,13.8028044 0.417930097,13.8028044 L3.39035533,13.8028044 L4.13346165,9.05957266 L4.11765088,9.20186962 C4.1650832,8.86984339 4.4496771,8.61687103 4.7975141,8.61687103 L6.22048362,8.61687103 C9.00317959,8.61687103 11.1850662,7.49430618 11.8174971,4.22147627 L11.8649294,3.93688237" id="路径" fill="#012169"></path>
                </g>
            </g>
        </g>
    </g>
</svg>