<?xml version="1.0" encoding="UTF-8"?>
<svg width="24px" height="24px" viewBox="0 0 24 24" version="1.1" xmlns="http://www.w3.org/2000/svg" xmlns:xlink="http://www.w3.org/1999/xlink">
    <g id="国内" stroke="none" stroke-width="1" fill="none" fill-rule="evenodd">
        <g id="画板" transform="translate(-132.000000, -1034.000000)">
            <g id="编组-4" transform="translate(132.000000, 1034.000000)">
                <g id="编组-22">
                    <polygon id="多边形" fill="#569FCB" points="12 0 22.3923048 6 22.3923048 18 12 24 1.60769515 18 1.60769515 6"></polygon>
                    <g id="编组-29" transform="translate(4.666667, 6.000000)">
                        <path d="M12.6060644,11.495 C12.2749494,11.495 11.9574144,11.3665058 11.7232688,11.1379583 L9.64331097,9.10752333 C9.60987409,9.07496498 9.56457747,9.05667646 9.51735025,9.05666667 L5.11264975,9.05666667 C5.06542253,9.05667646 5.02012591,9.07496498 4.98668903,9.10752333 L2.90673121,11.1379583 C2.6725856,11.3665058 2.35505062,11.495 2.02393561,11.495 L1.24890243,11.495 C0.559152665,11.495 1.54473964e-12,10.9491605 1.54473964e-12,10.2758333 L1.54473964e-12,1.21916666 C1.54473964e-12,0.545839506 0.559152665,-1.6283271e-14 1.24890243,-1.6283271e-14 L13.3810976,-1.6283271e-14 C14.0708473,-1.6283271e-14 14.63,0.545839506 14.63,1.21916666 L14.63,10.2758333 C14.63,10.9491605 14.0708473,11.495 13.3810976,11.495 L12.6060644,11.495 Z" id="形状" fill="#FFFFFF" fill-rule="nonzero"></path>
                        <g id="编组-20" transform="translate(1.961689, 2.334444)" stroke="#569FCB">
                            <rect id="矩形" stroke-width="0.666666667" fill="#D8D8D8" x="0.333333333" y="2.16666667" width="3.61111111" height="1"></rect>
                            <path d="M3.94444444,2.16666667 L0.333333333,2.16666667 L0.333333333,2.72222222 L3.94444444,2.72222222 L3.94444444,2.16666667 Z" id="矩形" stroke-width="0.666666667" fill="#D8D8D8" transform="translate(2.138889, 2.444444) rotate(-270.000000) translate(-2.138889, -2.444444) "></path>
                            <circle id="椭圆形" stroke-width="1.33333333" cx="8.86111111" cy="2.44444444" r="1.52777778"></circle>
                        </g>
                    </g>
                </g>
            </g>
        </g>
    </g>
</svg>