<svg width="18" height="18" viewBox="0 0 18 18" fill="none" xmlns="http://www.w3.org/2000/svg">
<path d="M8.66983 2C6.71185 3.8075 4.07412 3.88499 3 3.69779V10.4724C3.07949 13.5869 6.8417 15.4552 8.71287 16C13.5003 14.3693 14.477 11.6354 14.367 10.4724V3.69779C10.9406 3.88585 9.14121 2.64429 8.66983 2Z" stroke="white"/>
<path d="M11.0656 9.54373C11.0656 10.7755 10.0201 11.8081 8.68759 11.8081C7.35507 11.8081 6.30957 10.7755 6.30957 9.54373C6.30957 8.31195 7.35507 7.27936 8.68759 7.27936C10.0201 7.27936 11.0656 8.31195 11.0656 9.54373Z" stroke="white"/>
<path d="M4.69824 13.3604C6.15326 12.2082 9.31085 10.9658 12.6621 13.3604" stroke="white"/>
</svg>
