<svg width="49" height="23" viewBox="0 0 49 23" fill="none" xmlns="http://www.w3.org/2000/svg">
<rect x="0.5" y="0.5" width="48" height="22" rx="3.5" stroke="#840909"/>
<path d="M20.584 8.00879C21.9876 9.42155 23.1133 10.6702 23.9609 11.7549L23.0039 12.4521C22.7214 12.083 22.4342 11.7184 22.1426 11.3584C21.4681 11.3766 20.8301 11.3949 20.2285 11.4131V15.4736C20.2285 15.8838 20.2786 16.1436 20.3789 16.2529C20.4974 16.417 20.7389 16.499 21.1035 16.499H22.4023C23.0039 16.499 23.3411 16.2712 23.4141 15.8154C23.4779 15.4326 23.528 14.8356 23.5645 14.0244C23.8926 14.152 24.2936 14.2887 24.7676 14.4346C24.7038 15.0726 24.6263 15.6514 24.5352 16.1709C24.3893 17.0186 23.7559 17.4424 22.6348 17.4424H20.9121C20.2285 17.4424 19.7591 17.2965 19.5039 17.0049C19.2487 16.7588 19.1211 16.3076 19.1211 15.6514V11.4541C18.2188 11.486 17.4076 11.5156 16.6875 11.543C16.6374 13.0195 16.3457 14.1794 15.8125 15.0225C15.0924 16.18 13.7845 17.0869 11.8887 17.7432C11.7064 17.4424 11.4785 17.1051 11.2051 16.7314C13.0189 16.1663 14.2402 15.3779 14.8691 14.3662C15.3203 13.6507 15.5687 12.7256 15.6143 11.5908C15.0127 11.6182 14.4954 11.6455 14.0625 11.6729C13.7982 11.6911 13.4336 11.764 12.9688 11.8916L12.4082 10.7158C12.8913 10.6064 13.3151 10.3877 13.6797 10.0596C14.5729 9.21647 15.4183 8.2959 16.2158 7.29785H11.4648V6.28613H17.9043C17.5853 5.72103 17.2891 5.24707 17.0156 4.86426L17.9863 4.31738C18.3145 4.764 18.6608 5.28809 19.0254 5.88965L18.3008 6.28613H24.5762V7.29785H17.6992C16.8288 8.32324 15.7988 9.41699 14.6094 10.5791C17.4395 10.5199 19.693 10.4674 21.3701 10.4219C20.8551 9.80208 20.3288 9.19368 19.791 8.59668L20.584 8.00879ZM28.541 16.4717H29.9219V8.00879H33.1484V6.76465H29.1836V5.83496H33.1484V4.38574H34.1875V5.83496H38.4941V6.76465H34.1875V8.00879H37.4961V16.4717H38.7949V17.4014H28.541V16.4717ZM25.1504 11.085C26.3717 9.26204 27.3197 7.05176 27.9941 4.4541L29.0059 4.75488C28.6413 5.93066 28.2448 7.03353 27.8164 8.06348V17.7842H26.8184V10.1689C26.4264 10.8981 26.0117 11.5771 25.5742 12.2061C25.4466 11.8232 25.3053 11.4495 25.1504 11.085ZM30.9336 16.4717H36.4844V15.2275H30.9336V16.4717ZM36.4844 8.91113H30.9336V10.1416H36.4844V8.91113ZM30.9336 12.2471H36.4844V11.0166H30.9336V12.2471ZM30.9336 14.3525H36.4844V13.1221H30.9336V14.3525Z" fill="#840909"/>
</svg>
