<?xml version="1.0" encoding="UTF-8"?>
<svg width="14px" height="14px" viewBox="0 0 14 14" version="1.1" xmlns="http://www.w3.org/2000/svg" xmlns:xlink="http://www.w3.org/1999/xlink">
    <!-- Generator: Sketch 64 (93537) - https://sketch.com -->
    <desc>Created with Sketch.</desc>
    <g id="国内" stroke="none" stroke-width="1" fill="none" fill-rule="evenodd">
        <g id="首页" transform="translate(-1140.000000, -1422.000000)" fill-rule="nonzero">
            <g id="编组-12" transform="translate(1120.000000, 1413.000000)">
                <g id="编组-11" transform="translate(20.000000, 9.000000)">
                    <g id="刷新">
                        <rect id="矩形" fill="#000000" opacity="0" x="0" y="0" width="13.9863415" height="13.9863415"></rect>
                        <path d="M2.98300773,1.26481249 C2.33286502,1.71963922 1.76877061,2.27963609 1.3057488,2.92841294 C0.375607653,4.23006421 -0.0833166088,5.82264069 0.0136584546,7.41111961 C0.0341461502,7.75394697 0.329168888,8.01482356 0.671996244,7.99433588 C1.0148236,7.97384819 1.27570019,7.67882544 1.25521251,7.33599809 C1.08994513,4.61659864 2.88330097,2.13622225 5.52074965,1.43690908 C7.54220177,0.901497437 9.66882404,1.50383554 11.1056941,2.97621756 L10.1359434,3.49797074 L13.1503656,5.36098473 L13.2582674,1.81934597 L12.2379804,2.36841607 C11.4403263,1.464226 10.4241369,0.782668838 9.27682623,0.383841796 C7.9615165,-0.0709849314 6.55332925,-0.122887084 5.20250752,0.234964581 C4.40212174,0.44667071 3.65500397,0.793595613 2.98300773,1.26481249 Z M0.72799593,12.1669955 L1.74828292,11.6192912 C2.545937,12.5234813 3.56212644,13.2050385 4.70943711,13.6024997 C6.02474683,14.0573264 7.43293409,14.1092285 8.78375582,13.7513769 C9.30960654,13.6120606 9.81223787,13.4153788 10.2861864,13.1626972 C10.5334046,13.031576 10.7724276,12.8840647 11.0032556,12.7228948 C11.6533983,12.2680681 12.2161269,11.7094371 12.6791487,11.0620261 C13.6092898,9.76174064 14.0695799,8.17053001 13.9739707,6.58341693 C13.953483,6.24058957 13.6584603,5.97971298 13.3156329,6.00020067 C12.9728056,6.02068835 12.711929,6.3157111 12.7324167,6.65853846 C12.8935865,9.37247451 11.0988648,11.8501192 8.46551369,12.5494324 C6.44406157,13.084844 4.31743929,12.4825059 2.88056928,11.0101239 L3.85031995,10.4883707 L0.835897768,8.62535673 L0.72799593,12.1669955 Z" id="形状" fill="#FF0036"></path>
                    </g>
                </g>
            </g>
        </g>
    </g>
</svg>