<?xml version="1.0" encoding="UTF-8"?>
<svg width="24px" height="24px" viewBox="0 0 24 24" version="1.1" xmlns="http://www.w3.org/2000/svg" xmlns:xlink="http://www.w3.org/1999/xlink">
    <g id="国内" stroke="none" stroke-width="1" fill="none" fill-rule="evenodd">
        <g id="画板" transform="translate(-132.000000, -1081.000000)">
            <g id="编组-4" transform="translate(132.000000, 1081.000000)">
                <polygon id="多边形" fill="#569FCB" points="12 0 22.3923048 6 22.3923048 18 12 24 1.60769515 18 1.60769515 6"></polygon>
                <g id="编组-12" transform="translate(3.600000, 3.600000)" fill-rule="nonzero">
                    <path d="M14.0120458,14.06 C13.6508295,14.06 13.3044277,13.9198245 13.0489961,13.6705 L10.7799512,11.45548 C10.7434746,11.4199618 10.6940601,11.4000107 10.6425395,11.4 L5.8374117,11.4 C5.78589109,11.4000107 5.73647659,11.4199618 5.7,11.45548 L3.43095511,13.6705 C3.17552353,13.9198245 2.82912174,14.06 2.46790536,14.06 L1.62241462,14.06 C0.869960328,14.06 0.259975603,13.4645387 0.259975603,12.73 L0.259975603,2.84999999 C0.259975603,2.11546128 0.869960328,1.52 1.62241462,1.52 L14.8575366,1.52 C15.6099909,1.52 16.2199756,2.11546128 16.2199756,2.84999999 L16.2199756,12.73 C16.2199756,13.4645387 15.6099909,14.06 14.8575366,14.06 L14.0120458,14.06 Z" id="形状" fill="#FFFFFF"></path>
                    <path d="M13.1322655,7.77709884 C13.2532376,7.28258148 13.2910991,6.10409512 13.2532376,5.57168743 C12.9835899,1.72339025 8.82713794,-0.165296875 5.87855957,0.622627643 C8.09853527,1.43289774 10.3563724,3.64025224 10.3729946,6.25468489 C10.3748415,6.5762669 10.3508317,6.89104809 10.3055827,7.2 L7.92215616,6.93573925 L9.46708934,8.82054019 L11.0110991,10.7063127 L13.0048293,9.36654954 L14.9985596,8.02872949 L13.1322655,7.77709884 Z M2.97903276,4.43178541 C2.85948528,4.91677637 2.80177271,6.08402643 2.82320881,6.61135786 C2.98068169,10.4296994 6.6503769,12.4081545 9.29855957,11.7066498 C7.33385867,10.8444436 5.36668437,8.60039815 5.40790764,6.01185515 C5.4136789,5.69333927 5.44171072,5.38155937 5.48870524,5.07844002 L7.61005456,5.39984276 L6.27277178,3.49452114 L4.935489,1.58631268 L3.12743652,2.85845166 L1.31855957,4.1325152 L2.97903276,4.43178541 Z" id="形状" fill="#569FCB"></path>
                </g>
            </g>
        </g>
    </g>
</svg>