<?xml version="1.0" encoding="UTF-8"?>
<svg width="24px" height="24px" viewBox="0 0 24 24" version="1.1" xmlns="http://www.w3.org/2000/svg" xmlns:xlink="http://www.w3.org/1999/xlink">
    <!-- Generator: Sketch 61.2 (89653) - https://sketch.com -->
    <desc>Created with Sketch.</desc>
    <g id="第一版客户端" stroke="none" stroke-width="1" fill="none" fill-rule="evenodd">
        <g id="游戏介绍-独享" transform="translate(-985.000000, -500.000000)">
            <g id="编组-15" transform="translate(985.000000, 500.000000)">
                <rect id="矩形" x="0" y="0" width="24" height="24"></rect>
                <path d="M12.0269817,20 C11.7940656,20 11.5343255,19.9133275 11.1602997,19.7090675 C4.91784646,16.3093343 4.93843677,14.4468878 5.01513094,7.51787275 C5.02287592,6.82890924 5.03099871,6.09375718 5.03345443,5.30616 C6.05123082,5.01048922 7.07829373,4.74604749 8.1131226,4.5132263 C9.29111504,4.24640015 10.6013388,4.07397526 12.0067692,4 C14.6804871,4.29240465 16.7313954,4.67810645 18.9528821,5.30965635 C18.956849,6.19975158 18.9687499,7.02194415 18.9789505,7.78359479 C19.0754794,14.7481253 19.0990922,16.4031835 12.8936638,19.7156921 C12.5256828,19.9124074 12.2581977,20 12.0269817,20 Z" id="形状" stroke="#FFFFFF" stroke-width="1.2" fill-rule="nonzero"></path>
                <polyline id="路径-3" stroke="#FFFFFF" stroke-width="1.2" points="9 11 12 14 16 8"></polyline>
            </g>
        </g>
    </g>
</svg>