<?xml version="1.0" encoding="UTF-8"?>
<svg width="36px" height="36px" viewBox="0 0 36 36" version="1.1" xmlns="http://www.w3.org/2000/svg" xmlns:xlink="http://www.w3.org/1999/xlink">
    <!-- Generator: Sketch 59.1 (86144) - https://sketch.com -->
    <desc>Created with Sketch.</desc>
    <g id="第一版客户端" stroke="none" stroke-width="1" fill="none" fill-rule="evenodd">
        <g id="图标切图" transform="translate(-501.000000, -575.000000)">
            <g id="编组-15" transform="translate(501.000000, 575.000000)">
                <g id="编组-14" fill="#FF0036">
                    <circle id="椭圆形备份-2" cx="18" cy="18" r="18"></circle>
                    <polygon id="矩形" transform="translate(18.000000, 13.504226) rotate(-45.000000) translate(-18.000000, -13.504226) " points="8.6494345 4.85479102 9.3505655 4.15366002 14.9484812 16.5550582 27.3505655 22.15366 26.6494345 22.854791 12.6873072 18.8169183"></polygon>
                </g>
                <g id="安全保障" transform="translate(8.000000, 6.000000)" fill="#FFFFFF" fill-rule="nonzero">
                    <path d="M10.0372893,23.3164959 C9.71120662,23.3164959 9.34757026,23.1919339 8.82393389,22.8983802 C0.0844958807,18.0124297 0.11332233,15.3358016 0.220694205,5.37771901 C0.231537187,4.38757026 0.242909091,3.33104131 0.246347102,2.19914048 C1.67123463,1.77421515 3.10912329,1.39417086 4.55788429,1.05957026 C6.20707437,0.676099176 8.04138841,0.428297528 10.0089917,0.321983466 C13.7521984,0.742214858 16.6234711,1.29652892 19.7335537,2.20416528 C19.7391074,3.4833719 19.7557686,4.66499173 19.7700496,5.7596033 C19.9051901,15.7687273 19.9382479,18.1473058 11.2506446,22.9079008 C10.7354711,23.1906116 10.3609917,23.3164959 10.0372893,23.3164959 Z" id="形状"></path>
                </g>
            </g>
        </g>
    </g>
</svg>