<?xml version="1.0" encoding="UTF-8"?>
<svg width="92px" height="24px" viewBox="0 0 92 24" version="1.1" xmlns="http://www.w3.org/2000/svg" xmlns:xlink="http://www.w3.org/1999/xlink">
    <!-- Generator: Sketch 63.1 (92452) - https://sketch.com -->
    <desc>Created with Sketch.</desc>
    <g id="第一版客户端" stroke="none" stroke-width="1" fill="none" fill-rule="evenodd">
        <g id="订单页备份" transform="translate(-960.000000, -238.000000)">
            <g id="编组-17" transform="translate(960.000000, 238.000000)">
                <g id="编组" fill="#FF0036" fill-rule="nonzero">
                    <g id="编组-2">
                        <path d="M11.9688312,0 C18.5790341,0 23.9376623,5.35862824 23.9376623,11.9688312 C23.9376623,18.0079485 19.4649498,23.0024079 13.6514141,23.8203201 L13.6515903,20.406922 C17.597027,19.6245114 20.5714286,16.1440256 20.5714286,11.9688312 C20.5714286,7.21774781 16.7199145,3.36623377 11.9688312,3.36623377 C7.21774781,3.36623377 3.36623377,7.21774781 3.36623377,11.9688312 C3.36623377,16.1437906 6.34030044,19.6241195 10.2854057,20.4067898 L10.2852493,23.8201795 C4.47220016,23.0018358 0,18.0076026 0,11.9688312 C0,5.35862824 5.35862824,0 11.9688312,0 Z" id="形状结合"></path>
                    </g>
                    <path d="M17.7662338,11.9688312 C17.7662338,15.1706482 15.1706482,17.7662338 11.9688312,17.7662338 C8.76701413,17.7662338 6.17142857,15.1706482 6.17142857,11.9688312 C6.17142857,9.3524809 7.90457037,7.14092759 10.285403,6.41962219 L10.2858007,10.2144064 C9.82469953,10.6568581 9.53766234,11.279324 9.53766234,11.9688312 C9.53766234,13.3115286 10.6261337,14.4 11.9688312,14.4 C13.3115286,14.4 14.4,13.3115286 14.4,11.9688312 C14.4,11.2797487 14.1133163,10.6576248 13.6527134,10.2152241 L13.6522593,6.41962219 C16.033092,7.14092759 17.7662338,9.3524809 17.7662338,11.9688312 Z" id="形状结合" transform="translate(11.968831, 12.092928) rotate(-360.000000) translate(-11.968831, -12.092928) "></path>
                </g>
                <text id="ONEKEYFUN备份-16" font-family="Anton-Regular, Anton" font-size="16" font-weight="normal" fill="#FFFFFF">
                    <tspan x="26.6666667" y="18.6666667">ONEKEYFUN</tspan>
                </text>
            </g>
        </g>
    </g>
</svg>