<?xml version="1.0" encoding="UTF-8"?>
<svg width="14px" height="14px" viewBox="0 0 14 14" version="1.1" xmlns="http://www.w3.org/2000/svg" xmlns:xlink="http://www.w3.org/1999/xlink">
    <!-- Generator: Sketch 61.2 (89653) - https://sketch.com -->
    <desc>Created with Sketch.</desc>
    <g id="第一版客户端" stroke="none" stroke-width="1" fill="none" fill-rule="evenodd">
        <g id="游戏配置" transform="translate(-230.000000, -89.000000)" fill="#FFFFFF" fill-rule="nonzero">
            <path d="M244,96 C244,99.8674984 240.861375,103 236.988625,103 C233.853925,103.002623 231.098858,100.922924 230.242375,97.907499 L232.9295,99.0169987 C233.134136,100.033521 234.087159,100.72092 235.116317,100.594311 C236.145474,100.467702 236.903471,99.5698098 236.855625,98.5339988 L239.240875,96.8356243 C239.951377,96.8511371 240.638253,96.5801895 241.146826,96.0837956 C241.6554,95.5874017 241.942914,94.9072943 241.944625,94.1966251 C241.918397,92.7547547 240.742047,91.599608 239.299937,91.599608 C237.857828,91.599608 236.681478,92.7547547 236.65525,94.1966251 L236.65525,94.2298751 L234.984,96.6492494 C234.5465,96.6229994 234.11775,96.7454994 233.75725,96.9904993 L230,95.4382497 C230.296359,91.7991451 233.337473,88.9975289 236.988625,89 C240.861375,89 244,92.1325007 244,96 Z M234.395125,99.6216235 L233.534125,99.2654986 C233.691625,99.5944985 233.9655,99.8534984 234.3015,99.9943734 C235.060928,100.309276 235.931987,99.9504434 236.24925,99.1919986 C236.480607,98.6436155 236.361943,98.0100576 235.947807,97.5825746 C235.53367,97.1550917 234.904194,97.016397 234.34875,97.2302492 L235.23775,97.5977491 C235.773311,97.8451939 236.017346,98.4718314 235.790187,99.0163065 C235.563028,99.5607815 234.945996,99.828176 234.393375,99.6216235 L234.395125,99.6216235 Z M239.300375,95.9553746 C238.329017,95.9544135 237.54141,95.1679802 237.539,94.1966251 C237.539,93.2280004 238.329125,92.4378756 239.300375,92.4378756 C240.271625,92.4378756 241.06175,93.2280004 241.06175,94.1966251 C241.06175,95.1643748 240.27425,95.9553746 239.300375,95.9553746 Z M239.303,95.5143747 C240.032706,95.5143747 240.62425,94.9228311 240.62425,94.1931251 C240.62425,93.4634191 240.032706,92.8718755 239.303,92.8718755 C238.572375,92.8718755 237.979125,93.4651253 237.979125,94.1931251 C237.982625,94.9219999 238.575,95.5143747 239.303,95.5143747 Z" id="Shape"></path>
        </g>
    </g>
</svg>