<?xml version="1.0" encoding="UTF-8"?>
<svg width="288px" height="43px" viewBox="0 0 288 43" version="1.1" xmlns="http://www.w3.org/2000/svg" xmlns:xlink="http://www.w3.org/1999/xlink">
    <!-- Generator: Sketch 59.1 (86144) - https://sketch.com -->
    <desc>Created with Sketch.</desc>
    <g id="第一版客户端" stroke="none" stroke-width="1" fill="none" fill-rule="evenodd">
        <g id="图标切图" transform="translate(-327.000000, -497.000000)">
            <g id="编组-18" transform="translate(327.000000, 497.000000)">
                <rect id="矩形" fill="#FF0036" opacity="0.400000006" x="19" y="11" width="269" height="32" rx="2"></rect>
                <g id="编组-16" transform="translate(0.000000, 11.000000)">
                    <rect id="矩形" fill="#FF0036" transform="translate(21.500000, 16.000000) scale(-1, 1) translate(-21.500000, -16.000000) " x="6" y="0" width="31" height="32" rx="15.5"></rect>
                    <g id="编组-2" transform="translate(12.000000, 7.000000)" fill="#FFFFFF">
                        <path d="M7.39596737,0.64255253 L7.53353079,0.770771628 L9.948,3.186 L12.3638832,0.770771628 C13.3468963,-0.212241463 14.9141203,-0.254981163 15.9479344,0.64255253 L16.0854978,0.770771628 C17.0685109,1.75378472 17.1112506,3.3210088 16.2137169,4.35482284 L16.0854978,4.49238627 L15.822,4.755 L18.9473684,4.75554416 C19.5287208,4.75554416 20,5.22682337 20,5.80817574 L20,10.0187021 C20,10.6000544 19.5287208,11.0713336 18.9473684,11.0713336 L17.368,11.0705442 L17.3684211,17.3871231 C17.3684211,17.9684755 16.8971418,18.4397547 16.3157895,18.4397547 L3.68421053,18.4397547 C3.10285816,18.4397547 2.63157895,17.9684755 2.63157895,17.3871231 L2.631,11.0705442 L1.05263158,11.0713336 C0.471279211,11.0713336 2.93239737e-16,10.6000544 0,10.0187021 L0,5.80817574 C-7.11951317e-17,5.22682337 0.471279211,4.75554416 1.05263158,4.75554416 L4.074,4.755 L3.81191615,4.49238627 C2.82890306,3.50937317 2.78616336,1.9421491 3.68369705,0.90833505 L3.81191615,0.770771628 C4.79492924,-0.212241463 6.36215332,-0.254981163 7.39596737,0.64255253 Z M13.6842105,9.49238627 L6.31578947,9.49238627 L6.31578947,11.0713336 L13.6842105,11.0713336 L13.6842105,9.49238627 Z" id="形状结合"></path>
                    </g>
                    <g id="编组-49" transform="translate(0.000000, 2.000000)" fill="#FF0036">
                        <circle id="椭圆形" cx="1" cy="3" r="1"></circle>
                        <circle id="椭圆形" cx="9" cy="3" r="3"></circle>
                        <circle id="椭圆形" cx="2" cy="9" r="2"></circle>
                    </g>
                    <circle id="椭圆形" fill="#FF0036" cx="6" cy="18" r="2"></circle>
                </g>
                <polygon id="三角形" fill="#FF0036" opacity="0.400000006" points="225 0 234 11 216 11"></polygon>
            </g>
        </g>
    </g>
</svg>