<?xml version="1.0" encoding="UTF-8"?>
<svg width="42px" height="42px" viewBox="0 0 42 42" version="1.1" xmlns="http://www.w3.org/2000/svg" xmlns:xlink="http://www.w3.org/1999/xlink">
    <!-- Generator: Sketch 61.2 (89653) - https://sketch.com -->
    <desc>Created with Sketch.</desc>
    <defs>
        <circle id="path-1" cx="20" cy="20" r="20"></circle>
    </defs>
    <g id="第一版客户端" stroke="none" stroke-width="1" fill="none" fill-rule="evenodd">
        <g id="图标切图" transform="translate(-201.000000, -201.000000)">
            <g id="编组-19备份" transform="translate(202.000000, 202.000000)">
                <g id="编组-11">
                    <mask id="mask-2" fill="white">
                        <use xlink:href="#path-1"></use>
                    </mask>
                    <use id="椭圆形" stroke="#383B47" fill="#0E0E0E" xlink:href="#path-1"></use>
                </g>
                <path d="M20,6 L28,6 L28,6 L28,14 C28,18.418278 24.418278,22 20,22 C15.581722,22 12,18.418278 12,14 C12,9.581722 15.581722,6 20,6 Z" id="矩形" fill="#292B33"></path>
                <path d="M20,24 C25.5228475,24 30,28.4771525 30,34 L30.0006332,34.3239898 C27.0587565,36.0259174 23.6431328,37 20,37 C16.3568672,37 12.9412435,36.0259174 9.99936676,34.3239898 L10,34 C10,28.4771525 14.4771525,24 20,24 Z" id="形状结合" fill="#292B33"></path>
            </g>
        </g>
    </g>
</svg>