<?xml version="1.0" encoding="UTF-8"?>
<svg width="24px" height="22px" viewBox="0 0 24 22" version="1.1" xmlns="http://www.w3.org/2000/svg" xmlns:xlink="http://www.w3.org/1999/xlink">
    <g id="试玩vip需求" stroke="none" stroke-width="1" fill="none" fill-rule="evenodd">
        <g id="画板" transform="translate(-1230.000000, -242.000000)" fill="#FFBD3C">
            <g id="VIP-(5)" transform="translate(1230.000000, 242.000000)">
                <path d="M16.7272727,12.8250919 L16.7272727,22 L18.7187621,22 L18.7187621,18.6683144 C21.901812,18.7140276 23.5155573,18.576888 23.9627396,15.9470345 C24.1043937,15.1779772 23.8210856,14.3148044 23.4683392,13.8415383 C22.4184327,12.4647643 19.2603805,12.8062688 16.7272727,12.8250919 L16.7272727,12.8250919 Z M18.9090909,17.0073891 L18.9090909,14.2284889 C20.5101434,14.1810102 22.2044902,14.0162312 22.4843735,15.2171629 C22.9448265,17.2252326 20.7087702,17.0548679 18.9090909,17.0073891 Z M13.0909091,12.8201603 C13.1152529,15.8728964 13.1152529,18.9472639 13.1426398,22 L15.2727273,22 L15.2727273,12.7741935 C14.5545835,12.8012328 13.8333967,12.8012328 13.0909091,12.8201603 Z M16.6802784,0 C13.6037123,3.05002513 10.5354988,6.07792862 7.43665892,9.13348417 L7.43665892,0 L0,0 C0.022273783,0.605580692 0.022273783,1.23328305 0.0473317786,1.84162897 L1.85429233,1.84162897 L1.85429233,22 C9.24361947,14.6556058 16.6106729,7.33886377 24,0 L16.6802784,0 Z" id="形状"></path>
            </g>
        </g>
    </g>
</svg>