<?xml version="1.0" encoding="UTF-8"?>
<svg width="24px" height="22px" viewBox="0 0 24 22" version="1.1" xmlns="http://www.w3.org/2000/svg" xmlns:xlink="http://www.w3.org/1999/xlink">
    <g id="试玩vip需求" stroke="none" stroke-width="1" fill="none" fill-rule="evenodd" opacity="0.6">
        <g id="小抽屉" transform="translate(-503.000000, -38.000000)" fill="#FFE05B">
            <g id="编组-4" transform="translate(473.000000, 3.000000)">
                <path d="M46.7272727,47.8250919 L46.7272727,57 L48.7187621,57 L48.7187621,53.6683144 C51.901812,53.7140276 53.5155573,53.576888 53.9627396,50.9470345 C54.1043937,50.1779772 53.8210856,49.3148044 53.4683392,48.8415383 C52.4184327,47.4647643 49.2603805,47.8062688 46.7272727,47.8250919 L46.7272727,47.8250919 Z M48.9090909,52.0073891 L48.9090909,49.2284889 C50.5101434,49.1810102 52.2044902,49.0162312 52.4843735,50.2171629 C52.9448265,52.2252326 50.7087702,52.0548679 48.9090909,52.0073891 Z M43.0909091,47.8201603 C43.1152529,50.8728964 43.1152529,53.9472639 43.1426398,57 L45.2727273,57 L45.2727273,47.7741935 C44.5545835,47.8012328 43.8333967,47.8012328 43.0909091,47.8201603 Z M46.6802784,35 C43.6037123,38.0500251 40.5354988,41.0779286 37.4366589,44.1334842 L37.4366589,35 L30,35 C30.0222738,35.6055807 30.0222738,36.2332831 30.0473318,36.841629 L31.8542923,36.841629 L31.8542923,57 C39.2436195,49.6556058 46.6106729,42.3388638 54,35 L46.6802784,35 Z" id="形状"></path>
            </g>
        </g>
    </g>
</svg>