<?xml version="1.0" encoding="UTF-8"?>
<svg width="128px" height="40px" viewBox="0 0 128 40" version="1.1" xmlns="http://www.w3.org/2000/svg" xmlns:xlink="http://www.w3.org/1999/xlink">
    <g id="国内" stroke="none" stroke-width="1" fill="none" fill-rule="evenodd">
        <g id="画板" transform="translate(-923.000000, -103.000000)">
            <g id="编组-12" transform="translate(923.000000, 103.000000)">
                <g id="Group-3">
                    <g id="支付方式-copy" transform="translate(0.000000, -0.000000)">
                        <g id="Group-2">
                            <g id="微信" transform="translate(36.000000, 9.000000)" fill="#FFFFFF" font-family="MicrosoftYaHei, Microsoft YaHei" font-size="14" font-weight="normal" line-spacing="22">
                                <g id="编组-9" transform="translate(20.000000, 0.000000)">
                                    <text id="微信">
                                        <tspan x="0" y="15">微信</tspan>
                                    </text>
                                </g>
                            </g>
                            <rect id="Rectangle-5" stroke="#569FCB" x="0.5" y="0.5" width="127" height="39" rx="2"></rect>
                        </g>
                    </g>
                </g>
                <g id="对勾" transform="translate(105.000000, 19.000000)">
                    <g>
                        <path d="M23,0 L23,18 C23,19.6568542 21.6568542,21 20,21 L0,21 L0,21 L23,0 Z" id="Rectangle" fill="#569FCB"></path>
                        <path d="M21.694,9 C18.046,11.161066 15.4,13.8899189 14.206,15.2572422 L11.29,13.0498262 L10,14.0521437 L15.034,19 C15.898,16.8563152 18.646,12.6674392 22,9.68945539 L21.694,9 L21.694,9 Z" id="Shape" fill="#FFFFFF" fill-rule="nonzero"></path>
                    </g>
                </g>
                <path d="M34.369299,22.6271653 C34.2636157,22.6804183 34.1553989,22.7058346 34.0240293,22.7058346 C33.7302401,22.7058346 33.4905998,22.5484959 33.3565619,22.312488 L33.3024939,22.2085638 L31.1972923,17.6924608 C31.1715251,17.6392077 31.1715251,17.5885097 31.1715251,17.5352566 C31.1715251,17.3246649 31.3313033,17.1673263 31.5451764,17.1673263 C31.6250924,17.1673263 31.7049546,17.1927156 31.7848706,17.2459687 L34.2636157,18.9788453 C34.4491611,19.0827695 34.6630612,19.1614658 34.9026207,19.1614658 C35.0366317,19.1614658 35.1681091,19.1360495 35.30212,19.0827695 L46.9257945,13.9908609 C44.846387,11.575538 41.4089189,10 37.5155115,10 C31.1715251,10 26,14.226842 26,19.4482255 C26,22.2821499 27.5460588,24.8546769 29.9708168,26.5875536 C30.1562544,26.719476 30.2902653,26.9554839 30.2902653,27.1913574 C30.2902653,27.2700267 30.2644712,27.348696 30.2361974,27.4273654 C30.0507328,28.135201 29.7286429,29.2921375 29.7286429,29.3429431 C29.7028218,29.4214779 29.6743862,29.5255635 29.6743862,29.6320696 C29.6743862,29.8426614 29.8341913,30 30.0480914,30 C30.1279536,30 30.2078696,29.9746107 30.2619646,29.9213307 L32.7665038,28.477742 C32.9520762,28.3736564 33.1659493,28.295014 33.3798494,28.295014 C33.4853978,28.295014 33.6194358,28.3204033 33.725119,28.3482671 C34.8974726,28.6883337 36.1781778,28.873536 37.4845424,28.873536 C43.8285558,28.873536 49,24.6466941 49,19.4253105 C49,17.8497725 48.5207733,16.3553782 47.6936624,15.0412644 L34.4491611,22.5738853 L34.369299,22.6271384 L34.369299,22.6271653 Z" id="路径" fill="#09BB07" fill-rule="nonzero"></path>
            </g>
        </g>
    </g>
</svg>