<?xml version="1.0" encoding="UTF-8"?>
<svg width="148px" height="42px" viewBox="0 0 148 42" version="1.1" xmlns="http://www.w3.org/2000/svg" xmlns:xlink="http://www.w3.org/1999/xlink">
    <g id="试玩vip需求" stroke="none" stroke-width="1" fill="none" fill-rule="evenodd">
        <g id="画板" transform="translate(-1626.000000, -424.000000)">
            <g id="编组-3备份-7" transform="translate(1626.000000, 424.000000)">
                <g id="编组-3备份-5">
                    <g id="编组-3备份-2">
                        <g id="编组-3备份">
                            <g id="微信备份-2">
                                <g id="编组-9">
                                    <g id="编组-5">
                                        <g id="编组-16" transform="translate(42.000000, 10.000000)" fill="#FFFFFF">
                                            <g id="编组-17">
                                                <g id="编组-26">
                                                    <path d="M8.35332724,13.4887388 C8.07354553,13.4849949 7.81802352,13.3291265 7.68666105,13.0820724 L7.61332778,12.9754058 L5.40666273,8.18207602 C5.39092088,8.12763563 5.39092088,8.06984986 5.40666273,8.01540947 C5.41023475,7.788628 5.59321428,7.60564847 5.81999575,7.60207645 C5.90535986,7.60308336 5.98864746,7.62853235 6.05999558,7.67540973 L8.62666037,9.52207505 C8.82033486,9.66195013 9.0544935,9.7345393 9.29332656,9.72874156 C9.43168295,9.72379149 9.56862227,9.69909751 9.69999291,9.65540827 L21.7733174,4.24874557 C19.2844568,1.48436326 15.7190984,-0.0648408716 12,0.00208200019 C5.3733294,0.00208200019 1.42108547e-14,4.48207872 1.42108547e-14,10.0020747 C0.0726918314,13.0370483 1.61694532,15.8470426 4.13999697,17.5354025 C4.36107513,17.6845061 4.49156808,17.9354541 4.48666339,18.2020687 C4.48666339,18.3020686 4.45333009,18.3687352 4.45333009,18.4420685 C4.24666357,19.1954013 3.93999713,20.3887338 3.90666382,20.4420671 C3.8665742,20.5399033 3.8418381,20.6433451 3.83333054,20.7487335 C3.83697084,20.9744033 4.02096439,21.1553999 4.24666357,21.1553999 C4.33080415,21.1524326 4.41304692,21.1295874 4.48666339,21.0887333 L7.11999481,19.5820677 C7.32410054,19.4691363 7.5533971,19.4095192 7.78666098,19.4087345 C7.90374444,19.410315 8.01933513,19.4352463 8.12666074,19.4820678 C9.38869755,19.8278823 10.6914332,20.0027763 12,20.0020674 C18.6066531,20.0020674 24,15.515404 24,10.0020747 C24.0033336,8.36098673 23.5258993,6.7548606 22.6266501,5.38207806 L8.79999357,13.3354056 L8.73332696,13.4087389 C8.61838208,13.4566599 8.48681552,13.4912827 8.35332724,13.4887388 Z" id="Shape" fill-rule="nonzero"></path>
                                                    <text id="微信" font-family="PingFangSC-Regular, PingFang SC" font-size="14" font-weight="normal" line-spacing="22">
                                                        <tspan x="37" y="15">微信</tspan>
                                                    </text>
                                                </g>
                                            </g>
                                        </g>
                                        <rect id="Rectangle-5备份-2" stroke="#454950" x="0.5" y="0.5" width="147" height="41" rx="2"></rect>
                                    </g>
                                </g>
                            </g>
                        </g>
                    </g>
                </g>
            </g>
        </g>
    </g>
</svg>