<?xml version="1.0" encoding="UTF-8"?>
<svg width="128px" height="40px" viewBox="0 0 128 40" version="1.1" xmlns="http://www.w3.org/2000/svg" xmlns:xlink="http://www.w3.org/1999/xlink">
    <g id="试玩vip需求" stroke="none" stroke-width="1" fill="none" fill-rule="evenodd">
        <g id="画板" transform="translate(-704.000000, -103.000000)">
            <g id="编组-3" transform="translate(704.000000, 103.000000)">
                <g id="微信备份-2">
                    <g id="编组-9">
                        <g id="编组-5">
                            <path d="M35.3533272,22.4887388 C35.0735455,22.4849949 34.8180235,22.3291265 34.686661,22.0820724 L34.6133278,21.9754058 L32.4066627,17.182076 C32.3909209,17.1276356 32.3909209,17.0698499 32.4066627,17.0154095 C32.4102347,16.788628 32.5932143,16.6056485 32.8199958,16.6020764 C32.9053599,16.6030834 32.9886475,16.6285323 33.0599956,16.6754097 L35.6266604,18.5220751 C35.8203349,18.6619501 36.0544935,18.7345393 36.2933266,18.7287416 C36.431683,18.7237915 36.5686223,18.6990975 36.6999929,18.6554083 L48.7733174,13.2487456 C46.2844568,10.4843633 42.7190984,8.93515913 39,9.002082 C32.3733294,9.002082 27,13.4820787 27,19.0020747 C27.0726918,22.0370483 28.6169453,24.8470426 31.139997,26.5354025 C31.3610751,26.6845061 31.4915681,26.9354541 31.4866634,27.2020687 C31.4866634,27.3020686 31.4533301,27.3687352 31.4533301,27.4420685 C31.2466636,28.1954013 30.9399971,29.3887338 30.9066638,29.4420671 C30.8665742,29.5399033 30.8418381,29.6433451 30.8333305,29.7487335 C30.8369708,29.9744033 31.0209644,30.1553999 31.2466636,30.1553999 C31.3308041,30.1524326 31.4130469,30.1295874 31.4866634,30.0887333 L34.1199948,28.5820677 C34.3241005,28.4691363 34.5533971,28.4095192 34.786661,28.4087345 C34.9037444,28.410315 35.0193351,28.4352463 35.1266607,28.4820678 C36.3886975,28.8278823 37.6914332,29.0027763 39,29.0020674 C45.6066531,29.0020674 51,24.515404 51,19.0020747 C51.0033336,17.3609867 50.5258993,15.7548606 49.6266501,14.3820781 L35.7999936,22.3354056 L35.733327,22.4087389 C35.6183821,22.4566599 35.4868155,22.4912827 35.3533272,22.4887388 Z" id="Shape" fill="#FFFFFF" fill-rule="nonzero"></path>
                            <text id="微信" font-family="PingFangSC-Regular, PingFang SC" font-size="14" font-weight="normal" line-spacing="22" fill="#FFFFFF">
                                <tspan x="64" y="24">微信</tspan>
                            </text>
                            <rect id="Rectangle-5备份-2" stroke-opacity="0.5" stroke="#F6DCAC" opacity="0.81" x="0.5" y="0.5" width="127" height="39" rx="2"></rect>
                        </g>
                    </g>
                </g>
            </g>
        </g>
    </g>
</svg>