<svg width="148" height="43" viewBox="0 0 148 43" fill="none" xmlns="http://www.w3.org/2000/svg">
<rect x="0.5" y="1.33691" width="147" height="41" rx="1.5" stroke="#282438"/>
<g opacity="0.6">
<g clip-path="url(#clip0_3438_8116)">
<path d="M46.7455 23.2641C46.4191 23.2602 46.121 23.0981 45.9678 22.8412L45.8822 22.7302L43.3078 17.7456C43.2894 17.6889 43.2894 17.6288 43.3078 17.5722C43.3119 17.3364 43.5254 17.1461 43.79 17.1424C43.8896 17.1434 43.9868 17.1699 44.07 17.2187L47.0644 19.139C47.2904 19.2845 47.5636 19.36 47.8422 19.354C48.0036 19.3488 48.1634 19.3231 48.3167 19.2777L62.4022 13.6552C59.4985 10.7804 55.3389 9.16939 51 9.23898C43.2689 9.23898 37 13.8978 37 19.6382C37.0848 22.7944 38.8864 25.7165 41.83 27.4723C42.0879 27.6274 42.2402 27.8883 42.2344 28.1656C42.2344 28.2696 42.1956 28.3389 42.1956 28.4152C41.9544 29.1986 41.5967 30.4395 41.5578 30.495C41.511 30.5967 41.4821 30.7043 41.4722 30.8139C41.4765 31.0486 41.6911 31.2368 41.9544 31.2368C42.0526 31.2337 42.1486 31.21 42.2344 31.1675L45.3067 29.6007C45.5448 29.4832 45.8123 29.4212 46.0844 29.4204C46.221 29.4221 46.3559 29.448 46.4811 29.4967C47.9535 29.8563 49.4733 30.0382 51 30.0374C58.7078 30.0374 65 25.3717 65 19.6382C65.0039 17.9316 64.4469 16.2614 63.3978 14.8338L47.2667 23.1046L47.1889 23.1809C47.0548 23.2307 46.9013 23.2667 46.7455 23.2641Z" fill="white"/>
<path d="M83.5 17.5489H84.872C84.83 19.3689 84.606 20.9789 84.186 22.3649C83.808 21.2729 83.5 19.9849 83.262 18.5289C83.346 18.2209 83.416 17.8989 83.5 17.5489ZM83.78 23.4849C83.276 24.6609 82.59 25.6129 81.722 26.3549L82.254 27.1949C83.038 26.4949 83.71 25.6269 84.242 24.5909C84.718 25.6549 85.292 26.5089 85.95 27.1529L86.524 26.2989C85.81 25.6549 85.194 24.7589 84.676 23.6109C85.334 21.9449 85.684 19.9289 85.74 17.5489H86.3V16.6109H83.682C83.794 15.9529 83.906 15.2529 84.004 14.4969L83.122 14.3429C82.828 17.1569 82.268 19.3969 81.456 21.0629L82.016 21.7629C82.296 21.2309 82.562 20.6429 82.814 19.9709C83.08 21.2869 83.402 22.4629 83.78 23.4849ZM80.252 26.3829C80.98 25.9069 81.708 25.2909 82.422 24.5349L82.212 23.6809C81.792 24.1009 81.386 24.4789 80.994 24.8289V21.6929H77.676V23.2329C77.662 24.6609 77.284 25.7529 76.542 26.5089L77.284 27.1529C78.138 26.2849 78.586 24.9829 78.614 23.2329V22.6029H80.098V25.1509C80.07 25.3189 79.972 25.4589 79.832 25.5429L80.252 26.3829ZM79.02 14.3989V17.5769H78.04V15.1549H77.2V18.4449H81.68V15.1549H80.854V17.5769H79.874V14.3989H79.02ZM75.814 14.4409C75.324 15.7289 74.54 16.8629 73.476 17.8569L73.784 18.8369C75.114 17.6749 76.08 16.3449 76.682 14.8469L75.814 14.4409ZM75.898 18.1929C75.408 19.5649 74.624 20.7689 73.532 21.8329L73.826 22.7989C74.288 22.3789 74.708 21.9449 75.086 21.4829V27.2649H76.024V20.1249C76.304 19.6489 76.542 19.1309 76.738 18.5989L75.898 18.1929ZM77.172 19.6909V20.5869H81.54V19.6909H77.172ZM89.156 19.3969V27.2649H90.15V17.7449C90.64 16.7929 91.046 15.7849 91.382 14.7069L90.444 14.2729C89.814 16.4569 88.82 18.4029 87.448 20.0969L87.77 21.1749C88.274 20.6149 88.736 20.0129 89.156 19.3969ZM91.326 16.2469V17.1989H100.44V16.2469H96.03L96.562 16.0509C96.394 15.5329 96.17 14.9729 95.876 14.3569L94.91 14.6229C95.19 15.1549 95.428 15.6869 95.638 16.2469H91.326ZM92.614 18.3329V19.2429H99.236V18.3329H92.614ZM92.614 20.3069V21.2309H99.236V20.3069H92.614ZM99.488 22.3789H92.348V27.2369H93.328V26.4809H98.508V27.2369H99.488V22.3789ZM93.328 25.5289V23.3169H98.508V25.5289H93.328Z" fill="white"/>
</g>
</g>
<defs>
<clipPath id="clip0_3438_8116">
<rect width="65" height="23" fill="white" transform="translate(36.2812 9.23682)"/>
</clipPath>
</defs>
</svg>
