<svg width="149" height="42" viewBox="0 0 149 42" fill="none" xmlns="http://www.w3.org/2000/svg">
<path d="M47.5941 23.1632C47.2706 23.1592 46.9751 22.9956 46.8232 22.7362L46.7385 22.6242L44.187 17.5912C44.1688 17.534 44.1688 17.4733 44.187 17.4162C44.1911 17.1781 44.4027 16.9859 44.6649 16.9822C44.7636 16.9832 44.8599 17.01 44.9424 17.0592L47.9101 18.9982C48.1341 19.145 48.4048 19.2213 48.681 19.2152C48.8409 19.21 48.9993 19.1841 49.1512 19.1382L63.1109 13.4612C60.2332 10.5586 56.1108 8.93192 51.8105 9.00219C44.1485 9.00219 37.9355 13.7062 37.9355 19.5022C38.0196 22.6889 39.8051 25.6394 42.7224 27.4122C42.978 27.5687 43.1289 27.8322 43.1233 28.1122C43.1233 28.2172 43.0847 28.2872 43.0847 28.3642C42.8458 29.1552 42.4912 30.4082 42.4526 30.4642C42.4063 30.5669 42.3777 30.6755 42.3678 30.7862C42.372 31.0231 42.5848 31.2132 42.8458 31.2132C42.943 31.2101 43.0381 31.1861 43.1233 31.1432L46.168 29.5612C46.404 29.4426 46.6692 29.38 46.9389 29.3792C47.0743 29.3808 47.2079 29.407 47.332 29.4562C48.7912 29.8193 50.2975 30.0029 51.8105 30.0022C59.4495 30.0022 65.6855 25.2912 65.6855 19.5022C65.6894 17.779 65.1374 16.0926 64.0976 14.6512L48.1105 23.0022L48.0335 23.0792C47.9006 23.1295 47.7484 23.1658 47.5941 23.1632Z" fill="#B5B5B5"/>
<path d="M79.3809 13.3994L80.3105 13.5635C80.1647 14.4066 79.9938 15.2087 79.7979 15.9697H82.7441V16.9541H82.0879C81.8965 19.5654 81.4567 21.6322 80.7686 23.1543C81.2926 24.1706 81.9785 25.0387 82.8262 25.7588C82.6257 26.1143 82.4342 26.4652 82.252 26.8115C81.4453 26.0322 80.7777 25.1481 80.249 24.1592C79.7021 25.1117 78.998 26.0277 78.1367 26.9072C77.9544 26.6429 77.7311 26.3558 77.4668 26.0459C78.4603 25.1071 79.2259 24.1273 79.7637 23.1064C79.2533 21.8395 78.9434 20.4199 78.834 18.8477C78.6882 19.1986 78.5332 19.5381 78.3691 19.8662C78.1868 19.6292 77.9681 19.3923 77.7129 19.1553C78.515 17.5967 79.071 15.6781 79.3809 13.3994ZM72.9004 17.9932V14.6436H73.7754V17.0635H74.8965V13.5908H75.7988V17.0635H76.9199V14.6299H77.7949V18.4307H76.9199V17.9932H72.9004ZM76.0586 22.3545H74.2539V22.9834C74.2539 24.624 73.7936 25.7907 72.873 26.4834C72.7181 26.2282 72.513 25.9365 72.2578 25.6084C72.9779 25.1344 73.3379 24.223 73.3379 22.874V21.4248H76.9746V23.8037C77.3939 23.4391 77.8724 23.0107 78.4102 22.5186C78.4922 22.9196 78.5697 23.2705 78.6426 23.5713C78.1413 23.9723 77.5716 24.4645 76.9336 25.0479C76.7331 25.2393 76.5508 25.4215 76.3867 25.5947L75.6895 24.7197C75.9355 24.4736 76.0586 24.1455 76.0586 23.7354V22.3545ZM69.1133 21.4385C70.1432 20.2354 71.0182 18.818 71.7383 17.1865L72.6406 17.6104C72.3034 18.3213 71.9525 18.9867 71.5879 19.6064V26.7842H70.6582V21.042C70.2754 21.5843 69.8789 22.0811 69.4688 22.5322C69.3594 22.1676 69.2409 21.8031 69.1133 21.4385ZM81.1582 16.9541H79.5176L79.4766 17.084C79.4902 18.9525 79.7523 20.5885 80.2627 21.9922C80.6637 20.862 80.9622 19.1826 81.1582 16.9541ZM69.1816 17.0361C70.3301 15.8695 71.1914 14.68 71.7656 13.4678L72.6133 13.9463C71.8112 15.4867 70.7767 16.8721 69.5098 18.1025C69.4095 17.7471 69.3001 17.3916 69.1816 17.0361ZM73.1738 19.21H77.5215V20.167H73.1738V19.21ZM87.9668 21.8623H95.7461V26.8662H94.6934V26.0459H89.0195V26.8662H87.9668V21.8623ZM83.1133 19.9619C84.4531 17.9749 85.4603 15.7783 86.1348 13.3721L87.2012 13.6729C86.8047 14.8988 86.3717 16.029 85.9023 17.0635V26.8662H84.8906V19.0664C84.4714 19.8001 84.0293 20.4723 83.5645 21.083C83.4186 20.7002 83.2682 20.3265 83.1133 19.9619ZM94.6934 22.792H89.0195V25.1162H94.6934V22.792ZM87.0645 15.2178H91.5283C91.2549 14.7484 90.9701 14.2835 90.6738 13.8232L91.5898 13.3447C91.918 13.8369 92.2415 14.3564 92.5605 14.9033L91.9658 15.2178H96.6895V16.1748H87.0645V15.2178ZM87.8164 17.4463H95.8828V18.376H87.8164V17.4463ZM87.8164 19.6475H95.8828V20.5771H87.8164V19.6475Z" fill="#B5B5B5"/>
<rect x="1.93555" y="1" width="146" height="40" rx="1" stroke="#B5B5B5" stroke-width="2"/>
</svg>
