<svg width="148" height="42" viewBox="0 0 148 42" fill="none" xmlns="http://www.w3.org/2000/svg">
<g clip-path="url(#clip0_3438_8085)">
<path d="M46.7455 22.4272C46.4191 22.4233 46.121 22.2612 45.9678 22.0043L45.8822 21.8933L43.3078 16.9086C43.2894 16.852 43.2894 16.7919 43.3078 16.7353C43.3119 16.4995 43.5254 16.3092 43.79 16.3055C43.8896 16.3065 43.9868 16.333 44.07 16.3817L47.0644 18.3021C47.2904 18.4476 47.5636 18.5231 47.8422 18.5171C48.0036 18.5119 48.1634 18.4862 48.3167 18.4408L62.4022 12.8183C59.4985 9.94353 55.3389 8.33247 51 8.40207C43.2689 8.40207 37 13.0609 37 18.8013C37.0848 21.9574 38.8864 24.8796 41.83 26.6354C42.0879 26.7904 42.2402 27.0514 42.2344 27.3287C42.2344 27.4327 42.1956 27.502 42.1956 27.5782C41.9544 28.3617 41.5967 29.6026 41.5578 29.6581C41.511 29.7598 41.4821 29.8674 41.4722 29.977C41.4765 30.2117 41.6911 30.3999 41.9544 30.3999C42.0526 30.3968 42.1486 30.3731 42.2344 30.3306L45.3067 28.7638C45.5448 28.6463 45.8123 28.5843 46.0844 28.5835C46.221 28.5851 46.3559 28.6111 46.4811 28.6598C47.9535 29.0194 49.4733 29.2013 51 29.2005C58.7078 29.2005 65 24.5347 65 18.8013C65.0039 17.0947 64.4469 15.4244 63.3978 13.9969L47.2667 22.2677L47.1889 22.344C47.0548 22.3938 46.9013 22.4298 46.7455 22.4272Z" fill="white"/>
<path d="M83.5 16.712H84.872C84.83 18.532 84.606 20.142 84.186 21.528C83.808 20.436 83.5 19.148 83.262 17.692C83.346 17.384 83.416 17.062 83.5 16.712ZM83.78 22.648C83.276 23.824 82.59 24.776 81.722 25.518L82.254 26.358C83.038 25.658 83.71 24.79 84.242 23.754C84.718 24.818 85.292 25.672 85.95 26.316L86.524 25.462C85.81 24.818 85.194 23.922 84.676 22.774C85.334 21.108 85.684 19.092 85.74 16.712H86.3V15.774H83.682C83.794 15.116 83.906 14.416 84.004 13.66L83.122 13.506C82.828 16.32 82.268 18.56 81.456 20.226L82.016 20.926C82.296 20.394 82.562 19.806 82.814 19.134C83.08 20.45 83.402 21.626 83.78 22.648ZM80.252 25.546C80.98 25.07 81.708 24.454 82.422 23.698L82.212 22.844C81.792 23.264 81.386 23.642 80.994 23.992V20.856H77.676V22.396C77.662 23.824 77.284 24.916 76.542 25.672L77.284 26.316C78.138 25.448 78.586 24.146 78.614 22.396V21.766H80.098V24.314C80.07 24.482 79.972 24.622 79.832 24.706L80.252 25.546ZM79.02 13.562V16.74H78.04V14.318H77.2V17.608H81.68V14.318H80.854V16.74H79.874V13.562H79.02ZM75.814 13.604C75.324 14.892 74.54 16.026 73.476 17.02L73.784 18C75.114 16.838 76.08 15.508 76.682 14.01L75.814 13.604ZM75.898 17.356C75.408 18.728 74.624 19.932 73.532 20.996L73.826 21.962C74.288 21.542 74.708 21.108 75.086 20.646V26.428H76.024V19.288C76.304 18.812 76.542 18.294 76.738 17.762L75.898 17.356ZM77.172 18.854V19.75H81.54V18.854H77.172ZM89.156 18.56V26.428H90.15V16.908C90.64 15.956 91.046 14.948 91.382 13.87L90.444 13.436C89.814 15.62 88.82 17.566 87.448 19.26L87.77 20.338C88.274 19.778 88.736 19.176 89.156 18.56ZM91.326 15.41V16.362H100.44V15.41H96.03L96.562 15.214C96.394 14.696 96.17 14.136 95.876 13.52L94.91 13.786C95.19 14.318 95.428 14.85 95.638 15.41H91.326ZM92.614 17.496V18.406H99.236V17.496H92.614ZM92.614 19.47V20.394H99.236V19.47H92.614ZM99.488 21.542H92.348V26.4H93.328V25.644H98.508V26.4H99.488V21.542ZM93.328 24.692V22.48H98.508V24.692H93.328Z" fill="white"/>
</g>
<rect x="0.5" y="0.5" width="147" height="41" rx="1.5" stroke="#F7A72E"/>
<path fill-rule="evenodd" clip-rule="evenodd" d="M148 21V39C148 40.6569 146.657 42 145 42H125L148 21Z" fill="#F7A72E"/>
<path d="M146.694 30C143.046 32.1611 140.4 34.8899 139.206 36.2572L136.29 34.0498L135 35.0521L140.034 40C140.898 37.8563 143.646 33.6674 147 30.6895L146.694 30V30Z" fill="#FFEBCC"/>
<defs>
<clipPath id="clip0_3438_8085">
<rect width="65" height="23" fill="white" transform="translate(36.2812 8.3999)"/>
</clipPath>
</defs>
</svg>
