<svg width="148" height="42" viewBox="0 0 148 42" fill="none" xmlns="http://www.w3.org/2000/svg">
<g clip-path="url(#clip0_3115_6287)">
<path d="M46.6585 23.1632C46.335 23.1592 46.0396 22.9956 45.8877 22.7362L45.8029 22.6242L43.2515 17.5912C43.2333 17.534 43.2333 17.4733 43.2515 17.4162C43.2556 17.1781 43.4672 16.9859 43.7294 16.9822C43.8281 16.9832 43.9244 17.01 44.0069 17.0592L46.9746 18.9982C47.1985 19.145 47.4693 19.2213 47.7454 19.2152C47.9054 19.21 48.0637 19.1841 48.2156 19.1382L62.1754 13.4612C59.2977 10.5586 55.1752 8.93192 50.875 9.00219C43.2129 9.00219 37 13.7062 37 19.5022C37.084 22.6889 38.8696 25.6394 41.7869 27.4122C42.0425 27.5687 42.1934 27.8322 42.1877 28.1122C42.1877 28.2172 42.1492 28.2872 42.1492 28.3642C41.9102 29.1552 41.5556 30.4082 41.5171 30.4642C41.4707 30.5669 41.4421 30.6755 41.4323 30.7862C41.4365 31.0231 41.6492 31.2132 41.9102 31.2132C42.0075 31.2101 42.1026 31.1861 42.1877 31.1432L45.2325 29.5612C45.4685 29.4426 45.7336 29.38 46.0033 29.3792C46.1387 29.3808 46.2724 29.407 46.3965 29.4562C47.8557 29.8193 49.362 30.0029 50.875 30.0022C58.5139 30.0022 64.75 25.2912 64.75 19.5022C64.7539 17.779 64.2018 16.0926 63.1621 14.6512L47.175 23.0022L47.0979 23.0792C46.965 23.1295 46.8129 23.1658 46.6585 23.1632Z" fill="white"/>
<path d="M78.5 17.712H79.872C79.83 19.532 79.606 21.142 79.186 22.528C78.808 21.436 78.5 20.148 78.262 18.692C78.346 18.384 78.416 18.062 78.5 17.712ZM78.78 23.648C78.276 24.824 77.59 25.776 76.722 26.518L77.254 27.358C78.038 26.658 78.71 25.79 79.242 24.754C79.718 25.818 80.292 26.672 80.95 27.316L81.524 26.462C80.81 25.818 80.194 24.922 79.676 23.774C80.334 22.108 80.684 20.092 80.74 17.712H81.3V16.774H78.682C78.794 16.116 78.906 15.416 79.004 14.66L78.122 14.506C77.828 17.32 77.268 19.56 76.456 21.226L77.016 21.926C77.296 21.394 77.562 20.806 77.814 20.134C78.08 21.45 78.402 22.626 78.78 23.648ZM75.252 26.546C75.98 26.07 76.708 25.454 77.422 24.698L77.212 23.844C76.792 24.264 76.386 24.642 75.994 24.992V21.856H72.676V23.396C72.662 24.824 72.284 25.916 71.542 26.672L72.284 27.316C73.138 26.448 73.586 25.146 73.614 23.396V22.766H75.098V25.314C75.07 25.482 74.972 25.622 74.832 25.706L75.252 26.546ZM74.02 14.562V17.74H73.04V15.318H72.2V18.608H76.68V15.318H75.854V17.74H74.874V14.562H74.02ZM70.814 14.604C70.324 15.892 69.54 17.026 68.476 18.02L68.784 19C70.114 17.838 71.08 16.508 71.682 15.01L70.814 14.604ZM70.898 18.356C70.408 19.728 69.624 20.932 68.532 21.996L68.826 22.962C69.288 22.542 69.708 22.108 70.086 21.646V27.428H71.024V20.288C71.304 19.812 71.542 19.294 71.738 18.762L70.898 18.356ZM72.172 19.854V20.75H76.54V19.854H72.172ZM84.156 19.56V27.428H85.15V17.908C85.64 16.956 86.046 15.948 86.382 14.87L85.444 14.436C84.814 16.62 83.82 18.566 82.448 20.26L82.77 21.338C83.274 20.778 83.736 20.176 84.156 19.56ZM86.326 16.41V17.362H95.44V16.41H91.03L91.562 16.214C91.394 15.696 91.17 15.136 90.876 14.52L89.91 14.786C90.19 15.318 90.428 15.85 90.638 16.41H86.326ZM87.614 18.496V19.406H94.236V18.496H87.614ZM87.614 20.47V21.394H94.236V20.47H87.614ZM94.488 22.542H87.348V27.4H88.328V26.644H93.508V27.4H94.488V22.542ZM88.328 25.692V23.48H93.508V25.692H88.328Z" fill="white"/>
</g>
<rect x="0.5" y="0.5" width="147" height="41" rx="1.5" stroke="#FFE6B3"/>
<path fill-rule="evenodd" clip-rule="evenodd" d="M148 20V39C148 40.6569 146.657 42 145 42H122L148 20Z" fill="#FFE6B2"/>
<defs>
<clipPath id="clip0_3115_6287">
<rect width="64" height="28" fill="white" transform="translate(36.2812 3.3999)"/>
</clipPath>
</defs>
</svg>
