<svg width="149" height="43" viewBox="0 0 149 43" fill="none" xmlns="http://www.w3.org/2000/svg">
<path d="M47.4085 23.607C47.085 23.6031 46.7896 23.4394 46.6377 23.18L46.5529 23.068L44.0015 18.035C43.9833 17.9779 43.9833 17.9172 44.0015 17.86C44.0056 17.6219 44.2172 17.4298 44.4794 17.426C44.5781 17.4271 44.6744 17.4538 44.7569 17.503L47.7246 19.442C47.9485 19.5889 48.2193 19.6651 48.4954 19.659C48.6554 19.6538 48.8137 19.6279 48.9656 19.582L62.9254 13.905C60.0477 11.0024 55.9252 9.37576 51.625 9.44603C43.9629 9.44603 37.75 14.15 37.75 19.946C37.834 23.1327 39.6196 26.0832 42.5369 27.856C42.7925 28.0126 42.9434 28.2761 42.9377 28.556C42.9377 28.661 42.8992 28.731 42.8992 28.808C42.6602 29.599 42.3056 30.852 42.2671 30.908C42.2207 31.0107 42.1921 31.1194 42.1823 31.23C42.1865 31.467 42.3992 31.657 42.6602 31.657C42.7575 31.6539 42.8526 31.6299 42.9377 31.587L45.9825 30.005C46.2185 29.8864 46.4836 29.8238 46.7533 29.823C46.8887 29.8247 47.0224 29.8509 47.1465 29.9C48.6057 30.2631 50.112 30.4468 51.625 30.446C59.2639 30.446 65.5 25.735 65.5 19.946C65.5039 18.2229 64.9518 16.5365 63.9121 15.095L47.925 23.446L47.8479 23.523C47.715 23.5733 47.5629 23.6097 47.4085 23.607Z" fill="#C74E38"/>
<path d="M79.1953 13.8433L80.125 14.0073C79.9792 14.8504 79.8083 15.6525 79.6123 16.4136H82.5586V17.3979H81.9023C81.7109 20.0093 81.2712 22.076 80.583 23.5981C81.1071 24.6144 81.793 25.4826 82.6406 26.2026C82.4401 26.5581 82.2487 26.909 82.0664 27.2554C81.2598 26.4761 80.5921 25.592 80.0635 24.603C79.5166 25.5555 78.8125 26.4715 77.9512 27.3511C77.7689 27.0868 77.5456 26.7996 77.2812 26.4897C78.2747 25.5509 79.0404 24.5711 79.5781 23.5503C79.0677 22.2834 78.7578 20.8638 78.6484 19.2915C78.5026 19.6424 78.3477 19.9819 78.1836 20.3101C78.0013 20.0731 77.7826 19.8361 77.5273 19.5991C78.3294 18.0405 78.8854 16.1219 79.1953 13.8433ZM72.7148 18.437V15.0874H73.5898V17.5073H74.7109V14.0347H75.6133V17.5073H76.7344V15.0737H77.6094V18.8745H76.7344V18.437H72.7148ZM75.873 22.7983H74.0684V23.4272C74.0684 25.0679 73.6081 26.2345 72.6875 26.9272C72.5326 26.672 72.3275 26.3804 72.0723 26.0522C72.7923 25.5783 73.1523 24.6668 73.1523 23.3179V21.8687H76.7891V24.2476C77.2083 23.883 77.6868 23.4546 78.2246 22.9624C78.3066 23.3634 78.3841 23.7144 78.457 24.0151C77.9557 24.4162 77.3861 24.9084 76.748 25.4917C76.5475 25.6831 76.3652 25.8654 76.2012 26.0386L75.5039 25.1636C75.75 24.9175 75.873 24.5894 75.873 24.1792V22.7983ZM68.9277 21.8823C69.9577 20.6792 70.8327 19.2619 71.5527 17.6304L72.4551 18.0542C72.1178 18.7651 71.7669 19.4305 71.4023 20.0503V27.228H70.4727V21.4858C70.0898 22.0282 69.6934 22.5249 69.2832 22.9761C69.1738 22.6115 69.0553 22.2469 68.9277 21.8823ZM80.9727 17.3979H79.332L79.291 17.5278C79.3047 19.3963 79.5667 21.0324 80.0771 22.436C80.4782 21.3058 80.7767 19.6265 80.9727 17.3979ZM68.9961 17.48C70.1445 16.3133 71.0059 15.1239 71.5801 13.9116L72.4277 14.3901C71.6257 15.9305 70.5911 17.3159 69.3242 18.5464C69.224 18.1909 69.1146 17.8354 68.9961 17.48ZM72.9883 19.6538H77.3359V20.6108H72.9883V19.6538ZM87.7812 22.3062H95.5605V27.3101H94.5078V26.4897H88.834V27.3101H87.7812V22.3062ZM82.9277 20.4058C84.2676 18.4188 85.2747 16.2222 85.9492 13.8159L87.0156 14.1167C86.6191 15.3426 86.1862 16.4728 85.7168 17.5073V27.3101H84.7051V19.5103C84.2858 20.244 83.8438 20.9162 83.3789 21.5269C83.2331 21.144 83.0827 20.7703 82.9277 20.4058ZM94.5078 23.2358H88.834V25.5601H94.5078V23.2358ZM86.8789 15.6616H91.3428C91.0693 15.1922 90.7845 14.7274 90.4883 14.2671L91.4043 13.7886C91.7324 14.2808 92.056 14.8003 92.375 15.3472L91.7803 15.6616H96.5039V16.6187H86.8789V15.6616ZM87.6309 17.8901H95.6973V18.8198H87.6309V17.8901ZM87.6309 20.0913H95.6973V21.021H87.6309V20.0913Z" fill="#C74E38"/>
<rect x="1.75" y="1.44385" width="146" height="40" rx="1" stroke="#C74E38" stroke-width="2"/>
<path fill-rule="evenodd" clip-rule="evenodd" d="M148.75 18.9438V37.9438C148.75 39.6007 147.407 40.9438 145.75 40.9438H122.75L148.75 18.9438Z" fill="#C74E38"/>
</svg>
