<svg xmlns="http://www.w3.org/2000/svg" xmlns:xlink="http://www.w3.org/1999/xlink" viewBox="0 0 148 42"><defs><style>.cls-1,.cls-5{fill:none;}.cls-2{opacity:0.6;}.cls-3{clip-path:url(#clip-path);}.cls-4{fill:#351d05;}.cls-5{stroke:#351d05;}</style><clipPath id="clip-path"><rect class="cls-1" x="42" y="3.4" width="64" height="28"/></clipPath></defs><g id="图层_2" data-name="图层 2"><g id="图层_1-2" data-name="图层 1"><g class="cls-2"><g class="cls-3"><path class="cls-4" d="M51.75,24A.92.92,0,0,1,51,23.6l-.09-.11-2.57-5a.25.25,0,0,1,0-.17.46.46,0,0,1,.48-.43.53.53,0,0,1,.28.07l3,1.92a1.42,1.42,0,0,0,.78.22,2,2,0,0,0,.48-.08L67.4,14.42A15.84,15.84,0,0,0,56,10c-7.73,0-14,4.66-14,10.4a9.51,9.51,0,0,0,4.83,7.84.77.77,0,0,1,.4.69c0,.1,0,.17,0,.25-.25.78-.6,2-.64,2.08a.9.9,0,0,0-.09.32A.46.46,0,0,0,47,32a.64.64,0,0,0,.28-.07l3.08-1.57a1.81,1.81,0,0,1,.77-.18,1.29,1.29,0,0,1,.4.08A19,19,0,0,0,56,30.8c7.71,0,14-4.67,14-10.4a8,8,0,0,0-1.6-4.8L52.27,23.87l-.08.07A1.33,1.33,0,0,1,51.75,24Z"/><path class="cls-4" d="M83.31,15.44h-.7V18H81.55V14.31h-.73V18H79.66V15.44H79v3.29h4.32Zm-5.75-1.13a10.79,10.79,0,0,1-2.39,2.79,4.48,4.48,0,0,1,.51.7,14.32,14.32,0,0,0,2.73-3.18Zm.31,2.76a14.84,14.84,0,0,1-2.86,4,5.48,5.48,0,0,1,.56.8,14.56,14.56,0,0,0,1.28-1.53V27h.85V19.11a17,17,0,0,0,1-1.76Zm5,7V21.56H79.31V23.2a4.56,4.56,0,0,1-1,3.21,2.67,2.67,0,0,1,.6.61,5.53,5.53,0,0,0,1.28-3.81v-.89h1.94V24c0,.55-.22.76-.38.85a3.3,3.3,0,0,1,.35.8,10.73,10.73,0,0,1,2.15-1.62,3.23,3.23,0,0,1-.26-.67ZM86.79,18a18,18,0,0,1-1.07,4.65,21.21,21.21,0,0,1-.91-4.06c.06-.2.11-.39.16-.59Zm1.3,0v-.81H85.15c.17-.88.31-1.81.42-2.76l-.87-.14a17.18,17.18,0,0,1-1.39,5.91v-.41H78.68v.81h4.63v-.11a5.6,5.6,0,0,1,.55.58,11.18,11.18,0,0,0,.49-1,20.25,20.25,0,0,0,.91,3.61,7.26,7.26,0,0,1-2.56,2.75,2.73,2.73,0,0,1,.53.68,8,8,0,0,0,2.42-2.5A6,6,0,0,0,87.57,27a3.38,3.38,0,0,1,.62-.73,5.6,5.6,0,0,1-2.06-2.56A18.29,18.29,0,0,0,87.6,18Zm10-1.89a9.82,9.82,0,0,0-1-1.82l-.79.32a14.11,14.11,0,0,1,1,1.86Zm-5.76-1.78A16,16,0,0,1,89.24,20a6.67,6.67,0,0,1,.53.86A16.75,16.75,0,0,0,91.14,19v8.15H92V17.43a20.71,20.71,0,0,0,1.2-2.83Zm7.73,9v2.34H94.72V23.38Zm-6.2,3.68h.82V26.5h5.38V27h.84V22.6h-7Zm.19-5.71h6.71v-.78H94.09Zm6.71-2.73H94.09v.77h6.71Zm-7.73-2v.8h8.85v-.8Z"/></g><rect class="cls-5" x="0.5" y="0.5" width="147" height="41" rx="1.5"/></g></g></g></svg>