<?xml version="1.0" encoding="UTF-8"?>
<svg width="148px" height="42px" viewBox="0 0 148 42" version="1.1" xmlns="http://www.w3.org/2000/svg" xmlns:xlink="http://www.w3.org/1999/xlink">
    <defs>
        <path d="M12,0 C18.627417,0 24,5.372583 24,12 C24,13.707062 23.6435545,15.3308716 23.0010315,16.801061 L23,16.6787082 C23,16.67862 22.3473687,16.5928386 19.3905425,15.5687575 C18.5645906,15.2686992 17.4618189,14.8400572 16.2270582,14.3728488 C17.0204341,12.906138 17.6310373,11.3407759 18.0442034,9.71435632 L13.9142737,9.71435632 L13.9142737,8.42860673 L18.8702404,8.42860673 L18.8702404,7.520048 L13.9142737,7.57149917 L13.9142737,5 L11.8741419,5 C11.5064946,5 11.4363329,5.42864203 11.4363329,5.42864203 L11.4363329,7.57149917 L6.48045128,7.57149917 L6.48045128,8.42860673 L11.4362479,8.42860673 L11.4362479,9.71435632 L7.30640321,9.71435632 L7.30640321,10.5713756 L15.5661776,10.5713756 C15.2312927,11.6486862 14.7926872,12.688252 14.2570029,13.6743309 C11.6676539,12.778657 8.88814537,12.050045 7.11233172,12.5214012 C6.24602065,12.7114392 5.45718688,13.173891 4.85321035,13.8458054 C2.92865391,16.2928686 4.3245739,20 8.38842405,20 C10.8086197,20 13.1502342,18.5899027 14.9591301,16.280072 C16.7632066,17.1990631 19.730361,18.5304815 21.5114764,19.317485 C19.3176581,22.1650904 15.8731121,24 12,24 C5.372583,24 0,18.627417 0,12 C0,5.372583 5.372583,0 12,0 Z M14.0588235,15.9112937 C12.4709096,17.716662 10.5274458,18.8461538 8.58827009,18.8461538 C5.22180315,18.8461538 4.2500266,16.4663026 5.9116412,15.1415074 C6.453415,14.6959004 7.11900013,14.3907165 7.83777415,14.2583375 C9.82027692,14.0627928 11.8593282,14.9382375 14.0588235,15.9112937 Z" id="path-1"></path>
    </defs>
    <g id="试玩vip需求" stroke="none" stroke-width="1" fill="none" fill-rule="evenodd">
        <g id="画板" transform="translate(-1779.000000, -367.000000)">
            <g id="编组-23" transform="translate(1779.000000, 367.000000)">
                <g id="编组-15">
                    <g id="微信" transform="translate(33.000000, 8.000000)">
                        <g id="编组-9" transform="translate(2.000000, 0.000000)">
                            <g id="编组-11">
                                <g id="编组-20">
                                    <text id="支付宝" font-family="PingFangSC-Semibold, PingFang SC" font-size="14" font-weight="500" line-spacing="22" fill="#FFFFFF">
                                        <tspan x="37" y="16">支付宝</tspan>
                                    </text>
                                    <g id="Group-2">
                                        <g id="Shape">
                                            <mask id="mask-2" fill="white">
                                                <use xlink:href="#path-1"></use>
                                            </mask>
                                            <use id="形状结合" fill="#FFFFFF" xlink:href="#path-1"></use>
                                        </g>
                                    </g>
                                </g>
                            </g>
                        </g>
                    </g>
                    <rect id="Rectangle-5" stroke="#569FCB" x="0.5" y="0.5" width="147" height="41" rx="2"></rect>
                    <path d="M148,21 L148,39 C148,40.6568542 146.656854,42 145,42 L125,42 L125,42 L148,21 Z" id="Rectangle" fill="#569FCB"></path>
                    <path d="M147.694,30 C144.046,32.161066 141.4,34.8899189 140.206,36.2572422 L137.29,34.0498262 L136,35.0521437 L141.034,40 C141.898,37.8563152 144.646,33.6674392 148,30.6894554 L147.694,30 L147.694,30 Z" id="Shape" fill="#FFFFFF" fill-rule="nonzero"></path>
                </g>
            </g>
        </g>
    </g>
</svg>