<?xml version="1.0" encoding="UTF-8"?>
<svg width="128px" height="40px" viewBox="0 0 128 40" version="1.1" xmlns="http://www.w3.org/2000/svg" xmlns:xlink="http://www.w3.org/1999/xlink">
    <g id="国内" stroke="none" stroke-width="1" fill="none" fill-rule="evenodd">
        <g id="画板" transform="translate(-923.000000, -165.000000)">
            <g id="编组-8" transform="translate(923.000000, 165.000000)">
                <g id="支付宝" transform="translate(26.000000, 9.000000)" fill="#06B4FD" fill-rule="nonzero">
                    <path d="M5.175,12.949 C4.899,13.1675 4.6115,13.4895 4.531,13.892 C4.416,14.444 4.508,15.134 5.037,15.686 C5.681,16.3415 6.67,16.5255 7.0955,16.56 C8.2455,16.6405 9.476,16.0655 10.4075,15.4215 C10.7755,15.1685 11.3965,14.651 11.983,13.8575 C10.649,13.1675 8.9815,12.4085 7.2105,12.4775 C6.302,12.512 5.6465,12.696 5.175,12.949 Z M22.08,15.9965 C22.6665,14.6165 23,13.0985 23,11.5 C23,5.1635 17.8365,0 11.5,0 C5.1635,0 0,5.1635 0,11.5 C0,17.8365 5.1635,23 11.5,23 C15.3295,23 18.722,21.114 20.815,18.239 C18.837,17.2615 15.5825,15.64 13.57,14.6625 C12.6155,15.755 11.201,16.8475 9.6025,17.319 C8.602,17.618 7.6935,17.733 6.7505,17.5375 C5.8075,17.342 5.1175,16.905 4.715,16.468 C4.508,16.238 4.278,15.962 4.1055,15.617 C4.117,15.64 4.1285,15.663 4.1285,15.686 C4.1285,15.686 4.025,15.5135 3.956,15.249 C3.9215,15.111 3.887,14.9845 3.8755,14.8465 C3.864,14.7545 3.864,14.651 3.8755,14.559 C3.864,14.3865 3.8755,14.2025 3.91,14.0185 C4.002,13.5585 4.1975,13.0295 4.7035,12.5465 C5.8075,11.4655 7.2795,11.408 8.05,11.4195 C9.177,11.431 11.155,11.9255 12.811,12.512 C13.271,11.5345 13.57,10.488 13.754,9.7865 L6.854,9.7865 L6.854,9.039 L10.396,9.039 L10.396,7.544 L6.118,7.544 L6.118,6.785 L10.396,6.785 L10.396,5.29 C10.396,5.083 10.442,4.922 10.764,4.922 L12.443,4.922 L12.443,6.785 L17.1005,6.785 L17.1005,7.5325 L12.443,7.5325 L12.443,9.0275 L16.169,9.0275 C16.169,9.0275 15.7895,11.109 14.628,13.1675 C17.2155,14.0875 20.8725,15.5135 22.08,15.9965 L22.08,15.9965 Z" id="形状"></path>
                    <path d="M5.175,12.949 C4.899,13.1675 4.6115,13.4895 4.531,13.892 C4.416,14.444 4.508,15.134 5.037,15.686 C5.681,16.3415 6.67,16.5255 7.0955,16.56 C8.2455,16.6405 9.476,16.0655 10.4075,15.4215 C10.7755,15.1685 11.3965,14.651 11.983,13.8575 C10.649,13.1675 8.9815,12.4085 7.2105,12.4775 C6.302,12.512 5.6465,12.696 5.175,12.949 Z M22.08,15.9965 C22.6665,14.6165 23,13.0985 23,11.5 C23,5.1635 17.8365,0 11.5,0 C5.1635,0 0,5.1635 0,11.5 C0,17.8365 5.1635,23 11.5,23 C15.3295,23 18.722,21.114 20.815,18.239 C18.837,17.2615 15.5825,15.64 13.57,14.6625 C12.6155,15.755 11.201,16.8475 9.6025,17.319 C8.602,17.618 7.6935,17.733 6.7505,17.5375 C5.8075,17.342 5.1175,16.905 4.715,16.468 C4.508,16.238 4.278,15.962 4.1055,15.617 C4.117,15.64 4.1285,15.663 4.1285,15.686 C4.1285,15.686 4.025,15.5135 3.956,15.249 C3.9215,15.111 3.887,14.9845 3.8755,14.8465 C3.864,14.7545 3.864,14.651 3.8755,14.559 C3.864,14.3865 3.8755,14.2025 3.91,14.0185 C4.002,13.5585 4.1975,13.0295 4.7035,12.5465 C5.8075,11.4655 7.2795,11.408 8.05,11.4195 C9.177,11.431 11.155,11.9255 12.811,12.512 C13.271,11.5345 13.57,10.488 13.754,9.7865 L6.854,9.7865 L6.854,9.039 L10.396,9.039 L10.396,7.544 L6.118,7.544 L6.118,6.785 L10.396,6.785 L10.396,5.29 C10.396,5.083 10.442,4.922 10.764,4.922 L12.443,4.922 L12.443,6.785 L17.1005,6.785 L17.1005,7.5325 L12.443,7.5325 L12.443,9.0275 L16.169,9.0275 C16.169,9.0275 15.7895,11.109 14.628,13.1675 C17.2155,14.0875 20.8725,15.5135 22.08,15.9965 L22.08,15.9965 Z" id="形状"></path>
                </g>
                <g id="Group-3">
                    <g id="支付方式-copy" transform="translate(0.000000, -0.000000)">
                        <g id="Group-2">
                            <g id="微信" transform="translate(36.000000, 9.000000)" fill="#FFFFFF" font-family="MicrosoftYaHei, Microsoft YaHei" font-size="14" font-weight="normal" line-spacing="22">
                                <g id="编组-9" transform="translate(20.000000, 0.000000)">
                                    <text id="支付宝">
                                        <tspan x="0" y="15">支付宝</tspan>
                                    </text>
                                </g>
                            </g>
                            <rect id="Rectangle-5" stroke="#569FCB" x="0.5" y="0.5" width="127" height="39" rx="2"></rect>
                        </g>
                    </g>
                </g>
                <g id="对勾" transform="translate(105.000000, 19.000000)">
                    <g>
                        <path d="M23,0 L23,18 C23,19.6568542 21.6568542,21 20,21 L0,21 L0,21 L23,0 Z" id="Rectangle" fill="#569FCB"></path>
                        <path d="M21.694,9 C18.046,11.161066 15.4,13.8899189 14.206,15.2572422 L11.29,13.0498262 L10,14.0521437 L15.034,19 C15.898,16.8563152 18.646,12.6674392 22,9.68945539 L21.694,9 L21.694,9 Z" id="Shape" fill="#FFFFFF" fill-rule="nonzero"></path>
                    </g>
                </g>
            </g>
        </g>
    </g>
</svg>