<?xml version="1.0" encoding="UTF-8"?>
<svg width="128px" height="40px" viewBox="0 0 128 40" version="1.1" xmlns="http://www.w3.org/2000/svg" xmlns:xlink="http://www.w3.org/1999/xlink">
    <defs>
        <path d="M12,-1 C18.627417,-1 24,4.372583 24,11 C24,12.707062 23.6435545,14.3308716 23.0010315,15.801061 L23,15.6787082 C23,15.67862 22.3473687,15.5928386 19.3905425,14.5687575 C18.5645906,14.2686992 17.4618189,13.8400572 16.2270582,13.3728488 C17.0204341,11.906138 17.6310373,10.3407759 18.0442034,8.71435632 L13.9142737,8.71435632 L13.9142737,7.42860673 L18.8702404,7.42860673 L18.8702404,6.520048 L13.9142737,6.57149917 L13.9142737,4 L11.8741419,4 C11.5064946,4 11.4363329,4.42864203 11.4363329,4.42864203 L11.4363329,6.57149917 L6.48045128,6.57149917 L6.48045128,7.42860673 L11.4362479,7.42860673 L11.4362479,8.71435632 L7.30640321,8.71435632 L7.30640321,9.57137562 L15.5661776,9.57137562 C15.2312927,10.6486862 14.7926872,11.688252 14.2570029,12.6743309 C11.6676539,11.778657 8.88814537,11.050045 7.11233172,11.5214012 C6.24602065,11.7114392 5.45718688,12.173891 4.85321035,12.8458054 C2.92865391,15.2928686 4.3245739,19 8.38842405,19 C10.8086197,19 13.1502342,17.5899027 14.9591301,15.280072 C16.7632066,16.1990631 19.730361,17.5304815 21.5114764,18.317485 C19.3176581,21.1650904 15.8731121,23 12,23 C5.372583,23 0,17.627417 0,11 C0,4.372583 5.372583,-1 12,-1 Z M14.0588235,14.9112937 C12.4709096,16.716662 10.5274458,17.8461538 8.58827009,17.8461538 C5.22180315,17.8461538 4.2500266,15.4663026 5.9116412,14.1415074 C6.453415,13.6959004 7.11900013,13.3907165 7.83777415,13.2583375 C9.82027692,13.0627928 11.8593282,13.9382375 14.0588235,14.9112937 Z" id="path-1"></path>
    </defs>
    <g id="试玩vip需求" stroke="none" stroke-width="1" fill="none" fill-rule="evenodd">
        <g id="画板" transform="translate(-843.000000, -104.000000)">
            <g id="编组-4" transform="translate(843.000000, 104.000000)">
                <g id="支付宝支付-未勾选" opacity="0.806687128">
                    <g id="Group-3">
                        <g>
                            <g id="支付方式-copy">
                                <g id="Group-2">
                                    <g id="微信" transform="translate(23.000000, 8.000000)">
                                        <g id="编组-9">
                                            <g id="编组-11"></g>
                                        </g>
                                    </g>
                                    <rect id="Rectangle-5" stroke-opacity="0.5" stroke="#F6DCAC" x="0.5" y="0.5" width="127" height="39" rx="2"></rect>
                                </g>
                            </g>
                        </g>
                    </g>
                </g>
                <text id="支付宝" opacity="0.600000024" font-family="PingFangSC-Regular, PingFang SC" font-size="14" font-weight="normal" line-spacing="22" fill="#FFFFFF">
                    <tspan x="62" y="24">支付宝</tspan>
                </text>
                <g id="Group-2" opacity="0.600000024" transform="translate(23.000000, 8.000000)">
                    <g id="Shape" transform="translate(0.000000, 1.000000)">
                        <mask id="mask-2" fill="white">
                            <use xlink:href="#path-1"></use>
                        </mask>
                        <use id="形状结合" fill="#FFFFFF" xlink:href="#path-1"></use>
                    </g>
                </g>
            </g>
        </g>
    </g>
</svg>