<?xml version="1.0" encoding="UTF-8"?>
<svg width="128px" height="40px" viewBox="0 0 128 40" version="1.1" xmlns="http://www.w3.org/2000/svg" xmlns:xlink="http://www.w3.org/1999/xlink">
    <g id="国内" stroke="none" stroke-width="1" fill="none" fill-rule="evenodd">
        <g id="画板" transform="translate(-1069.000000, -165.000000)">
            <rect fill="#2A2C34" x="0" y="0" width="1920" height="2304"></rect>
            <rect id="矩形" fill="#16171B" opacity="0.501581" x="774" y="68" width="662" height="450"></rect>
            <g id="编组-6" transform="translate(1069.000000, 165.000000)">
                <g id="支付宝支付-未勾选">
                    <g id="Group-3">
                        <g>
                            <g id="支付方式-copy">
                                <g id="Group-2">
                                    <g id="微信" transform="translate(56.000000, 9.000000)" fill="#FFFFFF" font-family="MicrosoftYaHei, Microsoft YaHei" font-size="14" font-weight="normal" line-spacing="22" opacity="0.600000024">
                                        <g id="编组-9">
                                            <g id="编组-11">
                                                <text id="支付宝">
                                                    <tspan x="0" y="15">支付宝</tspan>
                                                </text>
                                            </g>
                                        </g>
                                    </g>
                                    <rect id="Rectangle-5" stroke="#454950" fill-opacity="0" fill="#D8D8D8" x="0.5" y="0.5" width="127" height="39" rx="2"></rect>
                                </g>
                            </g>
                        </g>
                    </g>
                </g>
                <path d="M31.175,21.949 C30.899,22.1675 30.6115,22.4895 30.531,22.892 C30.416,23.444 30.508,24.134 31.037,24.686 C31.681,25.3415 32.67,25.5255 33.0955,25.56 C34.2455,25.6405 35.476,25.0655 36.4075,24.4215 C36.7755,24.1685 37.3965,23.651 37.983,22.8575 C36.649,22.1675 34.9815,21.4085 33.2105,21.4775 C32.302,21.512 31.6465,21.696 31.175,21.949 Z M48.08,24.9965 C48.6665,23.6165 49,22.0985 49,20.5 C49,14.1635 43.8365,9 37.5,9 C31.1635,9 26,14.1635 26,20.5 C26,26.8365 31.1635,32 37.5,32 C41.3295,32 44.722,30.114 46.815,27.239 C44.837,26.2615 41.5825,24.64 39.57,23.6625 C38.6155,24.755 37.201,25.8475 35.6025,26.319 C34.602,26.618 33.6935,26.733 32.7505,26.5375 C31.8075,26.342 31.1175,25.905 30.715,25.468 C30.508,25.238 30.278,24.962 30.1055,24.617 C30.117,24.64 30.1285,24.663 30.1285,24.686 C30.1285,24.686 30.025,24.5135 29.956,24.249 C29.9215,24.111 29.887,23.9845 29.8755,23.8465 C29.864,23.7545 29.864,23.651 29.8755,23.559 C29.864,23.3865 29.8755,23.2025 29.91,23.0185 C30.002,22.5585 30.1975,22.0295 30.7035,21.5465 C31.8075,20.4655 33.2795,20.408 34.05,20.4195 C35.177,20.431 37.155,20.9255 38.811,21.512 C39.271,20.5345 39.57,19.488 39.754,18.7865 L32.854,18.7865 L32.854,18.039 L36.396,18.039 L36.396,16.544 L32.118,16.544 L32.118,15.785 L36.396,15.785 L36.396,14.29 C36.396,14.083 36.442,13.922 36.764,13.922 L38.443,13.922 L38.443,15.785 L43.1005,15.785 L43.1005,16.5325 L38.443,16.5325 L38.443,18.0275 L42.169,18.0275 C42.169,18.0275 41.7895,20.109 40.628,22.1675 C43.2155,23.0875 46.8725,24.5135 48.08,24.9965 L48.08,24.9965 Z" id="形状" fill="#06B4FD" fill-rule="nonzero"></path>
            </g>
        </g>
    </g>
</svg>