<svg width="148" height="42" viewBox="0 0 148 42" fill="none" xmlns="http://www.w3.org/2000/svg">
<g opacity="0.6">
<path fill-rule="evenodd" clip-rule="evenodd" d="M53.5938 26.6934C54.3374 25.149 54.75 23.4432 54.75 21.6498C54.75 14.691 48.538 9.0498 40.875 9.0498C33.212 9.0498 27 14.691 27 21.6498C27 28.6086 33.212 34.2498 40.875 34.2498C45.3531 34.2498 49.3357 32.3233 51.8727 29.3332C49.8133 28.5068 46.3825 27.1088 44.2965 26.1439C42.205 28.5692 39.4975 30.0498 36.6991 30.0498C32.0003 30.0498 30.3863 26.1573 32.6115 23.5879C33.3099 22.8824 34.222 22.3968 35.2236 22.1973C37.2769 21.7024 40.4907 22.4674 43.4847 23.4079C44.104 22.3725 44.6112 21.2809 44.9984 20.1497H35.448V19.2499H40.2232V17.8998H34.493V16.9999H40.2233V14.7499C40.2233 14.7499 40.3044 14.2998 40.7295 14.2998H43.0884V16.9999L48.8187 16.9459V17.8998H43.0884V19.2499H47.8636C47.3859 20.9576 46.6799 22.6012 45.7625 24.1413C46.2474 24.3079 46.7147 24.4699 47.1579 24.6234L47.1582 24.6235C48.0196 24.9221 48.7897 25.189 49.4203 25.397C52.7983 26.4594 53.5753 26.5601 53.5934 26.5624L53.5938 26.5624V26.6934ZM33.8353 24.9484C34.4618 24.4805 35.2313 24.1601 36.0624 24.0211C38.3547 23.8157 40.7123 24.735 43.2555 25.7567C41.4195 27.6523 39.1724 28.8383 36.9302 28.8383C33.0377 28.8383 31.9141 26.3394 33.8353 24.9484Z" fill="white"/>
<mask id="mask0_3438_8069" style="mask-type:alpha" maskUnits="userSpaceOnUse" x="27" y="9" width="28" height="26">
<path fill-rule="evenodd" clip-rule="evenodd" d="M53.5938 26.6934C54.3374 25.149 54.75 23.4432 54.75 21.6498C54.75 14.691 48.538 9.0498 40.875 9.0498C33.212 9.0498 27 14.691 27 21.6498C27 28.6086 33.212 34.2498 40.875 34.2498C45.3531 34.2498 49.3357 32.3233 51.8727 29.3332C49.8133 28.5068 46.3825 27.1088 44.2965 26.1439C42.205 28.5692 39.4975 30.0498 36.6991 30.0498C32.0003 30.0498 30.3863 26.1573 32.6115 23.5879C33.3099 22.8824 34.222 22.3968 35.2236 22.1973C37.2769 21.7024 40.4907 22.4674 43.4847 23.4079C44.104 22.3725 44.6112 21.2809 44.9984 20.1497H35.448V19.2499H40.2232V17.8998H34.493V16.9999H40.2233V14.7499C40.2233 14.7499 40.3044 14.2998 40.7295 14.2998H43.0884V16.9999L48.8187 16.9459V17.8998H43.0884V19.2499H47.8636C47.3859 20.9576 46.6799 22.6012 45.7625 24.1413C46.2474 24.3079 46.7147 24.4699 47.1579 24.6234L47.1582 24.6235C48.0196 24.9221 48.7897 25.189 49.4203 25.397C52.7983 26.4594 53.5753 26.5601 53.5934 26.5624L53.5938 26.5624V26.6934ZM33.8353 24.9484C34.4618 24.4805 35.2313 24.1601 36.0624 24.0211C38.3547 23.8157 40.7123 24.735 43.2555 25.7567C41.4195 27.6523 39.1724 28.8383 36.9302 28.8383C33.0377 28.8383 31.9141 26.3394 33.8353 24.9484Z" fill="white"/>
</mask>
<g mask="url(#mask0_3438_8069)">
</g>
</g>
<path opacity="0.6" d="M69.454 14.562V16.396H64.008V17.376H69.454V19.518H65.072V20.456H66.15C66.374 21.212 66.738 21.926 67.242 22.57C67.788 23.27 68.432 23.9 69.16 24.446C67.648 25.342 65.828 26.042 63.7 26.546L64.274 27.442C66.5 26.84 68.404 26.042 70 25.034C70.7 25.482 71.484 25.888 72.338 26.252C73.416 26.7 74.564 27.092 75.768 27.414L76.356 26.532C75.222 26.252 74.158 25.93 73.164 25.552C72.324 25.216 71.554 24.838 70.854 24.446C72.338 23.326 73.472 21.982 74.256 20.414V19.518H70.49V17.376H75.992V16.396H70.49V14.562H69.454ZM69.986 23.9C69.37 23.48 68.81 22.99 68.32 22.43C67.788 21.856 67.396 21.198 67.144 20.456H73.122C72.394 21.8 71.344 22.948 69.986 23.9ZM80.71 14.436C80.038 16.676 78.96 18.65 77.476 20.372L77.784 21.422C78.414 20.75 78.988 20.05 79.492 19.308V27.428H80.5V17.642C80.948 16.774 81.34 15.864 81.648 14.884L80.71 14.436ZM81.942 17.6V18.58H87.304V25.636C87.304 26.14 87.08 26.392 86.646 26.392C86.03 26.392 85.4 26.364 84.742 26.322L84.966 27.316H86.996C87.864 27.316 88.312 26.84 88.312 25.888V18.58H90.328V17.6H88.312V14.59H87.304V17.6H81.942ZM83.23 20.106L82.404 20.61C83.426 21.856 84.238 22.99 84.84 24.012L85.694 23.41C85.12 22.472 84.294 21.366 83.23 20.106ZM97.496 19.756V22.164H93.8V23.116H97.496V26.07H92.19V27.008H103.852V26.07H98.518V23.116H102.144V22.164H98.518V19.756H102.606V18.804H93.478V19.756H97.496ZM100.954 23.508L100.184 23.97C100.828 24.726 101.346 25.426 101.724 26.042L102.508 25.51C102.144 24.922 101.626 24.264 100.954 23.508ZM103.628 16.004H98.63C98.448 15.486 98.266 15.024 98.07 14.618L96.992 14.786C97.188 15.15 97.384 15.556 97.566 16.004H92.302V18.804H93.324V16.97H102.62V18.72H103.628V16.004Z" fill="white"/>
<rect x="0.5" y="0.5" width="147" height="41" rx="1.5" stroke="#282438"/>
</svg>
