<svg xmlns="http://www.w3.org/2000/svg" xmlns:xlink="http://www.w3.org/1999/xlink" viewBox="0 0 148 42"><defs><style>.cls-1{fill:#fff;}.cls-1,.cls-3{fill-rule:evenodd;}.cls-2{opacity:0.6;}.cls-3,.cls-5{fill:#351d05;}.cls-4{mask:url(#mask);}.cls-6{fill:none;stroke:#351d05;}</style><mask id="mask" x="37" y="8" width="28" height="25" maskUnits="userSpaceOnUse"><g id="mask0"><path class="cls-1" d="M64.1,24.92A11.3,11.3,0,0,0,65,20.5C65,13.6,58.73,8,51,8S37,13.6,37,20.5,43.27,33,51,33a14.51,14.51,0,0,0,11.55-5.43c-2.08-.83-4.93-2-6.76-2.82a10.4,10.4,0,0,1-7.67,3.87,5.16,5.16,0,0,1-4.56-2.05A4.94,4.94,0,0,0,47,27.63a9.25,9.25,0,0,0,6.38-3.06c-2.56-1-4.94-1.92-7.26-1.72a5.32,5.32,0,0,0-2.24.92A2.1,2.1,0,0,0,43,25a3.76,3.76,0,0,1,1-2.77,5.12,5.12,0,0,1,2.63-1.38C48.7,20.34,52,21.1,55,22a17.08,17.08,0,0,0,1.52-3.24H46.86v-.89h4.82V16.57H45.89v-.89h5.79V13.45a.54.54,0,0,1,.51-.45h2.38v2.68l5.78,0v.94H54.57v1.34h4.82a20.3,20.3,0,0,1-2.12,4.85l1.4.48L61,24C62.46,24.48,63.46,24.75,64.1,24.92ZM43,25a3.34,3.34,0,0,0,.55,1.59A1.65,1.65,0,0,1,43,25Z"/></g></mask></defs><g id="图层_2" data-name="图层 2"><g id="图层_1-2" data-name="图层 1"><g class="cls-2"><path class="cls-3" d="M63.83,25.5a11.31,11.31,0,0,0,1.17-5C65,13.6,58.73,8,51,8S37,13.6,37,20.5,43.27,33,51,33a14.61,14.61,0,0,0,11.1-4.88C60,27.3,56.56,25.92,54.45,25a10.42,10.42,0,0,1-7.66,3.87c-4.74,0-6.37-3.86-4.13-6.41A5.19,5.19,0,0,1,45.3,21c2.07-.49,5.31.27,8.33,1.2A16.44,16.44,0,0,0,55.16,19H45.52v-.89h4.82V16.78H44.56v-.89h5.78V13.65a.53.53,0,0,1,.51-.44h2.38v2.68L59,15.83v1H53.23v1.34h4.82A19.69,19.69,0,0,1,55.93,23l1.41.48,2.28.77a33.41,33.41,0,0,0,4.21,1.15h0ZM43.9,23.77a5.32,5.32,0,0,1,2.24-.92c2.32-.2,4.7.71,7.26,1.72A9.25,9.25,0,0,1,47,27.63C43.09,27.63,42,25.15,43.9,23.77Z"/><path class="cls-5" d="M79.32,20.55A8.75,8.75,0,0,1,76.06,24a9.23,9.23,0,0,1-3.14-3.41Zm.71-.93-.18,0H76.46V17.4h5.38v-.91H76.46V14.31h-.95v2.18H70.13v.91h5.38v2.24H70.76v.91h1.47l-.26.1a10.1,10.1,0,0,0,3.19,3.8,18.8,18.8,0,0,1-5.57,1.73,4.08,4.08,0,0,1,.52.88A19.81,19.81,0,0,0,76,25a16.19,16.19,0,0,0,5.87,2,5.51,5.51,0,0,1,.57-.88,16.7,16.7,0,0,1-5.53-1.65A10,10,0,0,0,80.66,20Zm7.18-5.23a15.68,15.68,0,0,1-3.62,5.73,7.79,7.79,0,0,1,.59.91,14.68,14.68,0,0,0,1.49-1.81V27h.94V17.78a23.45,23.45,0,0,0,1.51-3.11Zm9.08,3H94.48V14.48h-.94v2.94H87.83v.94h5.71v7.39c0,.31-.12.4-.45.42s-1.45,0-2.66,0a5.88,5.88,0,0,1,.38.93,11.93,11.93,0,0,0,3-.16c.5-.15.71-.42.71-1.17V18.36h1.81Zm-4.61,5.91c-.46-.84-1.39-2.31-2.13-3.42l-.8.38a38.3,38.3,0,0,1,2.08,3.51ZM99.14,17h9.68v2h.93V16.09h-4.81a19.93,19.93,0,0,0-1-1.88l-.89.23c.26.5.57,1.13.81,1.65H98.23V19h.91Zm5.32,8.81V22.84h4V22h-4V19.64h4.26v-.86H99.28v.86h4.2V22H99.62v.87h3.86v2.94H97.94v.86h12.15v-.86Zm1.15-2.22c.78.63,1.76,1.5,2.27,2l.67-.56c-.52-.5-1.53-1.33-2.3-1.92Z"/><rect class="cls-6" x="0.5" y="0.5" width="147" height="41" rx="1.5"/></g></g></g></svg>