<svg width="148" height="42" viewBox="0 0 148 42" fill="none" xmlns="http://www.w3.org/2000/svg">
<g opacity="0.6">
<path fill-rule="evenodd" clip-rule="evenodd" d="M53.5938 25.6936C54.3374 24.1493 54.75 22.4434 54.75 20.65C54.75 13.6913 48.538 8.05005 40.875 8.05005C33.212 8.05005 27 13.6913 27 20.65C27 27.6088 33.212 33.25 40.875 33.25C45.3531 33.25 49.3357 31.3235 51.8727 28.3334C49.8133 27.5071 46.3825 26.1091 44.2965 25.1441C42.205 27.5694 39.4975 29.05 36.6991 29.05C32.0003 29.05 30.3863 25.1576 32.6115 22.5881C33.3099 21.8826 34.222 21.3971 35.2236 21.1975C37.2769 20.7026 40.4907 21.4676 43.4847 22.4081C44.104 21.3727 44.6112 20.2812 44.9984 19.15H35.448V18.2501H40.2232V16.9001H34.493V16.0001H40.2233V13.7501C40.2233 13.7501 40.3044 13.3 40.7295 13.3H43.0884V16.0001L48.8187 15.9461V16.9001H43.0884V18.2501H47.8636C47.3859 19.9579 46.6799 21.6015 45.7625 23.1415C46.2474 23.3082 46.7147 23.4701 47.1579 23.6237L47.1582 23.6238C48.0196 23.9223 48.7897 24.1892 49.4203 24.3972C52.7983 25.4597 53.5753 25.5603 53.5934 25.5626L53.5938 25.5627V25.6936ZM33.8355 23.9486C34.462 23.4807 35.2315 23.1603 36.0626 23.0213C38.3549 22.816 40.7125 23.7352 43.2557 24.7569C41.4197 26.6525 39.1726 27.8385 36.9304 27.8385C33.0379 27.8385 31.9143 25.3397 33.8355 23.9486Z" fill="white"/>
<mask id="mask0_3115_6217" style="mask-type:alpha" maskUnits="userSpaceOnUse" x="27" y="8" width="28" height="26">
<path fill-rule="evenodd" clip-rule="evenodd" d="M53.5938 25.6936C54.3374 24.1493 54.75 22.4434 54.75 20.65C54.75 13.6913 48.538 8.05005 40.875 8.05005C33.212 8.05005 27 13.6913 27 20.65C27 27.6088 33.212 33.25 40.875 33.25C45.4645 33.25 49.5336 31.2265 52.0594 28.1082C50.0263 27.2937 46.4468 25.8388 44.2965 24.8441C42.205 27.2694 39.4975 28.75 36.6991 28.75C32.0003 28.75 30.3863 24.8575 32.6115 22.2881C33.3099 21.5826 34.222 21.097 35.2236 20.8975C37.2769 20.4025 40.4907 21.1676 43.4847 22.108C44.104 21.0727 44.6112 19.9811 44.9984 18.8499H35.448V17.9501H40.2232V16.6H34.493V15.7001H40.2233V13.4501C40.2233 13.4501 40.3044 13 40.7295 13H43.0884V15.7001L48.8187 15.6461V16.6H43.0884V17.9501H47.8636C47.3859 19.6578 46.6799 21.3014 45.7625 22.8415C46.2474 23.0081 46.7147 23.1701 47.1579 23.3236L47.1582 23.3237C48.0196 23.6223 48.7897 23.8892 49.4203 24.0972C52.7983 25.1596 53.5753 25.2603 53.5934 25.2626L53.5938 25.2626V25.6936ZM33.8355 23.9486C34.462 23.4807 35.2315 23.1603 36.0626 23.0213C38.3549 22.816 40.7125 23.7352 43.2557 24.7569C41.4197 26.6525 39.1726 27.8385 36.9304 27.8385C33.0379 27.8385 31.9143 25.3397 33.8355 23.9486Z" fill="white"/>
</mask>
<g mask="url(#mask0_3115_6217)">
</g>
</g>
<path opacity="0.6" d="M70.8603 14.562V16.396H65.4143V17.376H70.8603V19.518H66.4783V20.456H67.5563C67.7803 21.212 68.1443 21.926 68.6483 22.57C69.1943 23.27 69.8383 23.9 70.5663 24.446C69.0543 25.342 67.2343 26.042 65.1063 26.546L65.6803 27.442C67.9062 26.84 69.8103 26.042 71.4062 25.034C72.1063 25.482 72.8903 25.888 73.7443 26.252C74.8223 26.7 75.9703 27.092 77.1743 27.414L77.7623 26.532C76.6283 26.252 75.5643 25.93 74.5703 25.552C73.7303 25.216 72.9603 24.838 72.2603 24.446C73.7443 23.326 74.8783 21.982 75.6623 20.414V19.518H71.8963V17.376H77.3983V16.396H71.8963V14.562H70.8603ZM71.3923 23.9C70.7763 23.48 70.2163 22.99 69.7263 22.43C69.1943 21.856 68.8023 21.198 68.5503 20.456H74.5283C73.8003 21.8 72.7503 22.948 71.3923 23.9ZM82.1163 14.436C81.4443 16.676 80.3663 18.65 78.8823 20.372L79.1903 21.422C79.8203 20.75 80.3943 20.05 80.8983 19.308V27.428H81.9062V17.642C82.3543 16.774 82.7463 15.864 83.0543 14.884L82.1163 14.436ZM83.3483 17.6V18.58H88.7103V25.636C88.7103 26.14 88.4863 26.392 88.0523 26.392C87.4363 26.392 86.8063 26.364 86.1483 26.322L86.3723 27.316H88.4023C89.2703 27.316 89.7183 26.84 89.7183 25.888V18.58H91.7343V17.6H89.7183V14.59H88.7103V17.6H83.3483ZM84.6363 20.106L83.8103 20.61C84.8323 21.856 85.6443 22.99 86.2463 24.012L87.1003 23.41C86.5263 22.472 85.7003 21.366 84.6363 20.106ZM98.9023 19.756V22.164H95.2063V23.116H98.9023V26.07H93.5963V27.008H105.258V26.07H99.9243V23.116H103.55V22.164H99.9243V19.756H104.012V18.804H94.8843V19.756H98.9023ZM102.36 23.508L101.59 23.97C102.234 24.726 102.752 25.426 103.13 26.042L103.914 25.51C103.55 24.922 103.032 24.264 102.36 23.508ZM105.034 16.004H100.036C99.8543 15.486 99.6723 15.024 99.4762 14.618L98.3983 14.786C98.5943 15.15 98.7903 15.556 98.9723 16.004H93.7083V18.804H94.7303V16.97H104.026V18.72H105.034V16.004Z" fill="white"/>
<rect x="0.5" y="0.5" width="147" height="41" rx="1.5" stroke="#FFE6B3" stroke-opacity="0.6"/>
</svg>
