<svg width="148" height="43" viewBox="0 0 148 43" fill="none" xmlns="http://www.w3.org/2000/svg">
<g opacity="0.8">
<g clip-path="url(#clip0)">
<path fill-rule="evenodd" clip-rule="evenodd" d="M53.5938 26.2442C54.3374 24.6998 54.75 22.994 54.75 21.2006C54.75 14.2418 48.538 8.60059 40.875 8.60059C33.212 8.60059 27 14.2418 27 21.2006C27 28.1594 33.212 33.8006 40.875 33.8006C45.3531 33.8006 49.3357 31.8741 51.8727 28.884C49.8133 28.0576 46.3825 26.6596 44.2965 25.6947C42.205 28.12 39.4975 29.6006 36.6991 29.6006C32.0003 29.6006 30.3863 25.7081 32.6115 23.1387C33.3099 22.4332 34.222 21.9476 35.2236 21.7481C37.2769 21.2531 40.4907 22.0182 43.4847 22.9586C44.104 21.9233 44.6112 20.8317 44.9984 19.7005H35.448V18.8007H40.2232V17.4506H34.493V16.5507H40.2233V14.3007C40.2233 14.3007 40.3044 13.8506 40.7295 13.8506H43.0884V16.5507L48.8187 16.4966V17.4506H43.0884V18.8007H47.8636C47.3859 20.5084 46.6799 22.152 45.7625 23.6921C46.2474 23.8587 46.7147 24.0206 47.1579 24.1742L47.1582 24.1743C48.0196 24.4729 48.7897 24.7398 49.4203 24.9478C52.7983 26.0102 53.5753 26.1108 53.5934 26.1132L53.5938 26.1132V26.2442ZM33.8353 24.4992C34.4618 24.0313 35.2313 23.7108 36.0624 23.5718C38.3547 23.3665 40.7123 24.2857 43.2555 25.3074C41.4195 27.2031 39.1724 28.389 36.9302 28.389C33.0377 28.389 31.9141 25.8902 33.8353 24.4992Z" fill="#BF280C"/>
<path d="M64.3555 16.8503H70.5625V14.8816H71.6836V16.8503H77.6035V17.8484H71.6836V19.8718H75.5391V20.8152C74.7188 22.629 73.5566 24.1443 72.0527 25.3611C73.543 26.1677 75.457 26.7397 77.7949 27.0769C77.4668 27.5326 77.207 27.9291 77.0156 28.2664C74.4134 27.7514 72.415 27.0245 71.0205 26.0857C69.5303 27.0063 67.4954 27.8015 64.916 28.4714C64.7337 28.0522 64.5332 27.6921 64.3145 27.3914C66.7982 26.8354 68.7327 26.1677 70.1182 25.3884C68.7965 24.2537 67.7734 22.7475 67.0488 20.8699H65.6953V19.8718H70.5625V17.8484H64.3555V16.8503ZM74.2129 20.8699H68.2041C68.8695 22.5151 69.8311 23.8093 71.0889 24.7527C72.5016 23.6817 73.543 22.3875 74.2129 20.8699ZM82.1836 18.0261H88.4453V15.032H89.5527V18.0261H91.5352V19.0652H89.5527V25.9832C89.5527 27.405 88.9102 28.1251 87.625 28.1433C87.1966 28.1524 86.513 28.1479 85.5742 28.1296C85.5286 27.7742 85.4557 27.364 85.3555 26.8992C86.2305 26.9721 86.9049 27.0085 87.3789 27.0085C87.7982 27.0177 88.0807 26.9265 88.2266 26.7351C88.3724 26.5619 88.4453 26.2019 88.4453 25.655V19.0652H82.1836V18.0261ZM78.2051 21.4304C79.472 19.6622 80.5111 17.4884 81.3223 14.9089L82.4434 15.3328C82.0651 16.349 81.6777 17.2947 81.2812 18.1697V28.3347H80.1875V20.3435C79.6816 21.2413 79.1621 22.0365 78.6289 22.7292C78.4648 22.1186 78.3236 21.6856 78.2051 21.4304ZM83.0723 21.2253L83.9883 20.6511C84.5443 21.4532 85.196 22.5059 85.9434 23.8093L84.959 24.4246C84.321 23.1759 83.6921 22.1095 83.0723 21.2253ZM92.3555 26.5847H98.3984V23.4675H93.5312V22.4558H98.3984V20.4597H93.0117V19.448H104.934V20.4597H99.5605V22.4558H104.469V23.4675H99.5605V26.5847H105.672V27.6101H92.3555V26.5847ZM92.793 16.741H98.7607C98.5329 16.2898 98.2572 15.8113 97.9336 15.3054L98.9316 14.8406C99.3053 15.351 99.638 15.8796 99.9297 16.4265L99.3213 16.741H105.193V19.0378H104.086V17.7664H93.9004V19.0378H92.793V16.741ZM101.174 24.4109L101.98 23.782C102.609 24.3835 103.165 24.9942 103.648 25.614L102.76 26.2976C102.295 25.6687 101.766 25.0398 101.174 24.4109Z" fill="#BF280C"/>
</g>
</g>
<rect opacity="0.8" x="1" y="1.55054" width="146" height="40" rx="1" stroke="#BF280C" stroke-width="2"/>
<path fill-rule="evenodd" clip-rule="evenodd" d="M148 19.0505V38.0505C148 39.7074 146.657 41.0505 145 41.0505H122L148 19.0505Z" fill="#C74E38"/>
<defs>
<clipPath id="clip0">
<rect width="86" height="33" fill="white" transform="translate(27 2.55054)"/>
</clipPath>
</defs>
</svg>
