<svg width="149" height="42" viewBox="0 0 149 42" fill="none" xmlns="http://www.w3.org/2000/svg">
<g opacity="0.8">
<g clip-path="url(#clip0)">
<path fill-rule="evenodd" clip-rule="evenodd" d="M54.5293 25.6936C55.273 24.1493 55.6855 22.4434 55.6855 20.65C55.6855 13.6913 49.4735 8.05005 41.8105 8.05005C34.1476 8.05005 27.9355 13.6913 27.9355 20.65C27.9355 27.6088 34.1476 33.25 41.8105 33.25C46.2887 33.25 50.2713 31.3235 52.8082 28.3334C50.7488 27.5071 47.318 26.1091 45.232 25.1441C43.1405 27.5694 40.433 29.05 37.6347 29.05C32.9358 29.05 31.3218 25.1576 33.5471 22.5881C34.2454 21.8826 35.1575 21.3971 36.1592 21.1975C38.2125 20.7026 41.4263 21.4676 44.4202 22.4081C45.0396 21.3727 45.5467 20.2812 45.9339 19.15H36.3836V18.2501H41.1587V16.9001H35.4286V16.0001H41.1588V13.7501C41.1588 13.7501 41.2399 13.3 41.665 13.3H44.0239V16.0001L49.7543 15.9461V16.9001H44.0239V18.2501H48.7992C48.3214 19.9579 47.6154 21.6015 46.6981 23.1415C47.183 23.3082 47.6503 23.4701 48.0934 23.6237L48.0937 23.6238C48.9552 23.9223 49.7253 24.1892 50.3559 24.3972C53.7338 25.4597 54.5109 25.5603 54.529 25.5626L54.5293 25.5627V25.6936ZM34.7709 23.9486C35.3973 23.4807 36.1669 23.1603 36.998 23.0213C39.2902 22.816 41.6479 23.7352 44.1911 24.7569C42.355 26.6525 40.1079 27.8385 37.8657 27.8385C33.9733 27.8385 32.8496 25.3397 34.7709 23.9486Z" fill="#BFBFBF"/>
<mask id="mask0" style="mask-type:alpha" maskUnits="userSpaceOnUse" x="27" y="8" width="29" height="26">
<path fill-rule="evenodd" clip-rule="evenodd" d="M54.5293 25.6936C55.273 24.1493 55.6855 22.4434 55.6855 20.65C55.6855 13.6913 49.4735 8.05005 41.8105 8.05005C34.1476 8.05005 27.9355 13.6913 27.9355 20.65C27.9355 27.6088 34.1476 33.25 41.8105 33.25C46.4001 33.25 50.4692 31.2265 52.9949 28.1082C50.9619 27.2937 47.3824 25.8388 45.232 24.8441C43.1405 27.2694 40.433 28.75 37.6347 28.75C32.9358 28.75 31.3218 24.8575 33.5471 22.2881C34.2454 21.5826 35.1575 21.097 36.1592 20.8975C38.2125 20.4025 41.4263 21.1676 44.4202 22.108C45.0396 21.0727 45.5467 19.9811 45.9339 18.8499H36.3836V17.9501H41.1587V16.6H35.4286V15.7001H41.1588V13.4501C41.1588 13.4501 41.2399 13 41.665 13H44.0239V15.7001L49.7543 15.6461V16.6H44.0239V17.9501H48.7992C48.3214 19.6578 47.6154 21.3014 46.6981 22.8415C47.183 23.0081 47.6503 23.1701 48.0934 23.3236L48.0937 23.3237C48.9552 23.6223 49.7253 23.8892 50.3559 24.0972C53.7338 25.1596 54.5109 25.2603 54.529 25.2626L54.5293 25.2626V25.6936ZM34.7709 23.9486C35.3973 23.4807 36.1669 23.1603 36.998 23.0213C39.2902 22.816 41.6479 23.7352 44.1911 24.7569C42.355 26.6525 40.1079 27.8385 37.8657 27.8385C33.9733 27.8385 32.8496 25.3397 34.7709 23.9486Z" fill="white"/>
</mask>
<g mask="url(#mask0)">
</g>
<path d="M65.291 16.2998H71.498V14.3311H72.6191V16.2998H78.5391V17.2979H72.6191V19.3213H76.4746V20.2646C75.6543 22.0785 74.4922 23.5938 72.9883 24.8105C74.4785 25.6172 76.3926 26.1891 78.7305 26.5264C78.4023 26.9821 78.1426 27.3786 77.9512 27.7158C75.349 27.2008 73.3506 26.474 71.9561 25.5352C70.4658 26.4557 68.431 27.251 65.8516 27.9209C65.6693 27.5016 65.4688 27.1416 65.25 26.8408C67.7337 26.2848 69.6683 25.6172 71.0537 24.8379C69.7321 23.7031 68.709 22.1969 67.9844 20.3193H66.6309V19.3213H71.498V17.2979H65.291V16.2998ZM75.1484 20.3193H69.1396C69.805 21.9645 70.7666 23.2588 72.0244 24.2021C73.4372 23.1312 74.4785 21.8369 75.1484 20.3193ZM83.1191 17.4756H89.3809V14.4814H90.4883V17.4756H92.4707V18.5146H90.4883V25.4326C90.4883 26.8545 89.8457 27.5745 88.5605 27.5928C88.1322 27.6019 87.4486 27.5973 86.5098 27.5791C86.4642 27.2236 86.3913 26.8135 86.291 26.3486C87.166 26.4215 87.8405 26.458 88.3145 26.458C88.7337 26.4671 89.0163 26.376 89.1621 26.1846C89.3079 26.0114 89.3809 25.6514 89.3809 25.1045V18.5146H83.1191V17.4756ZM79.1406 20.8799C80.4076 19.1117 81.4466 16.9378 82.2578 14.3584L83.3789 14.7822C83.0007 15.7985 82.6133 16.7441 82.2168 17.6191V27.7842H81.123V19.793C80.6172 20.6908 80.0977 21.486 79.5645 22.1787C79.4004 21.568 79.2591 21.1351 79.1406 20.8799ZM84.0078 20.6748L84.9238 20.1006C85.4798 20.9027 86.1315 21.9554 86.8789 23.2588L85.8945 23.874C85.2565 22.6253 84.6276 21.5589 84.0078 20.6748ZM93.291 26.0342H99.334V22.917H94.4668V21.9053H99.334V19.9092H93.9473V18.8975H105.869V19.9092H100.496V21.9053H105.404V22.917H100.496V26.0342H106.607V27.0596H93.291V26.0342ZM93.7285 16.1904H99.6963C99.4684 15.7393 99.1927 15.2607 98.8691 14.7549L99.8672 14.29C100.241 14.8005 100.574 15.3291 100.865 15.876L100.257 16.1904H106.129V18.4873H105.021V17.2158H94.8359V18.4873H93.7285V16.1904ZM102.109 23.8604L102.916 23.2314C103.545 23.833 104.101 24.4437 104.584 25.0635L103.695 25.7471C103.23 25.1182 102.702 24.4893 102.109 23.8604Z" fill="#B5B5B5"/>
</g>
</g>
<rect opacity="0.8" x="1.93555" y="1" width="146" height="40" rx="1" stroke="#B7B7B7" stroke-width="2"/>
<defs>
<clipPath id="clip0">
<rect width="86" height="33" fill="white" transform="translate(27.9355 2)"/>
</clipPath>
</defs>
</svg>
