<svg width="148" height="43" viewBox="0 0 148 43" fill="none" xmlns="http://www.w3.org/2000/svg">
<path fill-rule="evenodd" clip-rule="evenodd" d="M53.5938 27.4805C54.3374 25.9362 54.75 24.2303 54.75 22.4369C54.75 15.4781 48.538 9.83691 40.875 9.83691C33.212 9.83691 27 15.4781 27 22.4369C27 29.3957 33.212 35.0369 40.875 35.0369C45.3531 35.0369 49.3357 33.1104 51.8727 30.1203C49.8133 29.2939 46.3825 27.8959 44.2965 26.931C42.205 29.3563 39.4975 30.8369 36.6991 30.8369C32.0003 30.8369 30.3863 26.9444 32.6115 24.375C33.3099 23.6695 34.222 23.1839 35.2236 22.9844C37.2769 22.4895 40.4907 23.2545 43.4847 24.195C44.104 23.1596 44.6112 22.068 44.9984 20.9369H35.448V20.037H40.2232V18.687H34.493V17.787H40.2233V15.537C40.2233 15.537 40.3044 15.0869 40.7295 15.0869H43.0884V17.787L48.8187 17.733V18.687H43.0884V20.037H47.8636C47.3859 21.7447 46.6799 23.3884 45.7625 24.9284C46.2474 25.095 46.7147 25.257 47.1579 25.4105L47.1582 25.4107C48.0196 25.7092 48.7897 25.9761 49.4203 26.1841C52.7983 27.2465 53.5753 27.3472 53.5934 27.3495L53.5938 27.3496V27.4805ZM33.8353 25.7355C34.4618 25.2676 35.2313 24.9472 36.0624 24.8082C38.3547 24.6028 40.7123 25.5221 43.2555 26.5438C41.4195 28.4394 39.1724 29.6254 36.9302 29.6254C33.0377 29.6254 31.9141 27.1265 33.8353 25.7355Z" fill="white"/>
<mask id="mask0_3438_8095" style="mask-type:alpha" maskUnits="userSpaceOnUse" x="27" y="9" width="28" height="27">
<path fill-rule="evenodd" clip-rule="evenodd" d="M53.5938 27.4805C54.3374 25.9362 54.75 24.2303 54.75 22.4369C54.75 15.4781 48.538 9.83691 40.875 9.83691C33.212 9.83691 27 15.4781 27 22.4369C27 29.3957 33.212 35.0369 40.875 35.0369C45.3531 35.0369 49.3357 33.1104 51.8727 30.1203C49.8133 29.2939 46.3825 27.8959 44.2965 26.931C42.205 29.3563 39.4975 30.8369 36.6991 30.8369C32.0003 30.8369 30.3863 26.9444 32.6115 24.375C33.3099 23.6695 34.222 23.1839 35.2236 22.9844C37.2769 22.4895 40.4907 23.2545 43.4847 24.195C44.104 23.1596 44.6112 22.068 44.9984 20.9369H35.448V20.037H40.2232V18.687H34.493V17.787H40.2233V15.537C40.2233 15.537 40.3044 15.0869 40.7295 15.0869H43.0884V17.787L48.8187 17.733V18.687H43.0884V20.037H47.8636C47.3859 21.7447 46.6799 23.3884 45.7625 24.9284C46.2474 25.095 46.7147 25.257 47.1579 25.4105L47.1582 25.4107C48.0196 25.7092 48.7897 25.9761 49.4203 26.1841C52.7983 27.2465 53.5753 27.3472 53.5934 27.3495L53.5938 27.3496V27.4805ZM33.8353 25.7355C34.4618 25.2676 35.2313 24.9472 36.0624 24.8082C38.3547 24.6028 40.7123 25.5221 43.2555 26.5438C41.4195 28.4394 39.1724 29.6254 36.9302 29.6254C33.0377 29.6254 31.9141 27.1265 33.8353 25.7355Z" fill="white"/>
</mask>
<g mask="url(#mask0_3438_8095)">
</g>
<path d="M69.454 15.3491V17.1831H64.008V18.1631H69.454V20.3051H65.072V21.2431H66.15C66.374 21.9991 66.738 22.7131 67.242 23.3571C67.788 24.0571 68.432 24.6871 69.16 25.2331C67.648 26.1291 65.828 26.8291 63.7 27.3331L64.274 28.2291C66.5 27.6271 68.404 26.8291 70 25.8211C70.7 26.2691 71.484 26.6751 72.338 27.0391C73.416 27.4871 74.564 27.8791 75.768 28.2011L76.356 27.3191C75.222 27.0391 74.158 26.7171 73.164 26.3391C72.324 26.0031 71.554 25.6251 70.854 25.2331C72.338 24.1131 73.472 22.7691 74.256 21.2011V20.3051H70.49V18.1631H75.992V17.1831H70.49V15.3491H69.454ZM69.986 24.6871C69.37 24.2671 68.81 23.7771 68.32 23.2171C67.788 22.6431 67.396 21.9851 67.144 21.2431H73.122C72.394 22.5871 71.344 23.7351 69.986 24.6871ZM80.71 15.2231C80.038 17.4631 78.96 19.4371 77.476 21.1591L77.784 22.2091C78.414 21.5371 78.988 20.8371 79.492 20.0951V28.2151H80.5V18.4291C80.948 17.5611 81.34 16.6511 81.648 15.6711L80.71 15.2231ZM81.942 18.3871V19.3671H87.304V26.4231C87.304 26.9271 87.08 27.1791 86.646 27.1791C86.03 27.1791 85.4 27.1511 84.742 27.1091L84.966 28.1031H86.996C87.864 28.1031 88.312 27.6271 88.312 26.6751V19.3671H90.328V18.3871H88.312V15.3771H87.304V18.3871H81.942ZM83.23 20.8931L82.404 21.3971C83.426 22.6431 84.238 23.7771 84.84 24.7991L85.694 24.1971C85.12 23.2591 84.294 22.1531 83.23 20.8931ZM97.496 20.5431V22.9511H93.8V23.9031H97.496V26.8571H92.19V27.7951H103.852V26.8571H98.518V23.9031H102.144V22.9511H98.518V20.5431H102.606V19.5911H93.478V20.5431H97.496ZM100.954 24.2951L100.184 24.7571C100.828 25.5131 101.346 26.2131 101.724 26.8291L102.508 26.2971C102.144 25.7091 101.626 25.0511 100.954 24.2951ZM103.628 16.7911H98.63C98.448 16.2731 98.266 15.8111 98.07 15.4051L96.992 15.5731C97.188 15.9371 97.384 16.3431 97.566 16.7911H92.302V19.5911H93.324V17.7571H102.62V19.5071H103.628V16.7911Z" fill="white"/>
<rect x="0.5" y="1.33691" width="147" height="41" rx="1.5" stroke="#F7A72E"/>
<path fill-rule="evenodd" clip-rule="evenodd" d="M148 21.8369V39.8369C148 41.4938 146.657 42.8369 145 42.8369H125L148 21.8369Z" fill="#F7A72E"/>
<path d="M146.694 30.8369C143.046 32.998 140.4 35.7268 139.206 37.0942L136.29 34.8867L135 35.8891L140.034 40.8369C140.898 38.6932 143.646 34.5044 147 31.5264L146.694 30.8369V30.8369Z" fill="#FFEBCC"/>
</svg>
