<svg width="148" height="42" viewBox="0 0 148 42" fill="none" xmlns="http://www.w3.org/2000/svg">
<path fill-rule="evenodd" clip-rule="evenodd" d="M53.5938 25.6436C54.3374 24.0992 54.75 22.3934 54.75 20.6C54.75 13.6412 48.538 8 40.875 8C33.212 8 27 13.6412 27 20.6C27 27.5588 33.212 33.2 40.875 33.2C45.3531 33.2 49.3357 31.2735 51.8727 28.2834C49.8133 27.457 46.3825 26.059 44.2965 25.0941C42.205 27.5194 39.4975 29 36.6991 29C32.0003 29 30.3863 25.1075 32.6115 22.5381C33.3099 21.8326 34.222 21.347 35.2236 21.1475C37.2769 20.6525 40.4907 21.4176 43.4847 22.358C44.104 21.3227 44.6112 20.2311 44.9984 19.0999H35.448V18.2001H40.2232V16.85H34.493V15.9501H40.2233V13.7001C40.2233 13.7001 40.3044 13.25 40.7295 13.25H43.0884V15.9501L48.8187 15.8961V16.85H43.0884V18.2001H47.8636C47.3859 19.9078 46.6799 21.5514 45.7625 23.0915C46.2474 23.2581 46.7147 23.4201 47.1579 23.5736L47.1582 23.5737C48.0196 23.8723 48.7897 24.1392 49.4203 24.3472C52.7983 25.4096 53.5753 25.5103 53.5934 25.5126L53.5938 25.5126V25.6436ZM33.8355 23.8986C34.462 23.4307 35.2315 23.1103 36.0626 22.9713C38.3549 22.7659 40.7125 23.6851 43.2557 24.7069C41.4197 26.6025 39.1726 27.7885 36.9304 27.7885C33.0379 27.7885 31.9143 25.2896 33.8355 23.8986Z" fill="white"/>
<path d="M70.454 14.562V16.396H65.008V17.376H70.454V19.518H66.072V20.456H67.15C67.374 21.212 67.738 21.926 68.242 22.57C68.788 23.27 69.432 23.9 70.16 24.446C68.648 25.342 66.828 26.042 64.7 26.546L65.274 27.442C67.5 26.84 69.404 26.042 71 25.034C71.7 25.482 72.484 25.888 73.338 26.252C74.416 26.7 75.564 27.092 76.768 27.414L77.356 26.532C76.222 26.252 75.158 25.93 74.164 25.552C73.324 25.216 72.554 24.838 71.854 24.446C73.338 23.326 74.472 21.982 75.256 20.414V19.518H71.49V17.376H76.992V16.396H71.49V14.562H70.454ZM70.986 23.9C70.37 23.48 69.81 22.99 69.32 22.43C68.788 21.856 68.396 21.198 68.144 20.456H74.122C73.394 21.8 72.344 22.948 70.986 23.9ZM81.71 14.436C81.038 16.676 79.96 18.65 78.476 20.372L78.784 21.422C79.414 20.75 79.988 20.05 80.492 19.308V27.428H81.5V17.642C81.948 16.774 82.34 15.864 82.648 14.884L81.71 14.436ZM82.942 17.6V18.58H88.304V25.636C88.304 26.14 88.08 26.392 87.646 26.392C87.03 26.392 86.4 26.364 85.742 26.322L85.966 27.316H87.996C88.864 27.316 89.312 26.84 89.312 25.888V18.58H91.328V17.6H89.312V14.59H88.304V17.6H82.942ZM84.23 20.106L83.404 20.61C84.426 21.856 85.238 22.99 85.84 24.012L86.694 23.41C86.12 22.472 85.294 21.366 84.23 20.106ZM98.496 19.756V22.164H94.8V23.116H98.496V26.07H93.19V27.008H104.852V26.07H99.518V23.116H103.144V22.164H99.518V19.756H103.606V18.804H94.478V19.756H98.496ZM101.954 23.508L101.184 23.97C101.828 24.726 102.346 25.426 102.724 26.042L103.508 25.51C103.144 24.922 102.626 24.264 101.954 23.508ZM104.628 16.004H99.63C99.448 15.486 99.266 15.024 99.07 14.618L97.992 14.786C98.188 15.15 98.384 15.556 98.566 16.004H93.302V18.804H94.324V16.97H103.62V18.72H104.628V16.004Z" fill="white"/>
<rect x="0.5" y="0.5" width="147" height="41" rx="1.5" stroke="#FFE6B3"/>
<path fill-rule="evenodd" clip-rule="evenodd" d="M148 20V39C148 40.6569 146.657 42 145 42H122L148 20Z" fill="#FFE6B2"/>
</svg>
